<svg xmlns="http://www.w3.org/2000/svg" viewBox="0 0 141.62 254.47"><defs><style>.cls-1{fill:#ebbc9f;}.cls-2{fill:#b08d77;}.cls-3{fill:#b95444;}.cls-4{fill:#79d4e6;}.cls-5{fill:#8b3f33;}.cls-6{fill:#b1a299;}.cls-7{fill:#f7705a;}</style></defs><title>Asset 21</title><g id="Layer_2" data-name="Layer 2"><g id="Layer_1-2" data-name="Layer 1"><rect class="cls-1" x="6.3" y="10.72" width="103.92" height="236.39"/><rect class="cls-2" x="110.22" y="10.72" width="26.01" height="236.39"/><rect class="cls-2" x="14.87" y="19.76" width="88.14" height="64.16"/><rect class="cls-3" x="20.7" y="23.45" width="22.34" height="26.11"/><rect class="cls-4" x="21.94" y="24.97" width="9.23" height="9.23"/><rect class="cls-4" x="32.35" y="24.97" width="9.23" height="9.23"/><rect class="cls-4" x="21.94" y="35.38" width="9.23" height="12.66"/><rect class="cls-4" x="32.35" y="35.38" width="9.23" height="12.66"/><rect class="cls-3" x="47.09" y="23.45" width="22.34" height="26.11"/><rect class="cls-4" x="48.33" y="24.97" width="9.23" height="9.23"/><rect class="cls-4" x="58.74" y="24.97" width="9.23" height="9.23"/><rect class="cls-4" x="48.33" y="35.38" width="9.23" height="12.66"/><rect class="cls-4" x="58.74" y="35.38" width="9.23" height="12.66"/><rect class="cls-3" x="73.47" y="23.45" width="22.34" height="26.11"/><rect class="cls-4" x="74.71" y="24.97" width="9.23" height="9.23"/><rect class="cls-4" x="85.12" y="24.97" width="9.23" height="9.23"/><rect class="cls-4" x="74.71" y="35.38" width="9.23" height="12.66"/><rect class="cls-4" x="85.12" y="35.38" width="9.23" height="12.66"/><rect class="cls-3" x="20.7" y="53.5" width="22.34" height="26.11"/><rect class="cls-4" x="21.94" y="55.02" width="9.23" height="9.23"/><rect class="cls-4" x="32.35" y="55.02" width="9.23" height="9.23"/><rect class="cls-4" x="21.94" y="65.43" width="9.23" height="12.66"/><rect class="cls-4" x="32.35" y="65.43" width="9.23" height="12.66"/><rect class="cls-3" x="47.09" y="53.5" width="22.34" height="26.11"/><rect class="cls-4" x="48.33" y="55.02" width="9.23" height="9.23"/><rect class="cls-4" x="58.74" y="55.02" width="9.23" height="9.23"/><rect class="cls-4" x="48.33" y="65.43" width="9.23" height="12.66"/><rect class="cls-4" x="58.74" y="65.43" width="9.23" height="12.66"/><rect class="cls-3" x="73.47" y="53.5" width="22.34" height="26.11"/><rect class="cls-4" x="74.71" y="55.02" width="9.23" height="9.23"/><rect class="cls-4" x="85.12" y="55.02" width="9.23" height="9.23"/><rect class="cls-4" x="74.71" y="65.43" width="9.23" height="12.66"/><rect class="cls-4" x="85.12" y="65.43" width="9.23" height="12.66"/><rect class="cls-3" x="20.7" y="106.47" width="22.34" height="26.11"/><rect class="cls-4" x="21.94" y="107.98" width="9.23" height="9.23"/><rect class="cls-4" x="32.35" y="107.98" width="9.23" height="9.23"/><rect class="cls-4" x="21.94" y="118.39" width="9.23" height="12.66"/><rect class="cls-4" x="32.35" y="118.39" width="9.23" height="12.66"/><rect class="cls-3" x="47.09" y="106.47" width="22.34" height="26.11"/><rect class="cls-4" x="48.33" y="107.98" width="9.23" height="9.23"/><rect class="cls-4" x="58.74" y="107.98" width="9.23" height="9.23"/><rect class="cls-4" x="48.33" y="118.39" width="9.23" height="12.66"/><rect class="cls-4" x="58.74" y="118.39" width="9.23" height="12.66"/><rect class="cls-3" x="73.47" y="106.47" width="22.34" height="26.11"/><rect class="cls-4" x="74.71" y="107.98" width="9.23" height="9.23"/><rect class="cls-4" x="85.12" y="107.98" width="9.23" height="9.23"/><rect class="cls-4" x="74.71" y="118.39" width="9.23" height="12.66"/><rect class="cls-4" x="85.12" y="118.39" width="9.23" height="12.66"/><rect class="cls-3" x="20.7" y="136.52" width="22.34" height="26.11"/><rect class="cls-4" x="21.94" y="138.04" width="9.23" height="9.23"/><rect class="cls-4" x="32.35" y="138.04" width="9.23" height="9.23"/><rect class="cls-4" x="21.94" y="148.45" width="9.23" height="12.66"/><rect class="cls-4" x="32.35" y="148.45" width="9.23" height="12.66"/><rect class="cls-3" x="47.09" y="136.52" width="22.34" height="26.11"/><rect class="cls-4" x="48.33" y="138.04" width="9.23" height="9.23"/><rect class="cls-4" x="58.74" y="138.04" width="9.23" height="9.23"/><rect class="cls-4" x="48.33" y="148.45" width="9.23" height="12.66"/><rect class="cls-4" x="58.74" y="148.45" width="9.23" height="12.66"/><rect class="cls-3" x="20.7" y="189.24" width="22.34" height="45.48"/><rect class="cls-4" x="21.94" y="191.89" width="9.23" height="16.07"/><rect class="cls-4" x="32.35" y="191.89" width="9.23" height="16.07"/><rect class="cls-4" x="21.94" y="210.02" width="9.23" height="22.06"/><rect class="cls-4" x="32.35" y="210.02" width="9.23" height="22.06"/><rect class="cls-3" x="47.09" y="189.24" width="22.34" height="45.48"/><rect class="cls-4" x="48.33" y="191.89" width="9.23" height="16.07"/><rect class="cls-4" x="58.74" y="191.89" width="9.23" height="16.07"/><rect class="cls-4" x="48.33" y="210.02" width="9.23" height="22.06"/><rect class="cls-4" x="58.74" y="210.02" width="9.23" height="22.06"/><rect class="cls-3" x="73.47" y="136.52" width="22.34" height="26.11"/><rect class="cls-4" x="74.71" y="138.04" width="9.23" height="9.23"/><rect class="cls-4" x="85.12" y="138.04" width="9.23" height="9.23"/><rect class="cls-4" x="74.71" y="148.45" width="9.23" height="12.66"/><rect class="cls-4" x="85.12" y="148.45" width="9.23" height="12.66"/><rect class="cls-3" y="89.75" width="115.32" height="8.67"/><rect class="cls-5" x="115.32" y="89.75" width="25.06" height="8.67"/><rect class="cls-3" y="171.42" width="115.32" height="8.67"/><rect class="cls-5" x="115.32" y="171.42" width="25.06" height="8.67"/><rect class="cls-6" y="247.11" width="141.62" height="7.36"/><rect class="cls-3" x="78.77" y="189.24" width="25.06" height="57.87"/><rect class="cls-5" x="81.74" y="193.31" width="8.11" height="11.42"/><rect class="cls-5" x="92.83" y="193.31" width="8.11" height="11.42"/><rect class="cls-5" x="81.74" y="232.08" width="8.11" height="11.42"/><rect class="cls-5" x="92.83" y="232.08" width="8.11" height="11.42"/><rect class="cls-5" x="81.74" y="205.85" width="8.11" height="24.72"/><rect class="cls-5" x="92.83" y="205.85" width="8.11" height="24.72"/><rect class="cls-7" x="37.35" width="54.21" height="10.72"/><rect class="cls-3" x="91.56" width="15.65" height="10.72"/></g></g></svg>