<svg version="1.2" xmlns="http://www.w3.org/2000/svg" viewBox="0 0 2340 1560" width="2340" height="1560"><defs><clipPath clipPathUnits="userSpaceOnUse" id="cp1"><path d="m2342 1560h-2340v-1560h2340z"/></clipPath><linearGradient id="P" gradientUnits="userSpaceOnUse"/><linearGradient id="g1" x1="652.6" y1="1514.3" x2="652.6" y2="-38.2" href="#P"><stop offset=".01" stop-color="#fde7db"/><stop offset="1" stop-color="#58b3e2"/></linearGradient><linearGradient id="g2" x1="329.6" y1="209.2" x2="329.6" y2="106.1" href="#P"><stop offset="0" stop-color="#e8f3fc" stop-opacity="0"/><stop offset="1" stop-color="#fff" stop-opacity="1"/></linearGradient><linearGradient id="g3" x1="952.7" y1="417.8" x2="952.7" y2="334.3" href="#P"><stop stop-color="#fff" stop-opacity="0"/><stop offset="1" stop-color="#fff" stop-opacity="1"/></linearGradient><linearGradient id="g4" x1="382.3" y1="839.7" x2="1194.8" y2="-57.5" href="#P"><stop offset=".2" stop-color="#cadef7"/><stop offset="1" stop-color="#fff"/></linearGradient><linearGradient id="g5" x1="565.7" y1="733.7" x2="565.7" y2="559.3" href="#P"><stop stop-color="#fff" stop-opacity="0"/><stop offset="1" stop-color="#fff" stop-opacity="1"/></linearGradient><linearGradient id="g6" x1="597" y1="1889.6" x2="597" y2="705.4" href="#P"><stop stop-color="#a9c2fc"/><stop offset="1" stop-color="#5370b9"/></linearGradient><linearGradient id="g7" x1="223.9" y1="1247.5" x2="223.9" y2="792.2" href="#P"><stop stop-color="#4865b0" stop-opacity="0"/><stop offset="1" stop-color="#415fab" stop-opacity="1"/></linearGradient><linearGradient id="g8" x1="400.8" y1="1022.6" x2="1102.1" y2="1022.6" href="#P"><stop stop-color="#4865b0"/><stop offset="1" stop-color="#415fab"/></linearGradient><linearGradient id="g9" x1="709.9" y1="1152.4" x2="1062" y2="1152.4" href="#P"><stop stop-color="#4865b0"/><stop offset="1" stop-color="#415fab"/></linearGradient><linearGradient id="g10" x1="857.6" y1="1526.1" x2="1410.7" y2="119.9" href="#P"><stop offset="0" stop-color="#aac3fc"/><stop offset="1" stop-color="#e6ddea"/></linearGradient><linearGradient id="g11" x1="1118.1" y1="684.6" x2="2493.4" y2="433" href="#P"><stop offset=".37" stop-color="#cadef7"/><stop offset="1" stop-color="#f3dbce"/></linearGradient><linearGradient id="g12" x1="1479" y1="1284.2" x2="1500.6" y2="1062.1" href="#P"><stop offset="0" stop-color="#aac3fc"/><stop offset="1" stop-color="#e6ddea"/></linearGradient><linearGradient id="g13" x1="924" y1="1307.5" x2="1192.7" y2="1350.4" href="#P"><stop offset="0" stop-color="#b0d0f1"/><stop offset="1" stop-color="#cadef7"/></linearGradient><linearGradient id="g14" x1="-2.3" y1="1159.7" x2="268.9" y2="1159.7" href="#P"><stop stop-color="#4865b0"/><stop offset="1" stop-color="#415fab"/></linearGradient><linearGradient id="g15" x1="79.5" y1="1287.8" x2="79.5" y2="1117" href="#P"><stop offset="0" stop-color="#97acf5"/><stop offset="1" stop-color="#cadef7"/></linearGradient><linearGradient id="g16" x1="0" y1="1160.8" x2="211.4" y2="943.2" href="#P"><stop offset=".2" stop-color="#cadef7"/><stop offset="1" stop-color="#f3dbce"/></linearGradient><linearGradient id="g17" x1="-2.3" y1="1299.1" x2="176.4" y2="1299.1" href="#P"><stop stop-color="#4865b0"/><stop offset="1" stop-color="#415fab"/></linearGradient><linearGradient id="g18" x1="456.8" y1="676" x2="2337.4" y2="676" href="#P"><stop stop-color="#fff" stop-opacity="1"/><stop offset="1" stop-color="#fff" stop-opacity="0"/></linearGradient><linearGradient id="g19" x1="-3.9" y1="1127" x2="289" y2="1013.3" href="#P"><stop stop-color="#fff" stop-opacity="0"/><stop offset="1" stop-color="#fff" stop-opacity="1"/></linearGradient><linearGradient id="g20" x1="430.6" y1="1138.6" x2="660.2" y2="1138.6" href="#P"><stop stop-color="#4865b0"/><stop offset="1" stop-color="#415fab"/></linearGradient><linearGradient id="g21" x1="232.1" y1="805.3" x2="301.7" y2="89.3" href="#P"><stop offset="0" stop-color="#aac3fc"/><stop offset="1" stop-color="#e6ddea"/></linearGradient><linearGradient id="g22" x1="141.5" y1="827.2" x2="141.5" y2="609.2" href="#P"><stop stop-color="#7898e3"/><stop offset="1" stop-color="#3c67c5"/></linearGradient><linearGradient id="g23" x1="123.6" y1="591.7" x2="265.7" y2="591.7" href="#P"><stop stop-color="#7898e3"/><stop offset="1" stop-color="#3c67c5"/></linearGradient><linearGradient id="g24" x1="513.5" y1="753.8" x2="559" y2="591.6" href="#P"><stop offset="0" stop-color="#fff" stop-opacity="0"/><stop offset="1" stop-color="#fff" stop-opacity="1"/></linearGradient><linearGradient id="g25" x1="246.7" y1="613.4" x2="270.9" y2="363.6" href="#P"><stop offset="0" stop-color="#fff" stop-opacity="0"/><stop offset="1" stop-color="#fff" stop-opacity="1"/></linearGradient><linearGradient id="g26" x1="-838.6" y1="701.6" x2="-783.9" y2="138.7" href="#P"><stop stop-color="#7898e3"/><stop offset="1" stop-color="#3c67c5"/></linearGradient><linearGradient id="g27" x1="615.5" y1="822.1" x2="615.5" y2="772.3" href="#P"><stop stop-color="#7898e3"/><stop offset="1" stop-color="#3c67c5"/></linearGradient><linearGradient id="g28" x1="824.2" y1="925" x2="1671.5" y2="925" href="#P"><stop offset="0" stop-color="#aac3fc"/><stop offset="1" stop-color="#e6ddea"/></linearGradient><linearGradient id="g29" x1="133.7" y1="491.6" x2="133.7" y2="491.6" href="#P"><stop offset="0" stop-color="#fff" stop-opacity="0"/><stop offset="1" stop-color="#fff" stop-opacity="1"/></linearGradient><linearGradient id="g30" x1="56.8" y1="499.6" x2="56.8" y2="442.2" href="#P"><stop offset="0" stop-color="#fff" stop-opacity="0"/><stop offset="1" stop-color="#fff" stop-opacity="1"/></linearGradient><linearGradient id="g31" x1="134.8" y1="491.4" x2="134.8" y2="491.4" href="#P"><stop offset="0" stop-color="#fff" stop-opacity="0"/><stop offset="1" stop-color="#fff" stop-opacity="1"/></linearGradient><linearGradient id="g32" x1="1579.6" y1="329.6" x2="2350.5" y2="329.6" href="#P"><stop stop-color="#fff" stop-opacity="1"/><stop offset=".9" stop-color="#fff" stop-opacity="0"/></linearGradient><linearGradient id="g33" x1="892.5" y1="291.8" x2="804.4" y2="291.8" href="#P"><stop stop-color="#1e44a4"/><stop offset="1" stop-color="#1d3284"/></linearGradient><linearGradient id="g34" x1="1135.7" y1="308.6" x2="1084.2" y2="308.6" href="#P"><stop stop-color="#1e44a4"/><stop offset="1" stop-color="#1d3284"/></linearGradient><linearGradient id="g35" x1="1031.6" y1="350.6" x2="997.5" y2="350.6" href="#P"><stop stop-color="#1e44a4"/><stop offset="1" stop-color="#1d3284"/></linearGradient><linearGradient id="g36" x1="1862.8" y1="209.5" x2="1862.8" y2="105.7" href="#P"><stop offset=".1" stop-color="#fff" stop-opacity="0"/><stop offset="1" stop-color="#fff" stop-opacity="1"/></linearGradient><linearGradient id="g37" x1="955.3" y1="727" x2="996.4" y2="727" href="#P"><stop stop-color="#fff"/><stop offset="1" stop-color="#fff"/></linearGradient><linearGradient id="g38" x1="1181.4" y1="665.7" x2="1281.6" y2="665.7" href="#P"><stop stop-color="#fff"/><stop offset="1" stop-color="#fff"/></linearGradient><linearGradient id="g39" x1="1016.9" y1="703.7" x2="1062" y2="703.7" href="#P"><stop stop-color="#fff"/><stop offset="1" stop-color="#fff"/></linearGradient><linearGradient id="g40" x1="2210.9" y1="601.1" x2="2285.1" y2="601.1" href="#P"><stop stop-color="#fff"/><stop offset="1" stop-color="#fff"/></linearGradient></defs><style>.a{fill:url(#g1)}.b{fill:url(#g2)}.c{fill:url(#g3)}.d{fill:url(#g4)}.e{fill:url(#g5)}.f{fill:url(#g6)}.g{opacity:.5;fill:url(#g7)}.h{opacity:.3;fill:url(#g8)}.i{opacity:.2;fill:url(#g9)}.j{fill:url(#g10)}.k{fill:url(#g11)}.l{fill:url(#g12)}.m{opacity:.7;fill:url(#g13)}.n{opacity:.3;fill:url(#g14)}.o{fill:url(#g15)}.p{fill:url(#g16)}.q{fill:url(#g17)}.r{fill:url(#g18)}.s{fill:url(#g19)}.t{opacity:.2;fill:url(#g20)}.u{fill:url(#g21)}.v{opacity:.3;fill:url(#g22)}.w{opacity:.3;fill:url(#g23)}.x{fill:url(#g24)}.y{fill:url(#g25)}.z{opacity:.4;fill:url(#g26)}.A{opacity:.3;fill:url(#g27)}.B{fill:url(#g28)}.C{fill:#fff}.D{fill:url(#g29)}.E{fill:url(#g30)}.F{fill:url(#g31)}.G{opacity:.4;fill:url(#g32)}.H{fill:url(#g33)}.I{fill:url(#g34)}.J{fill:url(#g35)}.K{fill:url(#g36)}.L{fill:#011356}.M{fill:#ed5a4f}.N{fill:url(#g37)}.O{fill:url(#g38)}.P{fill:#e8f1f9}.Q{fill:url(#g39)}.R{fill:url(#g40)}</style><g clip-path="url(#cp1)"><path class="a" d="m2337.6 1514.3h-2339.8v-1552.5h2339.8z"/><g style="opacity:.3"><path class="b" d="m9.6 115.7c24-15.9 56.3-9.7 83.1 0.9 26.8 10.7 53.3 25.4 82.1 24.8 35.5-0.7 67.3-24.5 102.7-25.7 55.4-2 98.6 50 153.1 59.9 37.5 6.8 76-7.1 114-3.6 43.4 3.9 81.9 30.2 124.9 37.2h-663.8"/></g><g style="opacity:.3"><path class="c" d="m1213.5 417.8c-3.5-13-55.3-15.5-73.8-23.2-28.6-11.9-61.1-10-90.2-20.5-18.8-6.8-35.5-18.6-53.5-27.6-17.9-9.1-38.3-15.4-57.7-10.4-19.8 5.2-35.1 21.4-54 29.7-39.7 17.3-89.1-2.9-126.5 19.2-17.9 10.6-31.8 30.3-52.2 32.8z"/></g><g style="opacity:.6"><path class="d" d="m1185.2 746.8c-16.1 0.5-30.3-9.1-39.7-19.9-9.4-10.8-15.8-23.2-26.3-33.3-10.6-10.1-27.2-17.6-42.6-13.6-24.3-32.6-52.3-63.3-83.4-91.7-2.9-2.6-6.1-5.3-10.3-5.9-6.3-1-11.9 3-18 4.6-12.6 3.3-25.4-4.1-34.6-11.8-9.2-7.8-18.4-17-31.4-18.8-13-1.9-25.4 4.3-37.6 8.5-33.7 11.6-71.7 8.6-108.2 7.4-6-0.2-12.4-0.3-17.7 2-3.9 1.7-6.8 4.6-9.7 7.2-35.8 32.4-88.6 51.4-141.7 51-12.7-0.1-26.8-2.5-37.6 2.9-198.5 100.2-408.5 140.6-402.7 149.9"/></g><g style="opacity:.5"><path class="e" d="m368.2 733.7c101.5-2.6 202.3-31.1 290.6-82.3 29.4-17 61.9-37.4 94.8-29 15.7 4 30.2 14.5 46.4 13.3 18.6-1.3 32.5-17.4 44-32.5q16.7-21.7 32.9-43.9c-5.3 1.7-10.5 3.8-15.6 5.6-33.7 11.6-71.7 8.6-108.2 7.4-6-0.2-12.4-0.3-17.7 2-3.9 1.7-6.8 4.6-9.7 7.2-35.8 32.4-88.6 51.4-141.7 51-12.7-0.1-26.8-2.5-37.6 2.9-83 41.9-168 73.4-238.5 96.5z"/></g><path class="f" d="m1610.4 1564h-1612.7v-817.1h1612.7z"/><path class="g" d="m732.9 814.9c0 0-49.3 184.4-113.9 232.2-64.6 47.9-172.1 84.9-175.3 125.1-3.2 40.3-131.4 112.8-178 51.9-46.7-60.9-264.7-65.3-268-103-3.3-37.7 0-306.2 0-306.2h125.9l79.5-22.7c0 0 68.9 120.1 102.6 123 33.7 2.9 61.9-53.7 61.9-53.7 0 0 2-36.5 4.2-52 2.2-15.4 361.1 5.4 361.1 5.4z"/><path class="h" d="m400.8 1022.6c0 0 22.2 200.8 29.8 215.8 7.6 15.1 34.4 39.8 33.5 54.8-0.9 15 11.8 147.1 29.5 194.4 17.7 47.3 44.4 14.3 76.8 74.8h531.7l-90.4-445.4z"/><path class="i" d="m709.9 1192.4c0 0 36.7 224.3 41.6 261.5 4.8 37.1 66.2 85.6 66.2 85.6 0 0 10.4-127.2 33.9-189.3 23.4-62 337.8-147.8 151.9-185.9-185.8-38.2-293.6 28.1-293.6 28.1z"/><path class="j" d="m960.2 835.5c-131.6 34.5-173.7 75.6-236.4 95.1-36.8 12-178 35-260.4 63.6l-62.6-6v44.7c-3.9 20.2 69.7 17.4 66.3 29.2-4.1 14.2-18.2 19.2 30.1 21.4 48.5 2.2 158.3 11.8 158.8 23.1 0.4 11.2-9.5 13.7 26 20.5 30.2 5.7 17.9 11.7 24.3 18.3l-0.1 1.9v40c-0.3 3 0.6 5.3 3.7 6.6 14.7 5.7 122.3 8.4 147.2 22.2 24.9 13.7 35.9 33.9 55.2 43 19.2 9.2 7 16.5-2.4 21.8-6.3 3.5-29.7 11.9-43.8 21.6l-19.8-1.5v36c-1.2 2.4-0.4 4.6 5.3 7 15.7 6.9 63.6 25.3 64.1 32 0.5 6.6-25.2 12.8-20.8 36.6 0.4 2.3-0.5 4.8-2.6 7.4l-150.5 54.8v36.3q0 0 0 0c-13 28.9 167.8 38.3 177.6 47.1 9.8 8.7-5.1 12.6 61.1 16.8 54.9 3.4 73.6 18.7 78.4 23.9h1278.5v-872.9c-70.5 21.6-1250.7 73.3-1377.2 109.5z"/><path class="k" d="m2337.4 676c-70.5 22-1250.7 74.5-1377.2 111.4-131.6 35.1-173.7 76.9-236.4 96.7-45.9 15.4-254.8 47.9-308.6 87.5-53 39 56 31.8 51.9 46.3-4.1 14.5-18.2 19.6 30.1 21.8 48.5 2.2 158.3 12 158.8 23.5 0.4 11.4-9.5 14 26 20.8 35.6 6.9 12.2 14.2 29.8 22.3 17.6 8.2-16.6 39.8-1.9 45.7 14.7 5.8 122.3 8.6 147.2 22.6 24.9 14 35.9 34.5 55.2 43.8 19.2 9.3 7 16.7-2.4 22.1-9.3 5.4-56.6 21.5-54.5 37.2 2.1 15.7-19.6 20-3.8 27.1 15.7 7 63.6 25.6 64.1 32.4 0.5 6.8-25.2 13.1-20.8 37.3 4.4 24.1-139.9 70.6-153.1 100.3-13 29.4 167.8 38.9 177.6 47.8 9.8 8.9-5.1 12.9 61.1 17.1 54.9 3.5 73.6 19 78.4 24.3h1278.5z"/><path class="l" d="m1832.9 1228.5c0 20.9-152.5 37.8-340.6 37.8-188.1 0-340.6-16.9-340.6-37.8 0-20.9 152.5-37.8 340.6-37.8 188.1 0 340.6 16.9 340.6 37.8z"/><path class="m" d="m1186.6 1392.9q1-0.7 1.9-1.3c5.2-3.8 5.6-6.7 1.1-7.3-12.2-1.6-22.1 0.5-22.1 0.5 0 0 0.3-0.3 0.9-0.9 2.1-2.4 7.3-8.8 8.5-14.7q0 0 0 0 0 0 0 0c1.2-6.3-1.8-15.4-13.1-19.3 1.6-1.1 4.7-3.3 2.9-3.7-1.9-0.3-22.7-3.6-30.8-4.9-0.9-0.1-1.6 0.2-0.9 0.5 3 1.1 9.2 3 19.9 5l-1.8 1.3c-14.4-0.8-27.4 3.3-27.4 3.3-1.9-2.9-5.4-5.1-10.4-6.4 1.2-1.2 3.1-3.5 1.3-3.7-1.9-0.3-23.4-2.7-31.7-3.6-0.9-0.1-1.4 0.3-0.6 0.5 3.3 1 9.9 2.6 21.1 4.2l-1.3 1.4c-3.8 0.1-8 0.5-12.5 1.3q-3.8 0.7-7.9 1.8c-9.5 2.6-14.8 5-20.2 8.3-6.8 4.1-13.8 9.8-29.5 19.4-3-3.5-7.2-6.7-10.5-9-1.9-1.3-7-1.5-8.5-0.3-11.7 9.1-3.7 18.5 1.3 22.8q-0.1 0.1-0.2 0.2-0.1 0.1-0.1 0.2-0.4 0.5-0.6 0.9-0.2 0.1-0.3 0.3-0.3 0.5-0.6 0.9c-4.5 7.8 1.7 12.5 3.5 18 1.8 5.3-1.6 6.9-8.9 7.2q-0.3 0-0.6 0-0.7 0.1-1.5 0.1-0.4 0-0.9 0-0.7 0-1.5 0-0.4 0-0.9 0-1.1 0-2.4-0.1-0.3 0-0.6 0-1.1 0-2.1 0-0.6 0-1.3-0.1-1 0-2.2 0-1.7-0.1-3.5-0.1 0 0-0.1-0.1c-8.5-0.2-15.4 0-20.4 0.3-1.7-0.1-24.6-1.4-47.1-5.5 0 0 7.7 7.3 44.2 11q0 0 0.2-0.1 1.5 1 3.2 1.8 2.2 1.1 4.7 2.1 3.6 1.5 7.7 2.7c4.5 1.3 9.3 2.4 14.4 3.2 11.2 1.8 23.7 2.4 36.7 1.8q3.5-0.2 7.1-0.5 7.1-0.5 14.2-1.5c14.3-2 26.9-5.2 37-8.5q1.2-0.4 2.4-0.8 3.7-1.2 6.8-2.4c3.5-1.3 6.5-2.5 9-3.6 5.5-2.4 8.6-4.1 8.6-4.1 25.6-3.1 44.4-8.4 56.5-13.5q1.7-0.8 3.3-1.5 2.2-1 4-2 1.4-0.8 2.6-1.5z"/><path class="n" d="m268.9 1159.7c0 0-8.5 111.7-31.5 141.7-23 30-71.6 219.4-109.6 222.6-38 3.3-62.2 34.4-80.9 38.4h-49.2v-341.3z"/><path class="o" d="m268.9 1121.8l-59.9 17.4c-4.9-0.7-9.1-1.3-11.8-1.8-14.3-2.5-22.3-13.6-53.2-13.6-30.8 0-146.3-6.8-146.3-6.8v170.8c146.1-8.1 176.9-22.2 176-34.7v-24.9c20.2-9 56.3-21.7 54.9-33.8v-8.1c8.6-6.9 39.9-16.3 40.3-26.6z"/><path class="p" d="m-2.3 1078.9c0 0 115.5 6.8 146.3 6.8 30.9 0 38.9 11 53.2 13.6 14.2 2.6 66.2 6.6 71.4 20.1 5.1 13.6-47.8 25.7-41.7 33 15.3 18.8-75.2 40-65.7 47.4 18.1 14.1 47.2 38.2-163.5 49.9z"/><g style="opacity:.2"><path class="q" d="m175.7 1452.2c-36.2 65.6-61-5.3-75.6-41.6-11-27.6-19.1-86.6-34.8-111.5-10.9 21.8-13.9 59.1-13.6 83.7 0.4 32-1.8 64-6.6 95.6-10.2-4.3-14.3-16.7-17.7-27.6-7.9-25.4-17.8-50.1-29.7-73.7v185.3h49.2c18.6-4 42.9-35.1 80.9-38.4 15.3-1.3 32.2-32.6 48.6-71.6-0.2-0.1-0.6-0.4-0.7-0.2z"/></g><path class="r" d="m2337.4 827.4v-151.4c-70.5 22-1250.7 74.5-1377.2 111.4-131.6 35.1-173.7 76.9-236.4 96.7-37.8 12.6-185.7 36.9-267 67.2 143.8-16.3 348.3-61.4 400.7-73.2 57-12.8 119.1-25.5 177.3-28.9 98.8-5.8 1193.9-16.8 1302.6-21.8z"/><path class="s" d="m161.2 1199.8c-9.5-7.4 81-28.6 65.7-47.4-6.1-7.3 46.8-19.4 41.7-33-5.2-13.5-57.2-17.5-71.4-20.1-7.1-1.3-12.6-4.6-20.1-7.7l-179.4 71.2v86.9c210.7-11.7 181.6-35.8 163.5-49.9z"/><path class="t" d="m541.6 1386.2c-27.3-20.1-57.6-288.5-64.2-242.2-16.3 113.5-46.8 94.4-46.8 94.4 7.6 15.1 34.4 39.8 33.5 54.8-0.9 15 11.8 147.1 29.5 194.4 17.7 47.3 44.4 14.3 76.8 74.8h89.8c-39.1-70.6-58.3-165.5-59.3-201.3-1.6-57.2-32.1 45.3-59.3 25.1z"/><path class="u" d="m-2.3 444.8c0 0 44.4-5.9 67.9 0 23.4 6 48.6 47.6 55.6 48.5 7 0.9 30.6-7.1 36.3-6.2 5.7 0.9 21.4 14.7 23.6 14.7 2.1 0 31.4-14.3 41-15.6 9.6-1.4 90.4 8.9 110.1 15.6 19.7 6.7 98.2 150.7 106.9 153.1 8.8 2.5 48.3-17.9 62.9-16.3 14.5 1.7 78.1 76.2 83.8 74.7 5.7-1.6 42.3-12.1 52-11.5 8.8 0.5 62.1 77.5 98 107.9 3.3 2.7 1.4 8.2-2.9 8.2h-209.6c-8 0.5-15.3 0.5-22.8 4.2-27.8 13.8-30.4-4.8-56.7-4.2h-65.4c-3.4 0-6.3-2.6-6.6-6.1-2.4-25.1-11.7-120.5-19.1-136.4-8.6-18.3-75.1-83.7-87-83.7-12 0-47.8 52.3-47.8 72.4 0 17-4.1 92.3-14.8 128.1-2.6 8.7-9.8 15.2-18.7 16.5l-60.8 9.2h-125.9z"/><path class="v" d="m435.6 651.5q-1.2-1.5-2.7-3.5c0 0 19.1 89.6 18.3 170.3 14.2 1.8 20.6 9.4 32.4 8.9-2.2-31.5-11.7-126.1-48-175.7z"/><path class="w" d="m265.7 591.7c0 0-74.5 8.4-88 43-13.5 34.5-28.3 173.5-54.1 183.2l60.8-9.2c8.9-1.3 16.1-7.8 18.7-16.5 10.7-35.8 14.8-111.1 14.8-128.1 0-20.1 35.8-72.4 47.8-72.4z"/><path class="x" d="m581.8 747.1c12.9-6.8 11.4-63.2 107.2 12.5-24.2-29.1-45.8-57.5-51.2-57.8-9.7-0.6-46.3 9.9-52 11.5-5.7 1.5-69.3-73-83.8-74.7-7.1-0.8-20.2 3.7-32.8 8.2 0 0 29.8-1.6 51 26.9 21.2 28.5 48.6 80.3 61.6 73.4z"/><path class="y" d="m294.8 529.3c19.7 3.6 44.3-4.5 121.4 93.3-27.3-43.6-70.2-116.1-84-120.8-19.7-6.7-100.5-17-110.1-15.6-9.6 1.3-38.9 15.6-41 15.6l46.2 38.9c0 0 47.9-15 67.5-11.4z"/><path class="z" d="m70.6 817.9c-74.4-21.8-15.7-81.9-29.5-113.1-36.4-82.2-43.4-239-43.4-239v352.1z"/><path class="A" d="m732.9 817.9c4.3 0 6.2-5.5 2.9-8.2-119 2.3-230.8-42.9-227.9-23.8 2.9 19.1-7.4 36.2-7.4 36.2 7.5-3.7 14.8-3.7 22.8-4.2z"/><path class="B" d="m1671.5 925c0 0-439.6 47.5-546.2 48.8-106.6 1.3-171 12.2-286.7 23.7-115.6 11.5 482.8 24.4 825 25.1z"/><g style="opacity:.6"><path class="C" d="m31.5 1326.5c0 0.1 0 0.2 0.1 0.2v-0.3z"/><path class="C" d="m32.1 1326.9c0-0.2 0.1-0.4 0-0.6 0 0.3-0.1 0.2-0.1 0.5-0.1 0-0.2-0.1-0.2-0.2 0 0.1-0.1 0-0.1 0.1q0.2 0.3 0.3 0c0.1 0.1 0.1 0.1 0.1 0.2z"/><path class="C" d="m39.5 1326.1q0 0 0 0z"/><path class="C" d="m44.1 1325.5q0 0 0 0.1 0-0.1 0-0.1z"/><path class="C" d="m44.9 1325.7q0 0 0-0.1 0 0.1 0 0.1z"/><path class="C" d="m39.5 1326.1l0.1 0.1c0-0.1 0-0.1-0.1-0.1z"/><path class="C" d="m33 1326.1q0 0-0.1 0.1 0.1 0 0.1 0z"/><path class="C" d="m37.5 1326.6q0 0.1 0 0.1z"/><path class="C" d="m36 1326.9c0 0 0-0.2 0-0.3q0 0.1-0.1 0.1 0.1 0.1 0.1 0.2z"/><path class="C" d="m33.5 1326.9h-0.1q0.1 0 0.1 0z"/><path class="C" d="m38.6 1326.5q0 0 0.1 0.1 0-0.1-0.1-0.1z"/><path class="C" d="m81.7 1318.1q0 0 0 0 0 0 0 0z"/><path class="C" d="m83.6 1318.8v0.1 0.1z"/><path class="C" d="m46.4 1325.7q0 0 0 0z"/><path class="C" d="m59.5 1323.5c-0.2-0.2 0.2-0.3-0.1-0.5 0.1 0.1-0.1 0.4 0.1 0.5z"/><path class="C" d="m33 1326.1q0.1 0 0.1 0 0 0-0.1 0z"/><path class="C" d="m59.4 1323q0 0 0 0z"/><path class="C" d="m49.7 1325.1q-0.1-0.1-0.1-0.1 0 0 0.1 0.1z"/><path class="C" d="m47.2 1325.1v0.1q0-0.1 0-0.1z"/><path class="C" d="m50.9 1324.6c0 0 0 0 0.1 0q0-0.1 0-0.1 0 0.1-0.1 0.1z"/><path class="C" d="m52.2 1324.3z"/><path class="C" d="m77.6 1318.8q0.1 0.1 0.1 0.2c0-0.1 0.2-0.2-0.1-0.2z"/><path class="C" d="m33 1326.2q0 0 0-0.1v0.1q0 0 0 0z"/><path class="C" d="m50.7 1322.9h0.2q-0.1 0-0.2 0z"/><path class="C" d="m68.1 1320.4l0.1-0.1q0 0-0.1 0.1z"/><path class="C" d="m51.5 1322.8q0.1 0.1 0.2 0.1 0 0 0-0.1z"/><path class="C" d="m77.7 1319z"/><path fill-rule="evenodd" class="C" d="m79 1318.6c0.2-0.2 0.1 0 0.3 0.1 0-0.2 0.2 0.1 0.1-0.3 0.2 0.3 0.1 0.2 0.3 0.3-0.1-0.2 0.2-0.2 0.1-0.4 0.1 0.2-0.1 0.3 0.1 0.6 0.1-0.2 0.3-0.3 0.2-0.6 0.1 0 0.2 0.1 0.3 0.1q0 0.1 0 0.1c0.2-0.2 0.5-0.1 0.6-0.4 0 0.4 0.5-0.1 0.4 0.4 0.1-0.1 0.2-0.3 0.3-0.4 0 0.4 0.2 0.1 0.4 0.3 0-0.2 0.1-0.2 0.2-0.3q0 0.1 0 0.2c0.1-0.2 0.1-0.1 0.2 0.1 0.2-0.1 0-0.3 0-0.4 0.2 0 0.1 0.2 0.1 0.3l0.2-0.4q0.1 0.1 0.1 0.2c0.1-0.1 0.1-0.2 0.3-0.1h-0.2l0.1 0.2 0.1-0.2c0.4 0.1 0.4 0.5 0.4 0.9h-0.1c0 0.2 0.1 0.2 0.2 0.2 0 0.1-0.2 0.4-0.3 0.5-0.4 0-0.2-0.4-0.4-0.5l-0.3 0.3v-0.1c-0.1-0.1-0.1 0-0.1 0.1 0-0.2-0.3 0-0.4 0v0.1c-0.3 0.4-0.6-0.3-0.9-0.1l-0.1 0.3-0.1-0.2c-0.1 0.2-0.1 0.3-0.3 0.3-0.8-0.3-1.4 0.3-2.2 0.2q0 0 0.1 0c-0.7-0.4-0.9 0.8-1.5 0.4l0.1-0.1c-0.3 0.1 0 0-0.2-0.1 0 0.2-0.4 0.2-0.5 0.4 0-0.1 0.1-0.1 0.1-0.2 0 0-0.1-0.2-0.2-0.1-0.1 0.4-0.5 0.4-0.7 0.6-0.1-0.2-0.4-0.3-0.5-0.6-0.1 0.1-0.1 0.2-0.1 0.4-0.1-0.1-0.2 0-0.3 0.1q0.2 0 0.3 0 0 0 0 0 0.1-0.1 0.1-0.1c0.1 0.2 0 0.1 0 0.4-0.1 0-0.2 0.1-0.3-0.1q-0.1 0-0.2 0 0 0-0.1 0h0.1q-0.1 0-0.1-0.1c-0.2 0-0.4 0.3-0.5 0.5 0.1-0.3-0.1-0.3-0.1-0.5 0 0 0.2 0 0.4 0q-0.1 0-0.1-0.1c-0.2-0.2-0.3 0.2-0.6 0.1 0 0 0-0.1 0-0.1-0.1-0.1-0.2 0.1-0.2 0.2 0-0.2-0.3-0.3-0.4-0.2 0 0.2 0 0.3-0.2 0.3l0.1-0.2c-0.3 0-0.2 0.2-0.3 0.2 0 0 0-0.1-0.1-0.1-0.2 0.1-0.2 0.1-0.3 0.4v-0.2c-0.1 0.2-0.4 0.4-0.5 0.2q0 0 0 0 0 0 0 0 0 0 0 0c0.1 0.4-0.4 0.3-0.5 0.3 0 0 0-0.1 0-0.2-0.3 0.4-0.6 0.2-1 0.2l-0.1-0.3c-0.2 0-0.1 0.7-0.3 0.7v-0.2c-0.3 0.1-0.4 0.1-0.7 0.1l-0.1-0.2c0 0.1-0.2 0.1-0.3 0.3-0.3-0.5-0.8 0.4-1.3-0.1v0.4c-0.1 0-0.3 0.1-0.5-0.2h0.1c-0.1-0.3-0.2 0-0.3 0-0.1 0-0.1 0.2 0 0.3-0.5-0.2-1.1 0.1-1.4-0.2-0.4 0.2-0.7 0.6-1.1 0.6-0.2-0.1-0.5-0.1-0.6-0.4-0.3 0.1-0.4 0.6-0.9 0.5l0.1-0.2c-0.1 0-0.2 0.2-0.3 0.2 0 0 0 0 0-0.1-0.1-0.1-0.1 0.1-0.2 0.1v-0.1c-0.3-0.1-0.8 0.4-1.2 0.4 0.1-0.1 0-0.2 0-0.2-0.1 0.4-0.6 0.3-0.7 0.5v-0.2c-0.2 0.3-0.3-0.3-0.6 0l0.2 0.1c-0.1 0-0.2 0.1-0.2 0.2-0.1-0.1 0-0.2-0.3-0.2 0-0.1 0.2-0.1 0.1-0.3l-0.4-0.2q0 0-0.1 0c0.1 0.5-0.3 0.1-0.1 0.5-0.4 0.1-0.8-0.1-1.2 0.2-0.2-0.5-0.8 0.1-0.8-0.5q-0.4 0-0.5 0.4c0 0.1 0.1 0 0.1-0.1 0 0.2-0.3 0.3-0.4 0.3 0.1-0.2 0.4-0.3 0.4-0.6-0.2 0.1-0.4 0.4-0.5 0.5l-0.1-0.3c-0.1 0.2-0.2-0.2-0.3 0.1v0.1c-0.3 0-0.2 0.3-0.5 0.4v-0.1c-0.1-0.1-0.2 0.2-0.4 0l0.2-0.1c0-0.2-0.2-0.2-0.3-0.3-0.2 0.1 0 0.3-0.1 0.4-0.1-0.2 0-0.1 0-0.3-0.2 0.1-0.5 0.2-0.6 0.5 0-0.1 0-0.1 0-0.1-0.3 0-0.4 0.4-0.6 0.2h0.1c-0.3-0.3-0.5 0.3-0.6-0.1-0.1-0.1 0.2 0 0-0.3-0.3-0.1-0.1 0.5-0.3 0.4 0 0 0 0 0-0.1-0.2 0-0.4 0.1-0.6 0.2-0.3-0.3-0.7 0.2-1.1-0.2 0.1 0.1 0 0.2 0 0.3q0-0.1 0-0.1c-0.1 0-0.1 0.2-0.1 0.2-0.1-0.1-0.3 0.2-0.3 0.1 0 0.2-0.1 0.1-0.2 0.1 0.2-0.1 0-0.2 0.1-0.3-0.3-0.1-0.3 0.4-0.6 0.4l-0.1-0.2c0 0.3-0.3 0.3-0.3 0.4 0-0.1-0.1-0.2-0.1-0.3-0.1 0.1-0.3 0-0.3 0.1l0.1 0.1c-0.4-0.1-0.5 0.4-0.8 0.2l-0.1-0.4c-0.2-0.1-0.3 0.3-0.5 0.1 0.1 0.1 0.1 0 0 0.2 0.1 0 0.2-0.1 0.3-0.1l-0.2 0.3 0.4-0.2c-0.2 0.2-0.2 0.1-0.1 0.3-0.2 0.2-0.2-0.2-0.4 0-0.1 0-0.1-0.2-0.2-0.3-0.1 0.2-0.3-0.1-0.4 0q0 0 0-0.1c-0.1 0.1-0.2 0.1-0.2 0.2h0.1c-0.1 0-0.1 0.2-0.3 0.2-0.1 0.1-0.1 0.3 0 0.3 0 0-0.2-0.1-0.1-0.2-0.3 0-0.1 0.5-0.4 0.3q0 0 0-0.1-0.1 0-0.1 0c0.1-0.1-0.2-0.3 0.1-0.3-0.1-0.2-0.2 0-0.3 0-0.1 0.1 0 0.3 0 0.4 0-0.1-0.1 0-0.2-0.1l0.1 0.2q-0.1 0-0.1 0.1l0.1-0.1c-0.2 0-0.4-0.3-0.6-0.1 0.1-0.1 0.1-0.2 0-0.3-0.2 0.2-0.1-0.1-0.2-0.2-0.3 0.1 0 0.4-0.4 0.3 0 0 0 0.1 0.1 0.1-0.3 0-0.4 0.1-0.6 0.1 0.1 0 0.1 0 0 0.1 0.1-0.1-0.2-0.1-0.3-0.1-0.1 0 0-0.1 0.1-0.1q0 0 0 0c0.1-0.1 0-0.4-0.1-0.4-0.2 0.1-0.2 0.3-0.1 0.4-0.3 0-0.2 0.5-0.5 0.4 0 0-0.2-0.4-0.4-0.4-0.1 0.3 0.2 0.1 0.1 0.3-0.3-0.4-0.5 0.4-1 0.2l0.1-0.3q-0.2 0-0.3 0.1l0.1 0.1c0 0.1-0.3 0.1-0.2-0.1-0.2 0.2-0.3 0.1-0.5 0 0.2 0 0 0.1 0.2-0.1-0.3-0.1-0.3 0-0.4 0.1 0-0.1-0.1-0.2-0.1-0.2-0.1 0.2-0.4 0.2-0.6 0.3v-0.1c-0.3 0.2-0.7-0.1-1 0.1v0.1c0.2 0.2-0.2 0.2-0.3 0.3 0-0.1 0-0.2-0.1-0.2 0.1 0.3-0.1 0.2-0.1 0.3-0.1-0.1 0-0.3-0.2-0.2-0.1 0-0.1 0.1-0.1 0.2 0-0.1-0.2-0.2-0.3-0.2 0.1-0.1 0.1 0 0.2 0-0.1-0.1-0.1-0.1-0.1-0.2-0.1 0 0 0.2-0.2 0.1l0.1-0.2c0 0-0.1 0.1-0.1 0.1 0.1-0.1 0-0.2 0-0.3-0.2 0.1 0 0.4 0 0.6-0.2-0.1-0.4 0.2-0.6 0.2v-0.2q-0.1 0.1-0.1 0.2h-0.2c0.1 0 0.1-0.1 0.1-0.3-0.1 0.1-0.3 0.1-0.3 0.4v-0.1c-0.3 0-0.7 0-0.7-0.1-0.2 0.1-0.5 0-0.5 0.2-0.1 0.1-0.3-0.2-0.4 0.1-0.2-0.1 0-0.1 0-0.3-0.2-0.1-0.3 0.4-0.4 0-0.1 0.1 0.1 0 0.1 0.2-0.1-0.3-0.4 0-0.6-0.2 0 0.2 0.1 0.1 0 0.3 0-0.1-0.1-0.1-0.1-0.1v0.2l-0.3-0.5c-0.2 0.3 0.1 0.4-0.2 0.5-0.1-0.2-0.2 0.2-0.4 0.1 0 0 0-0.1 0-0.2l-0.1 0.1q0 0 0 0c-0.2-0.2-0.1 0.1-0.3-0.1 0.1 0 0.1-0.2 0-0.3l-0.2 0.3 0.1-0.3c-0.2 0-0.4 0.5-0.6 0.1h0.1c0-0.1-0.1-0.3-0.2-0.1-0.1 0-0.1 0.1 0 0.2l-0.1-0.1c0-0.2 0.2-0.3 0.4-0.4-0.1 0.1-0.2 0.2-0.1 0.3 0.1-0.1 0.2-0.2 0.3-0.3 0 0.1 0 0.2 0 0.3 0.1 0.1 0.1-0.1 0.2-0.2q0.1 0.1 0 0.2c0.2-0.1 0.3-0.1 0.4-0.1 0 0-0.1 0.2 0 0.3 0.3-0.1 0.3-0.4 0.5-0.6 0.3-0.4 0.7 0.1 0.9-0.2 0 0-0.2-0.1 0-0.2 0 0.2 0.1 0.1 0.1 0.2 0.1-0.3 0.2 0 0.3-0.2 0 0.1 0.1 0.1 0.2 0.2 0 0.2 0.2 0.1 0 0.4 0.2-0.4 0.4 0 0.5-0.5v-0.1l0.2 0.1c0.1 0 0.1 0 0.3 0.2 0 0-0.1 0-0.2 0.1 0.2 0.2 0.3-0.2 0.4-0.2 0 0.1-0.1 0 0 0.2 0.1 0 0.1-0.1 0.2-0.1 0.3 0.2 0.1-0.4 0.3-0.1 0-0.1 0-0.2 0-0.2 0.1 0.1 0.2 0.2 0.1 0.4 0.1-0.1 0.2-0.2 0.2-0.3-0.1-0.1-0.1 0-0.2-0.2l0.4-0.1c0 0 0 0.1-0.1 0.1 0.5 0.4 0.8-0.6 1.4-0.1-0.1-0.1 0-0.1 0-0.2 0.2 0 0.4-0.1 0.6 0v0.1c0.3-0.2 0.5-0.4 0.8-0.3 0-0.1 0 0.1 0 0.1 0.1-0.2 0.4 0.4 0.4 0h-0.1c0.4 0 0.8-0.4 1.1-0.5 0.1 0.2-0.2 0.1-0.1 0.3 0.3 0.1 0.5-0.2 0.8-0.1 0 0 0 0 0 0.1 0.3 0.1-0.1-0.3 0.1-0.3 0 0.1 0.1 0.2 0.1 0.2l0.1-0.2c0 0.1 0 0.2 0 0.2 0.1-0.2 0.4-0.1 0.4-0.3 0.1 0 0 0.3 0.1 0.3 0.1 0.1 0.2 0 0.3-0.1 0.1 0.1 0.3 0.1 0.2 0.1 0.3 0.1 0.1-0.1 0.2-0.3l-0.2-0.1 0.3-0.1-0.1 0.2c0.2 0 0.3-0.2 0.5-0.2l-0.1-0.1 0.1-0.2c0.1 0.3 0.3 0.1 0.2 0.4 0.4 0.1 0.6-0.3 0.9-0.4 0 0 0 0.1 0 0.1 0.2 0.1 0.3-0.1 0.4-0.3-0.1 0.1-0.1 0.2-0.1 0.2 0.2 0 0.1-0.1 0.4-0.3q-0.1 0.2 0 0.2c0-0.1 0-0.1 0.1-0.2-0.1 0.6 0.3 0.2 0.2 0.6 0.1-0.1 0.3-0.3 0.2-0.5 0.4-0.3 0.8-0.2 1.1-0.4 0 0.1-0.1 0.2 0 0.3 0.4 0 0.5-0.4 0.9-0.6 0.1 0.4-0.4 0.2-0.4 0.5q0.6-0.2 1.3-0.6c0.2 0.5 0.4-0.3 0.7 0.1 0-0.2 0.1-0.3 0.3-0.3-0.1 0.2 0.1 0.1 0.1 0.2 0.1-0.1 0.5-0.3 0.5 0.1 0-0.4 0.3-0.1 0.4-0.3 0.2 0.1 0.3-0.1 0.6-0.1-0.1-0.1 0.1-0.1 0.2-0.2q0 0.1 0 0.1c0.1 0.2 0.2-0.2 0.3-0.1 0.1 0 0 0.2 0.1 0.2 0-0.2 0.3-0.4 0.5-0.2-0.1 0-0.1 0.1-0.1 0.1 0.5-0.3 1.2-0.1 1.7-0.5v0.3c0.4 0.2 0.1-0.5 0.4-0.5 0.8 0 1.7 0.2 2.5-0.1 0 0-0.1 0-0.1-0.1 0 0 0.1 0.2 0.2 0l-0.1-0.1c0.4 0.3 1-0.4 1.4 0.1 0.3-0.2 0.6 0.1 0.9-0.3 0.2 0.1-0.1 0.3 0.1 0.3l0.3-0.3c0.3-0.4 1.1 0.3 1.5 0h-0.1c0 0.1 0.2 0.2 0.2 0.1 0 0 0-0.1-0.1-0.1 0.4-0.3 0.5-0.3 0.8-0.4-0.1 0.2 0.2 0.1 0.2 0.3 0.1-0.1-0.1-0.2 0.1-0.3 0.3-0.1 0.5 0.1 0.8 0.1 0-0.2 0.2-0.2 0.1-0.4 0.3 0 0.5-0.1 0.9-0.2v0.1c0.1-0.3 0.3 0.1 0.4-0.1 0 0.1 0 0.1 0 0.2l0.1-0.1c0 0.1 0 0.3 0.1 0.3 0.1-0.2-0.1-0.1 0-0.2l0.1 0.2c0.1 0 0.1-0.3-0.1-0.4 0.4 0 0.7-0.2 1.1-0.2v0.1c0.2 0 0.4-0.1 0.5 0 0 0 0.1-0.1 0-0.1 0.2-0.3 0.1 0.1 0.2 0q0 0 0 0.1l0.4-0.2c0 0.1 0.3 0.3 0.5 0.2 0-0.1-0.1-0.2-0.1-0.2h0.1l0.1 0.2 0.2-0.3v0.3c0.1-0.1 0.1-0.4 0.2-0.4 0.5 0.1 0.4 0.2 0.7 0.4 0-0.5 0.5-0.1 0.5-0.4 0.4 0.2 0.9 0 1.4 0 0.2 0.2 0.2-0.3 0.4-0.3l-0.1 0.1c0.4 0.2 0.8-0.1 1.1-0.4-0.1 0.1 0 0.3 0.1 0.2 0-0.1-0.1-0.3 0-0.2 0 0 0 0.1 0.1 0.1l0.1-0.2c0.4 0.1 0.9 0.2 1.3 0 0.1 0 0.1 0.1 0 0.2 0.4-0.1 0.7-0.3 0.9-0.4l0.1 0.2c0.2 0 0-0.4 0.3-0.2 0 0-0.1 0.1-0.2 0.2 0.3 0.1 0.1-0.3 0.4-0.3v0.3c0.2 0.1 0.2-0.2 0.3-0.4 0.2-0.4 0.3 0.5 0.6 0.2 0.1-0.1 0-0.2 0-0.3 0.3 0 0.3-0.2 0.6-0.2 0.2 0.4-0.1 0 0.1 0.4l-0.2-0.1c0.2 0.2-0.2 0.1-0.1 0.4 0.1 0 0.3-0.2 0.5-0.3 0 0.2-0.2 0-0.1 0.3l0.1-0.1c0 0 0 0.1-0.1 0.1 0.1 0.2 0.1 0 0.2 0q0-0.2-0.1-0.4 0 0.1 0.1 0.1c0.1-0.3 0.5-0.2 0.6-0.4 0 0.1 0 0.1 0 0.1 0.1 0 0.2-0.3 0.3-0.4 0.1 0.2 0 0.5 0.3 0.3 0-0.1-0.2-0.4 0-0.4 0 0-0.1 0.2 0 0.3zm-1.3 0.4q0 0 0 0 0 0 0 0zm-10.2 1.3q0 0 0 0 0 0 0 0zm-6.9 1.2q0 0 0 0zm-8.1 1.1q0 0 0 0 0 0 0 0zm-5.7 1.3q0 0 0 0 0 0 0 0 0 0 0 0zm0 0q0-0.1 0-0.1v0.1c-0.1-0.2 0-0.1 0.1-0.1q-0.1 0-0.1 0.1zm-0.2 0.6q0-0.1 0-0.1 0 0 0 0.1zm-1-0.4q0 0 0 0 0 0 0 0zm-2.8 0.9q0 0 0-0.1 0 0.1 0 0.1zm-2.4 0.2q0 0 0 0 0 0 0 0zm-4.9 1.1q0 0 0 0 0 0 0 0zm-3.1 0.4q0 0 0 0zm5.8-0.6q0 0 0 0 0 0 0 0zm6-0.5q0.1 0 0.1 0.1 0-0.1-0.1-0.1zm2 0q0 0 0.1 0 0 0-0.1 0zm1-0.6q0 0 0 0c0 0 0 0 0 0zm3.9-0.6q0 0 0-0.1 0 0.1 0 0.1zm21.6-3.3q0 0 0 0 0 0 0 0zm1.3-0.2q0 0 0 0 0 0 0 0zm1.2-0.2q0.1 0 0.1 0 0 0-0.1 0zm3.5-0.7q0 0-0.1 0 0.1 0 0.1 0zm3.6-1.9q0 0 0 0 0 0 0 0zm-1.9 0.3q0 0 0 0 0 0 0 0zm-13 2q0 0 0.1-0.1-0.1 0.1-0.1 0.1zm-29.2 5.7q0 0 0 0 0 0 0 0zm9-1.1q0 0 0 0 0 0 0 0zm27.3-5.4q0 0-0.1 0v0.1q0.1-0.1 0.1-0.1zm-0.3 0.2c0 0 0 0 0-0.1q-0.1 0-0.2 0c0.1 0.1 0.2 0.1 0.2 0.1zm0.9 1.1q-0.1 0.1-0.1 0.1c0 0 0 0.1 0.1 0q0 0 0-0.1z"/><path class="C" d="m75.2 1320.8q0-0.1 0-0.1 0 0 0 0v0.1z"/><path class="C" d="m39.4 1326.1h0.1q-0.1 0-0.1-0.1 0 0.1 0 0.1z"/><path class="C" d="m68.6 1320.2z"/><path class="C" d="m37.2 1325.7q0 0-0.1-0.1 0 0.1 0.1 0.1z"/><path class="C" d="m36.2 1325.8l-0.1-0.1q0.1 0.1 0.1 0.1z"/><path class="C" d="m35.5 1325.8q0 0.1 0 0.1z"/><path class="C" d="m46.9 1323.8q0 0 0-0.1c0.1 0 0 0 0 0.1z"/><path class="C" d="m43.6 1324.8q0-0.1 0.1-0.1c-0.1 0-0.1 0-0.1 0.1z"/><path class="C" d="m50.7 1322.9z"/><path class="C" d="m43.8 1324.6q-0.1 0-0.1 0.1c0 0 0.1 0 0.1-0.1z"/><path class="C" d="m32.4 1326.2h-0.1q0 0 0 0z"/><path class="C" d="m32.3 1326.2v0.1q0 0 0-0.1z"/><path class="C" d="m32.2 1326.3h0.1c0 0-0.1 0-0.1 0z"/><path class="C" d="m33.3 1326.2v-0.1q0 0 0 0.1z"/><path class="C" d="m33.6 1326.1c-0.1 0-0.2-0.1-0.3-0.1v0.1c0-0.1 0.3 0.1 0.3 0z"/><path class="C" d="m35 1326.8h-0.3c0.1 0.1 0.1 0.2 0 0.2 0.4 0.2-0.1-0.2 0.3-0.2z"/><path class="C" d="m35.7 1326.8c-0.1 0.1 0 0.1 0 0.2 0.1-0.1 0.1-0.1 0-0.2z"/><path class="C" d="m41.2 1326v0.2c0.1-0.1 0-0.1 0-0.2z"/><path class="C" d="m42.1 1324.8l-0.2-0.1v0.2z"/><path class="C" d="m42.9 1326.1h-0.1l0.2-0.1z"/><path class="C" d="m52 1324.6l-0.1-0.3c0 0.1 0 0.4 0.1 0.3z"/><path class="C" d="m55.9 1323.7c0.1 0.1 0.2 0.2 0.3 0.1-0.1 0-0.2-0.1-0.3-0.1z"/><path class="C" d="m67.8 1322.2v0.1l0.1-0.1z"/></g><g style="opacity:.6"><path class="C" d="m129.1 1318.5c-0.1 0.1 0 0.2 0.3 0.1l0.2-0.2z"/><path class="C" d="m131.4 1318.5c0.4-0.2 0.8-0.5 0.5-0.7-0.4 0.3-0.5 0.3-0.8 0.6-0.4 0.1-0.6 0.1-0.6 0-0.1 0.1-0.5 0-0.6 0.2 0.4 0.1 1 0 1.5-0.3 0.1 0.1 0 0.1 0 0.2z"/><path class="C" d="m163.4 1311.1h-0.2q0.1 0 0.2 0z"/><path class="C" d="m183 1305.5q-0.2 0.1-0.2 0.1c0.1-0.1 0.2-0.1 0.2-0.1z"/><path class="C" d="m186.4 1304.7q-0.1 0-0.2 0 0.1 0 0.2 0z"/><path class="C" d="m163.4 1311.1l0.6-0.1c0-0.1-0.3 0-0.6 0.1z"/><path class="C" d="m135.7 1316.9q-0.2 0.1-0.3 0.2l0.3-0.1q0-0.1 0-0.1z"/><path class="C" d="m154.8 1313.6h-0.2q0 0.1-0.1 0.1z"/><path class="C" d="m148.1 1315.3c0.2 0 0.2-0.3 0.2-0.4q-0.1 0.2-0.3 0.3 0 0 0.1 0.1z"/><path class="C" d="m137.4 1317.4l-0.2 0.1q0.1 0 0.2-0.1z"/><path class="C" d="m159.6 1312.4q0 0 0 0 0 0 0 0z"/><path class="C" d="m306.9 1209.1q0 0 0-0.1 0 0 0 0.1z"/><path class="C" d="m304.8 1201.5l0.1 0.1q0 0 0.1-0.1z"/><path class="C" d="m192.5 1302.9q0 0 0 0c-0.2 0.1-0.1 0.1 0 0z"/><path class="C" d="m246.2 1279.8c-0.6 0.2 0.9-0.7-0.1-0.4 0.1 0-0.7 0.7 0.1 0.4z"/><path class="C" d="m135.9 1316.9h0.2q-0.1 0-0.2 0z"/><path class="C" d="m246.1 1279.4h-0.1q0 0 0.1 0z"/><path class="C" d="m206.3 1297.8q-0.1 0-0.2 0 0 0 0.2 0z"/><path class="C" d="m195.9 1301.3l0.3-0.1q-0.2 0.1-0.3 0.1z"/><path class="C" d="m211.5 1295.5c0.1 0 0.2 0 0.4-0.1q-0.1 0-0.1 0-0.1 0.1-0.3 0.1z"/><path class="C" d="m216.9 1293.3q0 0-0.1 0-0.1 0-0.1 0.1z"/><path class="C" d="m305.8 1226.2q0.1-0.2 0.2-0.2c-0.1 0 0.1-0.8-0.2 0.2z"/><path class="C" d="m135.7 1317q0 0 0.2-0.1-0.1 0-0.2 0.1 0 0 0 0z"/><path class="C" d="m211.1 1293.9l0.9-0.3c-0.3 0-0.6 0.2-0.9 0.3z"/><path class="C" d="m279 1257.5l0.2-0.2q-0.1 0.1-0.2 0.2z"/><path class="C" d="m214.5 1292.5q0.3 0 0.6-0.1 0 0 0-0.1z"/><path class="C" d="m306 1226z"/><path fill-rule="evenodd" class="C" d="m307.2 1220.4c0-0.9 0.1-0.3 0.4-1-0.2-0.5 0.2-0.8-0.2-1 0.3-0.2 0.2-0.2 0.4-0.7-0.2 0.2-0.1-1-0.3-1 0.2-0.2 0.2 0.9 0.6 0.3-0.2-0.5-0.3-1.4-0.5-1.5 0-0.4 0.1-0.5 0.2-1.1 0 0.1 0 0.2 0 0.2 0-0.5-0.1-1.1-0.2-1.7 0-0.5-0.1-1-0.4-1.3 0.5 0.2-0.2-2.1 0.3-1.4-0.1-0.4-0.5-1-0.6-1.2 0.4 0-0.1-1-0.1-1.5-0.2-0.1-0.4-0.8-0.6-1.2 0 0.1 0.1 0.2 0.2 0.1-0.3-0.5-0.1-0.4-0.2-0.9-0.4-0.6-0.2 0.3-0.5-0.1-0.2-0.5 0.2-0.1 0.3-0.3l-0.7-0.7q-0.1-0.2 0-0.4c-0.2-0.2-0.5-0.4-0.6-0.9l0.4 0.7v-0.3l-0.6-0.7c-0.5-1.3 0-1.1 0.4-1.2l0.3 0.4c0.1-0.1 0-0.4-0.2-0.6 0-0.3 0.8 0.5 1.2 1.1 0.4 0.7 0.3 0.8 0.2 0.9 0 0.1-0.2 0.1 0 0.6l0.8 1.3h-0.1c0 0.3 0.2 0.4 0.2 0.4-0.2 0 0.4 1.2 0.5 1.7l0.1-0.2c0.8 1.5 0.3 2.6 0.7 3.9l0.4 0.8-0.2 0.3c0.2 0.5 0.3 0.6 0.3 1.5-0.2 3.1-0.1 6.5-1.1 9.5q0 0 0-0.1c-1 2.4-0.5 4.2-1.9 6.3v-0.2c-0.5 1.2 0-0.2-0.5 0.6 0.2 0.3-0.5 1.6-0.7 2.3 0-0.1 0.1-0.4 0.2-0.6-0.1 0.1-0.3 0.1-0.4 0.5 0 0.4-0.2 1-0.6 1.7-0.3 0.6-0.6 1.3-0.9 1.8-0.2 0.1-1 0.9-1.5 1.3 0 0.1-0.1 0.4-0.1 0.6-0.3 0.4-0.5 0.7-0.6 1q0.4-0.5 0.6-0.8 0.1-0.1 0.1-0.2 0.2-0.3 0.2-0.3c0.4-0.3 0.1 0.1 0.3 0.2-0.3 0.4-0.7 1.1-0.9 1.1-0.1 0.2-0.3 0.3-0.4 0.5q-0.1 0.3-0.3 0.5v-0.1q0 0-0.1 0c-0.6 0.6-1 1.8-1.4 2.4 0.3-0.7-0.3-0.1-0.4-0.2 0 0 0.5-0.6 1.1-1.4q-0.1 0.1-0.2 0c-0.7 0.6-0.8 1.4-1.8 2.3 0.1-0.1 0.2-0.2 0.1-0.2-0.4 0.3-0.5 0.7-0.5 0.9-0.2-0.1-1 0.6-1.3 1-0.1 0.4 0 0.4-0.6 1l0.2-0.3c-0.7 0.5-0.5 0.6-1 1.1 0.2-0.2 0.1-0.3 0-0.1-0.7 0.7-0.6 0.8-0.9 1.5l-0.1-0.3c-0.4 0.7-1.3 1.8-1.6 1.8 0.4 0.2-1.2 1.4-1.7 1.8 0.2-0.1 0.1-0.2 0.1-0.3-0.9 1.2-2.2 2.1-3.4 3l-0.4-0.1c-0.6 0.6-0.4 1.2-1.1 1.7l0.2-0.3c-1.2 1-1.7 1.4-2.7 2.1l-0.1-0.2c-0.3 0.4-0.8 0.7-1 1.1-1.2 0.2-3.1 2.6-5 3.2l0.1 0.4c-0.6 0.4-1.3 1-1.7 0.9l0.1-0.1c-0.1-0.3-0.6 0.4-1 0.6-0.2 0.2-0.4 0.6-0.1 0.5-1.7 0.9-3.9 2.6-5.1 2.9-1.5 1.1-2.6 2.2-4.3 3.2-0.6 0.3-1.8 0.9-2 0.7-1.2 0.8-1.8 1.6-3.4 2.4l0.3-0.3c-0.4 0.2-1 0.7-1.1 0.8-0.1 0.1-0.1 0-0.1-0.1-0.4 0.1-0.5 0.4-0.8 0.6l0.1-0.2c-1.4 0.5-3 2.1-4.6 2.9 0.2-0.2 0-0.2-0.1-0.2-0.5 0.7-2.3 1.6-2.9 2l0.3-0.3c-1.1 0.9-1.3 0.2-2.4 1.2l0.8-0.3c-0.5 0.3-1 0.6-0.8 0.7-0.6 0.2-0.2-0.3-1.1 0.2-0.1 0 0.6-0.4 0.3-0.4l-1.4 0.5c-0.1 0-0.2 0.1-0.6 0.3 0.3 0.4-1.1 0.6-0.2 0.6-1.8 1-3.5 1.5-5 2.5-0.8-0.1-3.1 1.6-3.2 1q-1.3 0.6-2 1.3c0.2 0 0.4-0.2 0.6-0.3-0.2 0.2-1.3 0.8-1.7 1 0.5-0.4 1.4-1 1.8-1.4-0.8 0.4-1.8 1.2-2.3 1.4l-0.3-0.1c-0.6 0.5-0.7 0-1.2 0.6h0.1c-1.2 0.6-1.1 0.9-2.3 1.5v-0.1c-0.4 0.1-0.9 0.6-1.4 0.6l0.8-0.4c-0.2-0.1-0.8 0-1.1 0.1-0.8 0.4-0.2 0.4-0.6 0.6-0.2-0.1-0.1-0.1 0.2-0.4-0.9 0.5-2.1 1.1-2.7 1.6 0 0 0 0 0 0-1 0.3-1.7 1-2.3 1.1l0.2-0.1c-0.9 0.1-1.9 1.2-2.2 0.8-0.4 0 0.8-0.4 0.1-0.3-1.2 0.3-0.6 0.7-1.6 1 0.1-0.1 0-0.1 0.1-0.2-0.7 0.4-1.7 0.8-2.5 1.2-1.1 0-3 1.3-4.3 1.3 0.4 0-0.1 0.3-0.1 0.4q0-0.1-0.1-0.1c-0.4 0.2-0.4 0.4-0.5 0.5-0.4 0-1.1 0.6-1.4 0.6 0.1 0.1-0.3 0.2-0.6 0.3 0.7-0.4 0.1-0.3 0.4-0.6-1.1 0.4-1.1 0.9-2.3 1.3l-0.7 0.1c0 0.3-1.2 0.6-1.1 0.7-0.2 0-0.5 0-0.5-0.1-0.5 0.2-1.2 0.4-1.4 0.6l0.5-0.1c-1.4 0.4-2.1 1.2-3.3 1.4l-0.2-0.5c-0.8 0.1-1.2 0.8-2 0.7 0.3 0.1 0.3 0-0.1 0.3 0.3 0 0.8-0.3 1.2-0.5l-0.9 0.6 1.5-0.7c-0.6 0.4-0.5 0.4-0.2 0.5-0.9 0.4-1.1 0.1-1.9 0.6-0.4 0.1-0.1-0.2-0.5-0.2-0.6 0.4-1.4 0.3-1.9 0.6q0.1-0.1 0-0.1c-0.5 0.2-0.8 0.3-0.9 0.5l0.4-0.1c-0.4 0.1-0.4 0.3-1.2 0.5-0.4 0.2-0.5 0.5-0.1 0.4-0.1 0.1-0.6 0.1-0.5-0.1-1.2 0.4-0.4 0.6-1.6 0.8 0.1 0 0.2-0.1 0.1-0.1q-0.3 0.1-0.5 0.2c0.5-0.3-0.5-0.2 0.6-0.5-0.2-0.2-0.9 0.3-1.3 0.3-0.6 0.3 0 0.3-0.2 0.5-0.1 0-0.3 0.1-0.6 0.1l0.3 0.1c-0.2 0.1-0.4 0.1-0.7 0.3l0.5-0.2c-0.6 0.1-1.5 0.1-2.3 0.6 0.2-0.2 0.6-0.5 0-0.4-0.9 0.5-0.2 0-0.8 0.1-1 0.4-0.1 0.3-1.6 0.7-0.2 0.1 0 0.1 0.2 0.1-1 0.3-1.5 0.5-2.3 0.7 0.3 0 0.4 0 0 0.2 0.2-0.2-0.9 0.1-1.3 0.1v0.1c-0.4 0-0.1-0.1 0.2-0.2q0 0 0.3 0c0.4-0.3 0.1-0.5-0.6-0.3-0.8 0.3-0.6 0.5-0.4 0.5-1.2 0.3-0.9 0.7-2 0.9-0.3 0.1-1.1 0-1.9 0.2-0.3 0.3 1-0.1 0.6 0.2-1.4-0.1-2.5 1.1-4.2 1.3l0.1-0.3c-0.4 0.1-0.8 0.1-1.2 0.3h0.6c-0.4 0.1-1.3 0.3-1 0.1-0.9 0.4-1.1 0.4-1.9 0.5 0.9-0.2 0 0.1 0.6-0.2-0.9 0.1-1 0.2-1.6 0.4 0.1-0.1-0.3-0.1-0.5-0.1-0.5 0.4-1.5 0.6-2.3 0.9-1.4 0.5-3 0.5-4.3 1.1q0 0-0.1 0h0.2c0.5 0.1-1.1 0.5-1.5 0.7-0.1-0.1-0.1-0.2-0.4-0.1 0.1 0.2-0.5 0.3-0.7 0.4-0.5 0.1 0-0.3-0.8 0-0.3 0.1-0.3 0.2-0.2 0.3-0.2-0.1-0.8 0-1.2 0.1 0.1-0.1 0.4-0.1 0.5-0.2 0-0.1-0.3 0-0.3-0.1-0.4 0.1-0.1 0.2-0.6 0.3l0.4-0.3c-0.2 0-0.4 0.1-0.5 0.1 0.2-0.1 0.1-0.2 0.1-0.3-1.1 0.4-0.1 0.5-0.1 0.7-1.1 0.2-1.9 0.6-2.7 0.8l0.1-0.2c-0.4 0.1-0.6 0.2-0.7 0.3l-0.6 0.2c0.3-0.2 0.4-0.3 0.4-0.5-0.6 0.3-1.5 0.4-1.6 0.8v-0.1c-0.9 0.1-2.7 0.5-2.7 0.4-0.9 0.3-2.1 0.5-2.1 0.8-0.5 0.2-1.5 0-1.9 0.4-0.7 0 0-0.1 0.2-0.3-0.8 0-1.3 0.6-1.6 0.2-0.8 0.3 0.2 0.1-0.1 0.3-0.2-0.3-1.4 0.3-2.2 0.3-0.3 0.2 0.4 0-0.2 0.3 0.1-0.1-0.2-0.1-0.4-0.1l-0.1 0.3-0.8-0.4c-1.1 0.5 0.3 0.3-1.2 0.8h0.1c-0.4-0.2-1 0.4-2.1 0.4 0.4 0 0.2-0.1 0.3-0.2l-0.6 0.2q0.1 0 0 0c-0.6-0.1-0.4 0.2-1.1 0.1 0.4-0.1 0.3-0.2 0.1-0.3l-0.8 0.5 0.2-0.4c-0.8 0.1-1.9 0.9-2.5 0.6l0.4-0.2c0 0-0.3-0.2-0.8 0.1-0.2 0.1-0.2 0.2-0.2 0.2h-0.3c0.2-0.2 1.2-0.5 1.9-0.7-0.2 0.1-0.7 0.3-0.5 0.4 0.5-0.2 1.1-0.5 1.6-0.6-0.2 0.1-0.3 0.2-0.4 0.3 0.7 0 0.4-0.2 0.9-0.3 0.2 0 0.4 0 0.3 0.1 0.5-0.2 1-0.3 1.7-0.3 0 0-0.7 0.3-0.3 0.3 1.1-0.4 1.3-0.7 2.5-1.1 1.4-0.7 2.9-0.5 3.9-1 0-0.1-0.8 0.1-0.2-0.2-0.1 0.3 0.4 0.1 0.5 0.1 0.6-0.4 1-0.2 1.5-0.5-0.1 0.1 0.3 0.1 0.6 0.1 0 0.2 0.8-0.1-0.1 0.5 1-0.6 1.9-0.4 2.5-1.1h-0.3l1.1-0.2c0.5 0 0.5-0.1 1.2 0-0.3 0.1-0.6 0.2-0.9 0.3 0.6 0 1.1-0.5 1.8-0.6 0 0.1-0.7 0.2-0.4 0.3 0.4-0.1 0.8-0.3 1.2-0.4l-0.1 0.1c1.2-0.1 0.4-0.6 1.3-0.5-0.1 0 0-0.1-0.1-0.1 0.4 0 1.1 0 0.4 0.3 0.4-0.1 0.8-0.3 1-0.5-0.3 0-0.4 0.1-0.6-0.1l1.6-0.5c0.1 0-0.1 0.2-0.4 0.2 2 0 3.6-1.4 5.8-1.3-0.2-0.1 0.1-0.2 0.3-0.4 0.7-0.1 1.7-0.4 2.3-0.5l-0.1 0.2c1.5-0.6 2.6-1 3.6-1.3 0.1 0 0 0.1-0.1 0.2 0.7-0.3 1.8-0.1 1.9-0.5l-0.3 0.1c1.5-0.4 3.1-1.2 4.7-1.7 0.4 0.1-0.9 0.3-0.5 0.5 1.1-0.2 2.1-0.7 3.3-1-0.1 0.1-0.1 0.1-0.2 0.1 1.2-0.2-0.2-0.2 0.8-0.5 0 0.2 0.1 0.2 0.4 0.1l0.2-0.2c0.1 0 0.1 0.1 0 0.2 0.5-0.4 1.7-0.6 2-0.9 0.1 0-0.1 0.3 0.1 0.3 0.5-0.1 0.9-0.3 1.2-0.4 0.4 0 1.3-0.3 1.1-0.2 1-0.2 0.1-0.2 0.8-0.6l-0.8 0.2 1.3-0.5-0.4 0.3c0.6-0.1 1.2-0.5 1.9-0.7h-0.4l0.8-0.4c0.1 0.2 1-0.3 0.7 0.2 1.5-0.4 2.3-1 3.7-1.5-0.2 0.1-0.1 0.1-0.1 0.1 0.8-0.2 1.2-0.5 1.6-0.8 0 0.2-0.2 0.2-0.2 0.3 1-0.3 0.5-0.3 1.5-0.7-0.2 0.2-0.1 0.2 0.2 0.1-0.1-0.1 0.1-0.2 0.3-0.3-0.6 0.8 1.2-0.1 0.9 0.4 0.2-0.2 1.4-0.9 1.1-1 1.4-0.7 2.9-1 4.5-1.8-0.1 0.1-0.7 0.5-0.3 0.4 1.7-0.5 2.5-1.1 4.1-1.9 0.2 0.3-1.7 0.7-1.7 1.1 1.7-0.7 3.4-1.6 5.3-2.4 0.8 0.2 1.7-1 3.1-1-0.2-0.1 0.4-0.4 1-0.7-0.2 0.2 0.5 0 0.3 0.1 0.5-0.3 2.1-1.1 2.2-0.7 0-0.4 1.2-0.5 1.6-0.9 0.7-0.2 1.4-0.7 2.4-1-0.4 0 0.6-0.3 1-0.5-0.1 0-0.2 0-0.1 0 0.3 0.1 0.9-0.5 1.5-0.6 0.2-0.1 0 0.2 0.4 0-0.1-0.1 1.2-0.8 1.7-0.9-0.2 0.1-0.2 0.2-0.3 0.3 2.2-1.3 4.8-2.1 7-3.4l-0.3 0.4c1.6-0.4 0.8-0.8 2-1.3 3.2-1.4 6.7-2.6 9.6-4.4 0.2-0.2-0.1 0-0.2-0.1 0.2-0.1 0.4 0.1 0.7-0.2l-0.1-0.1c1.5-0.4 3.9-2.3 5.2-2.3 1.2-0.9 2.3-1.1 3.7-2.3 0.6-0.1-0.5 0.6 0.2 0.2l1.4-1c0.6-0.5 1.6-0.9 2.6-1.3 1-0.5 2.1-1 2.9-1.6l-0.1 0.1c0 0.1 0.5-0.1 0.7-0.3 0.1-0.1-0.1 0-0.3 0.1 1.5-1.1 1.8-1.3 3-2.1-0.4 0.5 0.6-0.2 0.7 0 0.3-0.3-0.3-0.1 0.4-0.6 1-0.6 2-1.1 2.9-1.6 0.3-0.3 0.7-0.6 0.6-0.8 1.2-0.7 1.8-1.2 3.2-2.1v0.1c0.3-0.5 1.3-0.7 1.5-1 0 0.1-0.1 0.3 0 0.3l0.6-0.5c-0.3 0.3-0.3 0.6 0.2 0.3 0.4-0.5-0.2 0 0-0.3l0.3 0.1c0.4-0.3 0.3-0.6-0.2-0.3 1.4-1 2.7-2 3.9-2.8v0.3c0.6-0.6 1.5-1.2 2-1.3 0-0.1 0.1-0.3 0-0.3 0.6-0.7 0.2 0.2 0.9-0.6-0.2 0.2-0.4 0.4-0.4 0.5l1.5-1.3c0.1 0.1 1.2-0.4 1.8-1 0-0.1-0.2 0-0.4 0.1l0.4-0.3 0.5-0.1 0.5-0.6 0.1 0.2c0.5-0.4 0.5-0.8 0.8-1.1 1.5-0.9 1.3-0.6 2.4-1.2-0.2-0.5 1.5-1.2 1.6-1.7 1.4-0.8 3.1-2.5 4.8-3.9l-0.1 0.2c0.8-0.5 0.5-1 1.3-1.6l-0.2 0.2c1.1-0.7 2.5-2.5 3.2-3.5-0.1 0.3 0.1 0.3 0.3 0 0.2-0.3-0.4 0 0.1-0.5-0.1 0.2 0.1 0.2 0.2 0l0.3-0.6c1.3-1.2 2.7-2.7 3.7-4.2 0.2-0.3 0.2 0 0.2 0.1 0.8-1.2 1.5-2.5 2.1-3.6h0.3c0.3-0.5-0.1-0.5 0.5-1.1 0.1-0.1-0.3 0.5-0.3 0.7 0.8-0.9 0.2-0.7 0.8-1.8l0.1 0.5c0.6-0.8 0.4-1 0.4-1.4 0.3-1.3 0.9-0.6 1.4-2.3 0-0.3-0.2 0-0.2-0.3 0.5-1.2 0.5-1.4 0.9-2.5 0.7-0.5-0.2 0.6 0.4 0l-0.4 0.9c0.5-0.7-0.2 0.7 0.1 0.7 0.3-0.5 0.4-1.5 0.6-2.3 0.2 0.1-0.3 0.9 0.1 0.6v-0.4c0 0.1 0.1 0.2 0 0.4 0.2-0.1 0.2-0.5 0.3-0.8-0.1-0.1-0.2-0.1-0.4 0q0.1-0.1 0.1-0.1c0-0.9 0.6-2.1 0.6-2.8 0 0.1 0 0 0.1 0 0.1-0.5 0-1 0-1.7 0.2-0.3 0.4 0.3 0.5-0.7-0.1-0.2-0.4 0.2-0.3-0.7 0 0 0 0.8 0.2 0.4zm-1.2 5.6q0 0 0 0 0 0 0 0zm-55.2 49.3l0.1-0.1q0 0.1-0.1 0.1zm-32.2 15.5q-0.1 0-0.1 0.1 0-0.1 0.1-0.1zm-23.6 9.4q0 0 0 0 0 0 0 0 0 0 0 0zm0 0q-0.1 0-0.1 0l-0.3 0.2c0-0.2 0.4-0.2 0.6-0.4-0.1 0.1-0.2 0.2-0.2 0.2zm-1.1 1q0 0 0 0 0 0 0 0zm-4.2 0.9q0 0 0 0 0 0 0 0zm-12 4.2q0 0 0 0 0 0 0 0zm-10.3 3q0-0.1 0-0.1 0 0 0 0.1zm-21.1 5.8q0 0 0 0 0 0 0 0zm-13.4 2.9q-0.1 0-0.2 0zm25-5.6q0 0 0 0 0 0 0 0zm25.8-6.9q0.1-0.1 0.2-0.1-0.1 0-0.2 0.1zm8.3-2.4q0.1-0.1 0.2-0.1-0.1 0-0.2 0.1zm4.4-2.1q-0.1 0.1-0.1 0.1c-0.1 0 0 0 0.1-0.1zm16-6q0 0 0 0 0 0 0 0zm79.8-46.2q0 0 0 0 0 0 0 0zm2.6-2.9q0 0 0 0 0 0 0 0zm3.9-4.4q0 0 0 0 0 0 0 0zm3.3-4.4q0 0 0 0 0 0 0 0zm6.2-14.2q0 0.2-0.1 0.3 0.1-0.2 0.1-0.3zm-2-16.7q0 0.1 0 0.1 0 0 0-0.1zm1.7 8.2q0 0 0 0-0.1 0 0 0zm-149.9 98q0 0-0.1 0 0.1 0 0.1 0zm38.5-11.4q-0.1 0-0.1 0 0 0 0.1 0zm103-62.4q0 0.1-0.1 0.1 0.1 0 0.1-0.1zm0.1-0.2q0 0.1-0.1 0.2 0.1-0.1 0.1-0.2zm-0.8 1.4c0.1-0.2 0.1-0.3 0-0.3q-0.3 0.4-0.5 0.6c0.3-0.1 0.5-0.4 0.5-0.3zm2.9-1.9q0 0 0 0-0.1 0.3-0.3 0.4c0.1 0 0.2 0 0.3-0.3q0-0.1 0-0.1z"/><path class="C" d="m301.7 1237.4q0 0 0.1-0.1-0.1 0.1-0.2 0.1 0 0.1 0 0.2 0.1-0.1 0.1-0.2z"/><path class="C" d="m163.2 1311.1q-0.1 0-0.1 0 0 0 0.1 0z"/><path class="C" d="m280.5 1256.2l0.1 0.1 0.1-0.2z"/><path class="C" d="m153.6 1312.9q0-0.1-0.1-0.1 0 0.1 0.1 0.1z"/><path class="C" d="m149.6 1313.8l-0.6 0.1q0.4 0 0.6-0.1z"/><path class="C" d="m146.5 1314.5q-0.1 0.1-0.1 0.1z"/><path class="C" d="m195.2 1300q0.1 0 0.2 0c0.2-0.1 0-0.1-0.2 0z"/><path class="C" d="m181 1305.3q0.2-0.2 0.4-0.3c-0.2 0.1-0.4 0.1-0.4 0.3z"/><path class="C" d="m211 1293.9h0.1z"/><path class="C" d="m182.1 1304.8q-0.4 0.1-0.7 0.2c0.3 0 0.5-0.1 0.7-0.2z"/><path class="C" d="m132.9 1317.5l-0.2 0.1q0.1 0 0 0z"/><path class="C" d="m132.7 1317.6h-0.1q0.1 0 0.1 0z"/><path class="C" d="m132.2 1317.8l0.4-0.2c-0.1 0.1-0.3 0.1-0.4 0.2z"/><path class="C" d="m137.1 1316.7v-0.1q0 0 0 0.1z"/><path class="C" d="m138.3 1316.4c-0.3 0.1-0.8 0-1.2 0.1v0.1c0.2-0.1 1 0 1.2-0.2z"/><path class="C" d="m143.8 1316.1l-1.1 0.2c0.2 0 0.5 0.1 0 0.2 1.4-0.1-0.3-0.1 1.1-0.4z"/><path class="C" d="m147.1 1315.4c-0.6 0.2 0 0.1 0 0.2 0.3-0.2 0.4-0.2 0-0.2z"/><path class="C" d="m170.5 1309.2v0.2c0.4-0.1 0 0 0-0.2z"/><path class="C" d="m174.7 1307h-0.5l-0.1 0.2z"/><path class="C" d="m177.7 1307.5l-0.2 0.1 0.7-0.3z"/><path class="C" d="m216 1293.8l-0.2-0.1c-0.2 0.1-0.2 0.4 0.2 0.1z"/><path class="C" d="m232 1286.5c0.3 0.1 0.7-0.1 1-0.3-0.4 0.1-0.8 0.2-1 0.3z"/><path class="C" d="m277.9 1260.5l-0.2 0.3 0.5-0.5z"/></g><g style="opacity:.6"><path class="C" d="m154.1 1380c0 0.1 0 0.2 0.3 0.1l0.1-0.3z"/><path class="C" d="m155.9 1380c0.3-0.2 0.5-0.5 0.3-0.6-0.2 0.3-0.3 0.2-0.6 0.5-0.2 0.1-0.4 0.1-0.4 0-0.1 0.1-0.4 0-0.5 0.2 0.4 0.1 0.8 0 1.2-0.2 0.1 0 0 0.1 0 0.1z"/><path class="C" d="m179.9 1373.7l-0.2 0.1q0.1 0 0.2-0.1z"/><path class="C" d="m194.6 1369.1q-0.2 0.1-0.2 0.1c0.1-0.1 0.2-0.1 0.2-0.1z"/><path class="C" d="m197.2 1368.5q-0.1 0-0.2 0 0.1 0 0.2 0z"/><path class="C" d="m179.9 1373.7h0.4c0-0.1-0.2 0-0.4 0z"/><path class="C" d="m159.1 1378.6q-0.2 0-0.2 0.1l0.2-0.1z"/><path class="C" d="m173.5 1375.9h-0.2q0 0.1 0 0.1z"/><path class="C" d="m168.5 1377.3c0.1 0 0.1-0.2 0.1-0.3q-0.1 0.2-0.2 0.2 0 0.1 0.1 0.1z"/><path class="C" d="m160.4 1379.1l-0.1 0.1q0 0 0.1-0.1z"/><path class="C" d="m177.1 1374.9q0 0 0 0 0 0 0 0z"/><path class="C" d="m306.4 1309.9q0 0 0 0.1 0-0.1 0-0.1z"/><path class="C" d="m311.9 1307.3h-0.1q0.1 0.1 0.1 0.1z"/><path class="C" d="m201.8 1367.1q0 0-0.1 0c-0.1 0.1 0 0 0.1 0z"/><path class="C" d="m242.4 1349.9c-0.5 0 0.6-0.6-0.1-0.5 0.1 0.1-0.5 0.6 0.1 0.5z"/><path class="C" d="m159.2 1378.6l0.2-0.1q-0.1 0.1-0.2 0.1z"/><path class="C" d="m242.3 1349.4h-0.1q0 0 0.1 0z"/><path class="C" d="m212.1 1363.1q-0.1-0.1-0.1-0.1 0 0.1 0.1 0.1z"/><path class="C" d="m204.3 1365.7h0.2q-0.1 0-0.2 0z"/><path class="C" d="m216 1361.2c0.1 0 0.1 0 0.3-0.1q-0.1 0-0.1 0 0 0.1-0.2 0.1z"/><path class="C" d="m220.1 1359.5q0 0-0.1 0-0.1 0.1-0.1 0.1z"/><path class="C" d="m295.4 1317.7q0.1 0 0.2 0.1c-0.1-0.1 0.4-0.5-0.2-0.1z"/><path class="C" d="m159.1 1378.7q0-0.1 0.1-0.1h-0.1q-0.1 0.1 0 0.1z"/><path class="C" d="m215.5 1359.6l0.7-0.2c-0.2 0-0.4 0.1-0.7 0.2z"/><path class="C" d="m268.2 1334.5l0.1-0.1q0 0-0.1 0.1z"/><path class="C" d="m218.1 1358.6q0.2 0 0.4-0.1 0.1 0 0.1 0z"/><path class="C" d="m295.6 1317.8z"/><path fill-rule="evenodd" class="C" d="m299.1 1315.1c0.5-0.5 0.2-0.1 0.8-0.3 0.2-0.4 0.6-0.3 0.5-0.6 0.3 0 0.2 0 0.6-0.1-0.3 0 0.6-0.6 0.4-0.8 0.3 0.2-0.4 0.7 0.2 0.6 0.2-0.3 0.8-0.8 0.6-1.1 0.3-0.1 0.5 0 0.8-0.3 0 0.1-0.1 0.2-0.1 0.2 0.6-0.6 1.6-1.1 1.8-1.7 0.1 0.4 1.4-0.9 1.1-0.3 0.3-0.2 0.6-0.6 0.6-0.7 0.2 0.2 0.7-0.5 1.1-0.5 0.1-0.3 0.5-0.5 0.8-0.8q-0.1 0.2 0 0.2c0.2-0.3 0.2-0.2 0.6-0.2 0.4-0.4-0.2-0.2-0.1-0.5 0.5-0.2 0.2 0.1 0.4 0.2l0.3-0.7q0.2-0.1 0.4 0c0.1-0.2 0.2-0.5 0.6-0.6l-0.5 0.4h0.3l0.5-0.6c0.9-0.4 0.9 0.1 1 0.4l-0.3 0.3c0.1 0.1 0.4 0 0.5-0.1 0.2-0.1-0.3 0.7-0.6 1-1 0.7-0.5-0.2-1.2 0.2l-0.8 0.8-0.1-0.1c-0.2 0.1-0.2 0.2-0.2 0.3 0-0.2-0.7 0.5-1.1 0.7h0.2c-0.8 1.1-1.8 0.9-2.5 1.6l-0.4 0.6-0.2-0.1c-0.3 0.4-0.2 0.5-0.8 0.9-2.2 1-4 2.8-6 3.9q0 0 0.1 0c-1.9 0.7-2.3 2.3-4 2.9v-0.1c-0.7 0.5 0.1-0.2-0.6 0.1 0.1 0.3-0.9 0.8-1.3 1.2 0.1-0.1 0.2-0.2 0.4-0.3-0.2 0-0.3-0.1-0.5 0.1-0.3 0.6-1.4 1.3-2.2 1.9-0.2 0-0.9 0.3-1.5 0.3 0 0.1-0.1 0.3-0.1 0.5-0.4 0.1-0.6 0.3-0.7 0.5q0.4-0.2 0.6-0.4 0.1 0 0.1-0.1 0.3-0.2 0.2-0.2c0.4 0 0.1 0.2 0.2 0.3-0.3 0.2-0.8 0.6-0.9 0.5-0.2 0.1-0.3 0.2-0.5 0.2q-0.1 0.2-0.3 0.3l0.1-0.1q-0.1 0-0.1 0c-0.6 0.3-1.2 1-1.5 1.4 0.3-0.5-0.3-0.2-0.4-0.3 0.1 0 0.6-0.4 1.2-0.7q-0.1 0-0.2-0.1c-0.7 0.2-0.9 0.8-1.8 1.2 0-0.1 0.1-0.2 0.1-0.2-0.4 0.1-0.6 0.4-0.6 0.6-0.1-0.1-0.9 0.1-1.1 0.4-0.2 0.3-0.1 0.3-0.7 0.6l0.2-0.2c-0.6 0.2-0.4 0.4-0.9 0.6 0.2-0.1 0.1-0.2 0-0.1-0.6 0.4-0.6 0.5-0.9 1v-0.2c-0.5 0.4-1.2 1.1-1.5 1 0.3 0.3-1 0.9-1.5 1.2 0.2-0.1 0.1-0.2 0.1-0.3-0.8 0.9-1.9 1.2-2.9 1.8l-0.3-0.2c-0.5 0.3-0.4 0.9-0.9 1.2l0.1-0.2c-1 0.6-1.4 0.8-2.3 1.2l-0.1-0.2c-0.2 0.3-0.6 0.5-0.8 0.8-0.9-0.1-2.5 1.7-4 1.9l0.1 0.4c-0.5 0.2-1 0.6-1.4 0.5l0.1-0.1c-0.1-0.2-0.5 0.3-0.8 0.4-0.2 0.1-0.3 0.4-0.1 0.4-1.4 0.5-3.1 1.7-4.1 1.8-1.2 0.8-1.9 1.6-3.3 2.3v-0.1c-0.5 0.2-1.5 0.6-1.7 0.3-0.9 0.6-1.3 1.3-2.6 1.8l0.2-0.3c-0.3 0.1-0.7 0.5-0.8 0.6-0.1 0-0.1-0.1-0.1-0.1-0.3 0-0.4 0.3-0.6 0.4v-0.1c-1 0.3-2.3 1.4-3.5 2 0.2-0.2 0-0.2-0.1-0.2-0.3 0.6-1.8 1.1-2.2 1.5l0.2-0.3c-0.9 0.7-1 0.1-1.9 0.7h0.7c-0.5 0.1-0.8 0.3-0.6 0.4-0.5 0.1-0.2-0.2-0.9 0.1-0.1-0.1 0.5-0.3 0.2-0.3l-1.1 0.2c-0.1 0-0.2 0.1-0.5 0.2 0.3 0.4-0.8 0.5-0.1 0.6-1.4 0.7-2.7 1-3.8 1.8-0.7-0.2-2.4 1-2.5 0.5q-1 0.4-1.5 1c0.1 0 0.3-0.1 0.4-0.2-0.1 0.2-0.9 0.6-1.3 0.7 0.4-0.3 1.1-0.7 1.4-1.1-0.6 0.3-1.4 0.9-1.7 1.1l-0.3-0.2c-0.4 0.5-0.5 0-0.9 0.5l0.1 0.1c-1 0.4-0.9 0.7-1.7 1.1v-0.1c-0.4 0.1-0.7 0.5-1.1 0.4l0.6-0.3c-0.2-0.1-0.7 0-0.9 0-0.6 0.3-0.1 0.4-0.4 0.6-0.2-0.2-0.1-0.1 0.1-0.4-0.7 0.4-1.6 0.8-2 1.3 0 0 0-0.1 0-0.1-0.7 0.3-1.2 0.9-1.7 0.9l0.1-0.1c-0.7 0-1.4 0.9-1.7 0.5-0.3 0 0.6-0.2 0.1-0.3-0.9 0.2-0.4 0.6-1.2 0.8 0.1 0 0 0 0-0.1-0.5 0.3-1.2 0.6-1.8 0.9-0.9 0-2.2 1.1-3.3 1 0.3 0 0 0.2-0.1 0.3q0 0 0-0.1c-0.3 0.2-0.3 0.3-0.4 0.4-0.3 0-0.8 0.5-1 0.5 0 0.1-0.2 0.2-0.5 0.3 0.5-0.4 0.1-0.3 0.3-0.6-0.9 0.3-0.8 0.8-1.7 1.1h-0.6c0 0.3-0.8 0.5-0.7 0.6-0.2 0-0.5 0-0.5-0.1-0.3 0.2-0.9 0.3-1 0.5l0.4-0.1c-1.1 0.3-1.6 1-2.5 1.1l-0.1-0.4c-0.7 0-1 0.6-1.6 0.6 0.3 0 0.3 0 0 0.2 0.2 0 0.6-0.3 0.9-0.4l-0.7 0.5q0.6-0.2 1.2-0.5c-0.5 0.3-0.5 0.3-0.2 0.4-0.6 0.4-0.8 0.1-1.4 0.5-0.3 0-0.1-0.2-0.4-0.2-0.5 0.3-1.1 0.1-1.5 0.4q0.1-0.1 0-0.1c-0.3 0.2-0.6 0.2-0.7 0.4l0.4-0.1c-0.3 0.1-0.3 0.3-0.9 0.4-0.3 0.2-0.4 0.5 0 0.4-0.2 0.1-0.5 0.1-0.5-0.1-0.8 0.3-0.2 0.6-1.1 0.7 0 0 0.1-0.1 0-0.1q-0.2 0.1-0.3 0.1c0.3-0.2-0.5-0.2 0.4-0.4-0.2-0.2-0.7 0.2-1 0.2-0.4 0.3 0 0.4-0.2 0.6 0-0.1-0.2-0.1-0.4 0l0.3 0.1c-0.2 0-0.4 0.1-0.6 0.2l0.4-0.2c-0.4 0.1-1.1 0.1-1.7 0.5 0.1-0.1 0.4-0.4 0-0.3-0.8 0.4-0.2 0-0.7 0-0.7 0.3 0 0.3-1.2 0.6-0.1 0.1 0.1 0.1 0.2 0.1-0.7 0.2-1.1 0.4-1.8 0.6 0.3-0.1 0.4-0.1 0.1 0.1 0.1-0.2-0.7 0.1-1 0.1v0.1c-0.3 0 0-0.1 0.1-0.2q0 0.1 0.2 0c0.4-0.2 0.1-0.5-0.4-0.3-0.6 0.3-0.4 0.5-0.3 0.5-0.9 0.2-0.6 0.6-1.5 0.8-0.1 0-0.9-0.1-1.4 0.1-0.3 0.2 0.7-0.1 0.5 0.1-1.1-0.1-1.9 1-3.2 1.1l0.1-0.3c-0.3 0.1-0.6 0.2-0.9 0.3h0.4c-0.2 0.2-0.9 0.3-0.8 0.1-0.5 0.4-0.7 0.3-1.3 0.5 0.6-0.2 0 0 0.4-0.3-0.7 0.1-0.7 0.2-1.2 0.4 0.1-0.1-0.2-0.2-0.4-0.1-0.4 0.3-1.1 0.5-1.7 0.8v-0.1c-1 0.4-2.3 0.4-3.2 0.9q0 0.1-0.1 0.1h0.1c0.4 0.1-0.7 0.4-1 0.6-0.1-0.1-0.2-0.2-0.4-0.1 0.1 0.2-0.3 0.2-0.4 0.4-0.4 0-0.1-0.3-0.7-0.1-0.2 0.1-0.2 0.2-0.1 0.3-0.2-0.1-0.6-0.1-0.9 0 0-0.1 0.2-0.1 0.3-0.1 0-0.1-0.2 0-0.2-0.2-0.3 0.1-0.1 0.3-0.5 0.3l0.3-0.2c-0.1 0-0.3 0.1-0.3 0.1 0.1-0.1 0.1-0.3 0-0.3-0.8 0.3 0 0.5 0 0.7-0.8 0-1.4 0.4-2 0.6l0.1-0.2c-0.3 0.1-0.5 0.2-0.6 0.3l-0.4 0.1c0.2-0.1 0.3-0.2 0.3-0.3-0.5 0.1-1.2 0.3-1.2 0.6v-0.1c-0.7 0.1-2.1 0.5-2.1 0.4-0.6 0.2-1.6 0.3-1.5 0.6-0.4 0.2-1.2 0-1.4 0.4-0.5 0-0.1-0.1 0-0.3-0.5 0-0.9 0.5-1.1 0.2-0.6 0.3 0.1 0.1 0 0.3-0.3-0.3-1.1 0.2-1.7 0.2-0.2 0.2 0.2 0-0.1 0.2 0-0.1-0.3 0-0.4 0v0.3l-0.7-0.4c-0.8 0.4 0.3 0.3-0.8 0.7v-0.1c-0.3-0.1-0.7 0.4-1.5 0.4 0.3 0 0.1-0.1 0.1-0.2l-0.4 0.2q0.1 0 0 0c-0.4-0.1-0.3 0.1-0.8 0.1 0.3-0.1 0.2-0.3 0-0.3l-0.6 0.4 0.2-0.4c-0.6 0.2-1.4 0.9-1.9 0.6l0.3-0.2c0 0-0.2-0.2-0.6 0.1-0.1 0-0.2 0.2-0.1 0.2h-0.3c0.2-0.2 0.9-0.5 1.4-0.7-0.1 0.1-0.5 0.3-0.4 0.4 0.5-0.2 0.9-0.4 1.3-0.6-0.2 0.1-0.3 0.3-0.3 0.4 0.5 0 0.3-0.2 0.7-0.4 0.1 0.1 0.2 0.1 0.1 0.2 0.5-0.2 0.8-0.3 1.3-0.3 0 0-0.5 0.3-0.2 0.3 0.9-0.3 1-0.6 1.9-1 1-0.6 2.2-0.3 2.9-0.8 0-0.1-0.6 0-0.2-0.2 0 0.2 0.4 0 0.4 0.1 0.5-0.4 0.8-0.2 1.1-0.4 0 0 0.3 0 0.5 0 0 0.3 0.6 0 0 0.5 0.7-0.6 1.4-0.3 1.8-1h-0.2l0.8-0.1c0.3-0.1 0.4-0.2 0.9-0.1-0.2 0.1-0.5 0.2-0.7 0.3 0.5 0.1 0.9-0.4 1.4-0.5 0 0.1-0.5 0.2-0.3 0.3 0.3-0.1 0.6-0.2 0.9-0.4v0.1c0.8 0 0.2-0.5 0.8-0.4 0 0 0.1-0.1 0-0.1 0.3 0 0.9 0 0.4 0.2 0.2 0 0.6-0.2 0.7-0.3-0.3-0.1-0.3 0-0.5-0.2l1.2-0.4c0.1 0-0.1 0.1-0.3 0.2 1.5 0.1 2.7-1.2 4.4-1.2-0.3 0 0-0.1 0.2-0.3 0.5-0.1 1.2-0.3 1.7-0.4l-0.1 0.1c1.1-0.4 1.9-0.8 2.7-1 0-0.1 0 0.1-0.1 0.2 0.5-0.4 1.4 0 1.4-0.5l-0.2 0.1c1.2-0.3 2.3-1 3.5-1.4 0.3 0.1-0.7 0.2-0.4 0.4 0.9-0.2 1.7-0.6 2.6-0.9-0.2 0.1-0.1 0.1-0.2 0.2 0.9-0.2-0.2-0.2 0.6-0.4 0 0.1 0 0.1 0.3 0.1l0.1-0.3c0.1 0 0.1 0.2 0.1 0.2 0.3-0.3 1.2-0.5 1.4-0.8 0.1 0.1 0 0.3 0.1 0.4 0.4-0.1 0.7-0.3 0.9-0.4 0.3 0 1-0.2 0.9-0.1 0.7-0.2 0-0.2 0.5-0.5l-0.6 0.1 1-0.4-0.3 0.2c0.4 0 0.8-0.4 1.4-0.6h-0.3l0.6-0.3c0.1 0.3 0.8-0.2 0.5 0.2 1.2-0.3 1.8-0.9 2.8-1.2-0.2 0-0.1 0-0.1 0.1 0.6-0.2 0.9-0.4 1.2-0.7 0 0.1-0.1 0.2-0.1 0.3 0.7-0.3 0.4-0.4 1.1-0.7-0.2 0.2-0.1 0.2 0.1 0.2 0-0.1 0.1-0.3 0.2-0.3-0.3 0.7 1-0.1 0.8 0.4 0.1-0.2 1-0.7 0.7-0.9 1.1-0.5 2.3-0.8 3.4-1.4 0 0.1-0.5 0.4-0.2 0.3 1.3-0.4 1.9-0.9 3.1-1.5 0.1 0.3-1.3 0.5-1.3 0.9 1.3-0.6 2.6-1.2 3.9-2 0.7 0.3 1.4-0.7 2.4-0.7-0.2-0.1 0.3-0.4 0.7-0.6-0.1 0.2 0.4 0 0.3 0.2 0.4-0.3 1.6-0.9 1.7-0.5 0-0.4 0.9-0.4 1.1-0.8 0.6-0.1 1.1-0.5 1.8-0.7-0.2-0.1 0.5-0.3 0.8-0.5-0.1 0.1-0.1 0.1-0.1 0.1 0.3 0.1 0.7-0.5 1.1-0.5 0.2 0 0.1 0.2 0.4 0.1-0.1-0.2 0.8-0.7 1.3-0.7-0.2 0-0.2 0.1-0.2 0.2 1.6-1 3.6-1.5 5.3-2.6l-0.2 0.4c1.2-0.2 0.5-0.7 1.4-1.1 2.5-0.9 5.2-1.7 7.4-3 0.2-0.1-0.1 0-0.2-0.1 0.2-0.1 0.4 0.1 0.6-0.1l-0.1-0.1c1.2-0.2 3-1.7 4-1.6 0.9-0.7 1.8-0.7 2.9-1.6 0.4-0.1-0.4 0.5 0.2 0.2l1-0.7c1-0.8 3.1-1 4.3-2v0.1c0 0.1 0.3 0 0.5-0.1 0.1-0.1-0.1-0.1-0.3-0.1 1.2-0.7 1.5-0.9 2.4-1.4-0.3 0.3 0.5-0.1 0.6 0.1 0.2-0.3-0.3-0.1 0.3-0.5 0.8-0.4 1.6-0.7 2.3-1 0.2-0.2 0.5-0.4 0.5-0.6 0.9-0.5 1.3-0.8 2.4-1.4h0.1c0.2-0.4 1-0.4 1.1-0.6 0 0.1-0.1 0.2 0 0.2l0.5-0.3c-0.2 0.2-0.2 0.5 0.2 0.3 0.3-0.4-0.2-0.1-0.1-0.3l0.3 0.1c0.3-0.2 0.3-0.5-0.2-0.3 1.1-0.6 2.2-1.3 3.2-1.8l-0.1 0.2c0.5-0.3 1.3-0.7 1.7-0.8 0 0 0.1-0.2-0.1-0.2 0.6-0.5 0.2 0.2 0.8-0.4-0.1 0.2-0.3 0.3-0.3 0.4l1.2-0.9c0.1 0.1 1-0.1 1.5-0.6 0 0-0.2 0-0.4 0.1l0.4-0.3 0.4 0.1 0.4-0.5 0.1 0.2c0.3-0.3 0.3-0.6 0.7-0.8 1.2-0.5 1-0.3 1.9-0.6-0.1-0.4 1.3-0.7 1.3-1.1 1.3-0.3 2.8-1.4 4.2-2.2l-0.1 0.1c0.7-0.2 0.5-0.7 1.2-1l-0.1 0.1c0.9-0.3 2.3-1.3 3-2-0.2 0.2 0 0.3 0.2 0.1 0.2-0.2-0.3-0.1 0.1-0.3 0 0.1 0.1 0.1 0.2 0l0.3-0.4c1.2-0.6 2.7-1.3 3.8-2.1 0.2-0.1 0.1 0.1 0.1 0.2 0.9-0.7 1.7-1.4 2.5-2l0.2 0.2c0.5-0.3 0.1-0.5 0.7-0.7 0.2 0-0.3 0.3-0.4 0.4 0.9-0.3 0.4-0.5 1.2-1l-0.1 0.4c0.7-0.2 0.6-0.5 0.7-0.8 0.7-0.9 0.9 0 2-0.9 0.1-0.2-0.2-0.1-0.1-0.4 0.8-0.4 0.8-0.7 1.6-1.2 0.7 0.1-0.4 0.3 0.3 0.3l-0.6 0.4c0.6-0.2-0.5 0.3-0.3 0.5 0.5-0.2 1-0.8 1.4-1.2 0.1 0.2-0.6 0.4-0.2 0.5l0.2-0.3c0 0.1 0 0.2-0.1 0.3 0.2 0.1 0.3-0.2 0.5-0.4q0-0.1-0.2-0.2 0 0 0 0c0.4-0.6 1.4-1 1.7-1.5 0 0.1 0 0.1 0.1 0.1 0.3-0.2 0.5-0.6 0.8-1 0.3 0 0.1 0.5 0.8-0.1 0-0.2-0.5-0.2 0.1-0.6 0 0-0.4 0.5-0.1 0.4zm-3.5 2.7q0 0 0.1 0-0.1 0-0.1 0zm-49.7 28.4q0 0 0 0zm-24.7 11.1q-0.1 0-0.1 0 0 0 0.1 0zm-17.8 7.3q0 0 0 0 0 0 0 0 0 0 0 0zm0 0q0 0 0 0l-0.2 0.1c-0.1-0.1 0.2-0.1 0.4-0.2-0.1 0-0.2 0.1-0.2 0.1zm-0.7 0.9q0 0 0 0 0 0 0 0zm-3.2 0.6q0 0 0 0.1 0-0.1 0-0.1zm-9 3.6q0.1 0 0.1-0.1 0 0.1-0.1 0.1zm-7.7 2.4q0 0 0 0 0 0 0 0zm-15.8 5q0 0 0.1 0-0.1 0-0.1 0zm-10 2.5q-0.1 0-0.1 0zm18.8-4.8q0 0 0 0 0 0 0 0zm19.3-5.7q0.1 0 0.1 0 0 0-0.1 0zm6.2-1.9q0.1 0 0.2-0.1-0.1 0.1-0.2 0.1zm3.3-1.7q-0.1 0-0.1 0.1c-0.1 0 0-0.1 0.1-0.1zm12-4.7q0 0 0 0 0 0 0 0zm62.6-30.9q0 0 0 0 0 0 0 0zm2.4-1.7q0 0 0 0 0 0 0 0zm3.8-2.2q0 0 0 0 0 0 0 0zm3.4-2.3q0.1 0 0.1 0-0.1 0-0.1 0zm9.7-6.5q-0.1 0.1-0.1 0.1 0 0 0.1-0.1zm9.8-8.5q0 0 0 0 0 0 0 0zm-5.2 3.8q-0.1 0-0.1 0 0 0 0.1 0zm-127.3 62.3q0 0 0 0 0 0 0 0zm28.8-9.3q0 0 0 0 0 0 0 0zm82.1-41.8q-0.1 0.1-0.3 0.2 0.2-0.1 0.3-0.2zm-0.9 0.8c0.1 0 0.1-0.1 0-0.2q-0.3 0.2-0.5 0.3c0.2 0 0.5-0.2 0.5-0.1zm2.7-0.3v0.1q-0.2 0.1-0.3 0.2c0 0 0.1 0 0.3-0.1q0-0.1 0-0.2z"/><path class="C" d="m288.6 1323.9q0 0 0.1 0-0.1 0-0.1 0l-0.1 0.1q0.1-0.1 0.1-0.1z"/><path class="C" d="m179.7 1373.8q0 0 0-0.1 0 0 0 0.1z"/><path class="C" d="m269.4 1333.6l0.1 0.1v-0.1z"/><path class="C" d="m172.5 1375.2q0-0.1-0.1-0.1 0 0 0.1 0.1z"/><path class="C" d="m169.5 1376h-0.5q0.3 0 0.5 0z"/><path class="C" d="m167.1 1376.5q0 0.1 0 0.1z"/><path class="C" d="m203.6 1364.5q0.1 0 0.1-0.1c0.2-0.1 0.1 0-0.1 0.1z"/><path class="C" d="m193 1368.8q0.2-0.1 0.3-0.2c-0.2 0-0.3 0.1-0.3 0.2z"/><path class="C" d="m215.4 1359.6h0.1z"/><path class="C" d="m193.8 1368.4q-0.3 0-0.5 0.2c0.2-0.1 0.4-0.1 0.5-0.2z"/><path class="C" d="m157 1379.1h-0.1q0 0-0.1 0.1z"/><path class="C" d="m156.8 1379.2h-0.1q0.1 0 0.1 0z"/><path class="C" d="m156.5 1379.3l0.2-0.1c-0.1 0-0.2 0.1-0.2 0.1z"/><path class="C" d="m160.1 1378.4v-0.1q0 0 0 0.1z"/><path class="C" d="m161 1378.1c-0.2 0.1-0.6 0-0.9 0.2 0.1-0.1 0.7 0 0.9-0.2z"/><path class="C" d="m165.2 1378l-0.8 0.2c0.2 0 0.4 0.1 0 0.2 1.1 0-0.2-0.1 0.8-0.4z"/><path class="C" d="m167.7 1377.5c-0.4 0.1 0 0.1 0 0.1 0.3-0.1 0.3-0.2 0-0.1z"/><path class="C" d="m185.2 1372.2v0.2c0.4-0.1 0-0.1 0-0.2z"/><path class="C" d="m188.2 1370.2h-0.3l-0.1 0.2z"/><path class="C" d="m190.6 1370.8l-0.1 0.1 0.5-0.3z"/><path class="C" d="m219.4 1360l-0.1-0.2c-0.2 0.2-0.2 0.4 0.1 0.2z"/><path class="C" d="m231.5 1354.5c0.2 0.1 0.6 0 0.8-0.2-0.3 0.1-0.6 0.1-0.8 0.2z"/><path class="C" d="m267.3 1337l-0.2 0.2 0.4-0.3z"/></g><g style="opacity:.6"><path class="C" d="m346 1269.6c0.1 0 0.2 0.1 0.2 0.1l-0.2-0.2z"/><path class="C" d="m346.6 1269.6c0-0.1-0.1-0.3-0.3-0.4 0.1 0.2 0 0.1 0.2 0.4 0 0-0.1 0-0.2-0.1 0 0.1-0.1 0 0 0.2q0.3 0.1 0.2-0.2c0.1 0 0.1 0.1 0.1 0.1z"/><path class="C" d="m350.4 1265.5h-0.1q0 0 0.1 0z"/><path class="C" d="m352.3 1262.7q0 0 0.1 0 0 0-0.1 0z"/><path class="C" d="m352.9 1262.3q0 0-0.1 0 0.1 0 0.1 0z"/><path class="C" d="m350.4 1265.5h0.1c-0.1-0.1-0.1 0-0.1 0z"/><path class="C" d="m346.7 1268.6q0 0.1 0 0.1 0 0 0 0z"/><path class="C" d="m349.6 1266.8v0.1q0 0 0.1 0z"/><path class="C" d="m348.9 1267.8c0.1 0-0.1-0.2-0.2-0.2q0.1 0.1 0.1 0.1 0.1 0 0.1 0.1z"/><path class="C" d="m347.5 1269q0 0 0 0z"/><path class="C" d="m350.2 1266.2q0 0 0 0 0 0 0 0z"/><path class="C" d="m356.5 1235.4q0 0 0 0 0 0 0 0z"/><path class="C" d="m357.3 1233.9h0.1z"/><path class="C" d="m353.6 1261.5q0.1 0 0 0z"/><path class="C" d="m357.3 1252.1c-0.2 0.1-0.2-0.2-0.4-0.1 0.1 0 0.3 0.3 0.4 0.1z"/><path class="C" d="m346.7 1268.6q0 0 0 0 0 0 0 0z"/><path class="C" d="m356.9 1252q0 0 0 0z"/><path class="C" d="m354.7 1259.2q-0.1 0-0.1 0 0 0 0.1 0z"/><path class="C" d="m353.6 1260.7q0 0 0 0z"/><path class="C" d="m354.8 1258.2c0-0.1 0.1 0 0.1-0.1q-0.1 0-0.1 0 0.1 0 0 0.1z"/><path class="C" d="m355.2 1257.2q0 0 0 0v0.1z"/><path class="C" d="m357 1238.3q0.1 0 0.1 0c-0.1 0-0.2-0.1-0.1 0z"/><path class="C" d="m346.8 1268.7q-0.1 0-0.1-0.1v0.1q0 0 0.1 0z"/><path class="C" d="m353.3 1257.4l0.1-0.1q0 0.1-0.1 0.1z"/><path class="C" d="m356.9 1245.3v-0.1q0 0 0 0.1z"/><path class="C" d="m353.6 1256.9q0.1 0 0.1 0 0-0.1 0-0.1z"/><path class="C" d="m357.2 1238.3h-0.1z"/><path fill-rule="evenodd" class="C" d="m356.8 1237.3c-0.1-0.1 0 0 0.2-0.2-0.2 0 0.1-0.1-0.3-0.1 0.2-0.1 0.1 0 0.3-0.1-0.2 0-0.2-0.2-0.4-0.2 0.2 0 0.3 0.2 0.6 0-0.2-0.1-0.3-0.2-0.6-0.2 0.1 0 0.2-0.1 0.2-0.2q0 0 0.1 0c-0.3-0.1-0.1-0.4-0.5-0.4 0.4 0 0-0.4 0.4-0.3 0-0.1-0.2-0.2-0.3-0.2 0.3 0 0.1-0.2 0.2-0.3-0.1 0-0.1-0.1-0.2-0.2q0 0.1 0.2 0c-0.2 0-0.1 0 0.1-0.1-0.1-0.1-0.3 0-0.4 0 0-0.1 0.2-0.1 0.3-0.1l-0.3-0.1q0 0 0.1-0.1c-0.1 0-0.2 0-0.1-0.2v0.2l0.2-0.1-0.2-0.1c0.2-0.3 0.5-0.3 0.9-0.4l0.1 0.1c0.1 0 0.1-0.1 0.1-0.1 0.1-0.1 0.4 0 0.5 0.1 0 0.3-0.4 0.2-0.5 0.4l0.3 0.2h-0.1c-0.1 0.1 0 0.1 0.1 0.1-0.2 0-0.1 0.2-0.1 0.3l0.2-0.1c0.4 0.2-0.3 0.5-0.1 0.7l0.3 0.1-0.2 0.1c0.1 0 0.3 0 0.2 0.2-0.3 0.6 0.3 1.1 0.1 1.6q0 0 0 0c-0.4 0.5 0.7 0.6 0.3 1.1h-0.1c0.1 0.2-0.1-0.1-0.2 0.1 0.3 0 0.3 0.3 0.4 0.4-0.1 0-0.1-0.1-0.1-0.1-0.1 0-0.3 0-0.2 0.1 0.4 0.1 0.4 0.4 0.5 0.6-0.2 0.1-0.3 0.3-0.6 0.4 0 0 0.2 0 0.3 0.1-0.1 0 0 0.1 0.1 0.1q0-0.1 0-0.1 0 0 0-0.1 0 0 0 0c0.1-0.1 0.1 0 0.3 0 0 0 0.1 0.2-0.1 0.2q0 0.1 0 0.1 0 0.1 0 0.1-0.1 0-0.1 0c-0.1 0.2 0.2 0.4 0.4 0.5-0.3-0.1-0.3 0-0.5 0 0 0 0-0.1 0-0.3q0 0-0.1 0c-0.2 0.2 0.2 0.3 0 0.5q0 0-0.1 0c-0.1 0.1 0.1 0.1 0.2 0.1-0.2 0.1-0.3 0.2-0.2 0.3 0.1 0.1 0.2 0.1 0.2 0.2h-0.2c-0.1 0.1 0.2 0.1 0.1 0.2 0 0-0.1 0-0.1 0 0.1 0.2 0.2 0.2 0.4 0.3h-0.2c0.1 0.1 0.3 0.3 0.1 0.4 0.4 0 0.2 0.3 0.2 0.4 0 0-0.1 0-0.1-0.1 0.2 0.3-0.1 0.6-0.1 0.8h-0.3c0 0.2 0.6 0.3 0.6 0.4l-0.2-0.1c0.1 0.3 0 0.4 0 0.6h-0.2c0 0.1 0 0.2 0.1 0.3-0.5 0.1 0.2 0.7-0.4 0.9l0.4 0.1c0 0.1 0 0.3-0.3 0.3-0.3-0.1 0 0.1-0.1 0.2 0.1 0 0.3 0.1 0.3 0.1-0.2 0.3-0.1 0.8-0.5 0.9 0.1 0.4 0.4 0.7 0.3 1h-0.1c-0.1 0.1-0.2 0.3-0.5 0.2 0 0.3 0.4 0.5 0.2 0.8l-0.1-0.1c-0.1 0.1 0 0.2 0.1 0.3 0 0-0.1 0-0.1-0.1-0.2 0.1 0 0.2 0 0.2h-0.1c-0.3 0.2 0.1 0.6 0 0.9-0.1 0-0.2 0-0.2 0 0.3 0.2 0.1 0.5 0.2 0.6l-0.2-0.1c0.2 0.3-0.4 0.1-0.2 0.4h0.2c-0.1 0 0 0.1 0.1 0.2-0.1 0-0.2-0.1-0.3 0.1-0.1-0.1 0-0.2-0.2-0.2l-0.3 0.2q-0.1 0-0.1 0.1c0.5 0.1 0 0.2 0.5 0.2-0.1 0.4-0.5 0.6-0.4 0.9-0.4 0-0.2 0.6-0.7 0.4q-0.1 0.2 0.2 0.5c0.1-0.1 0-0.1 0-0.2 0.1 0.1 0.1 0.3 0 0.4 0-0.1-0.1-0.3-0.3-0.5 0 0.2 0.2 0.4 0.2 0.5h-0.3c0.2 0.2-0.2 0 0 0.2h0.1c-0.1 0.2 0.2 0.4 0.1 0.6l-0.1-0.1c0 0.1 0.2 0.3-0.1 0.3v-0.2c-0.2 0-0.3 0-0.4 0 0 0.2 0.3 0.2 0.3 0.3-0.2-0.1-0.1 0-0.3-0.2 0 0.2 0 0.5 0.2 0.7q0-0.1-0.1-0.1c-0.1 0.2 0.2 0.5 0 0.5-0.3 0 0.1 0.4-0.3 0.2-0.1 0.1 0-0.1-0.2-0.1-0.2 0.2 0.3 0.3 0.1 0.4q0 0 0 0c-0.1 0.1-0.1 0.3-0.1 0.4-0.4 0.1-0.2 0.6-0.7 0.6 0.2 0 0.2 0.1 0.2 0.1q0 0 0 0c0 0.1 0.1 0.2 0.1 0.2-0.1 0 0.1 0.3 0 0.3 0.1 0 0 0 0 0.1 0-0.2-0.2-0.1-0.3-0.2-0.1 0.1 0.3 0.4 0.1 0.5h-0.2c0.3 0.2 0.1 0.3 0.2 0.4-0.1-0.1-0.2 0-0.3-0.1 0 0.1-0.2 0.2 0 0.3l0.1-0.1c-0.2 0.2 0.1 0.5-0.2 0.6l-0.4-0.2c-0.2 0.1 0.1 0.4-0.2 0.3 0.2 0.1 0.1 0 0.2 0.2 0.1-0.1 0-0.2 0.1-0.3l0.1 0.3v-0.3c0.1 0.2 0.1 0.2 0.3 0.2 0 0.2-0.3 0.1-0.2 0.3-0.1 0-0.2-0.1-0.3-0.1 0 0.2-0.3 0.1-0.3 0.2q0 0-0.1 0c0 0.1 0 0.2 0.1 0.2h0.1c-0.1 0.1 0.1 0.2-0.1 0.2 0.1 0.1 0.3 0.3 0.3 0.2 0 0.1-0.1 0.1-0.2 0-0.1 0.2 0.3 0.3 0 0.4q0-0.1 0-0.1 0 0-0.1 0.1c0-0.1-0.3-0.1-0.1-0.2-0.2-0.1-0.1 0.1-0.3 0.1 0.1 0.2 0.3 0.2 0.4 0.3-0.1-0.1-0.1 0-0.1 0h0.2q-0.1 0.1-0.1 0.2v-0.1c-0.1 0-0.4 0-0.3 0.3-0.1-0.1-0.1-0.3-0.3-0.2 0 0.2-0.1 0-0.2 0-0.1 0.2 0.2 0.2 0 0.4 0 0 0.1 0 0.1 0-0.1 0.1-0.1 0.2-0.2 0.3 0 0 0.1 0 0.1 0.1-0.1-0.1-0.2 0.1-0.3 0.1h0.1c-0.1 0-0.1 0-0.1-0.1q0 0 0 0c0-0.1-0.3-0.3-0.4-0.2 0 0.2 0.2 0.3 0.3 0.3-0.2 0.2 0.3 0.4 0.1 0.5-0.1 0-0.4 0-0.5 0.1 0.1 0.1 0.2-0.1 0.3 0.1-0.6-0.1 0 0.5-0.4 0.6l-0.2-0.2q-0.1 0.1-0.1 0.2h0.2c0 0.1-0.2 0.2-0.3 0 0.1 0.3 0 0.2-0.2 0.3 0.1-0.1 0.1 0 0-0.1-0.2 0-0.1 0.1-0.1 0.2-0.1 0-0.2-0.1-0.3 0 0.1 0.1 0 0.3 0 0.4h-0.1c0 0.2-0.5 0.3-0.4 0.6q0 0 0 0c0.2 0.1 0 0.3 0.1 0.4-0.1-0.1-0.2-0.1-0.2-0.1 0.2 0.2 0 0.2 0.1 0.3-0.1 0-0.2-0.2-0.3-0.1 0 0.1 0.1 0.2 0.2 0.2-0.1 0-0.3 0-0.3 0-0.1 0 0 0 0 0-0.1-0.1-0.1-0.1-0.2-0.1 0 0 0.2 0.1 0.1 0.1l-0.1-0.1c-0.1 0-0.1 0-0.1 0 0 0-0.1-0.1-0.2-0.2 0 0.3 0.4 0.3 0.5 0.5-0.2 0-0.1 0.3-0.2 0.4l-0.1-0.1q-0.1 0.1 0 0.2h-0.1c0 0 0-0.1-0.1-0.2-0.1 0.1-0.2 0.2 0 0.4-0.2 0-0.5 0.2-0.5 0.2 0 0.2-0.3 0.2-0.1 0.4 0 0.1-0.4 0-0.2 0.3-0.2-0.1 0-0.1-0.2-0.2-0.2-0.1 0.1 0.3-0.2 0.1 0 0.2 0 0 0.2 0.2-0.3-0.2-0.3 0.1-0.5 0.1 0.1 0.1 0.1 0 0.2 0.2-0.1-0.1-0.1-0.1-0.2 0l0.2 0.1-0.5-0.2c0.1 0.3 0.3 0.2 0.2 0.4-0.2-0.1 0 0.3-0.2 0.3 0.1 0-0.1-0.1-0.1-0.1v0.1q0 0-0.1 0c-0.1-0.1 0.1 0.1-0.1 0 0 0-0.2-0.1-0.2-0.2l0.1 0.3-0.2-0.2c-0.2 0.1 0.1 0.6-0.3 0.3v-0.1c0 0-0.2-0.1-0.2 0.1 0 0 0.1 0.1 0.1 0.1-0.2-0.1-0.1-0.3-0.1-0.4 0.1 0 0.1 0.1 0.2 0.2 0-0.1 0-0.3 0-0.4 0 0.1 0.1 0.2 0.1 0.3 0.2 0 0-0.2 0-0.3q0.2 0.1 0.2 0.1c0-0.1 0-0.2 0.2-0.2 0 0 0 0.2 0.2 0.2 0-0.2-0.2-0.4-0.1-0.6-0.1-0.4 0.4-0.3 0.4-0.6-0.1 0-0.2 0-0.2-0.1 0.1 0.1 0.1 0 0.2 0.1-0.2-0.3 0.1-0.1 0-0.3 0.1 0 0.2 0 0.3 0 0.1 0.2 0.1 0 0.3 0.3-0.2-0.3 0.2-0.2-0.1-0.6h-0.1l0.2-0.1c0.1 0 0-0.1 0.3 0 0 0.1 0 0.1 0 0.2 0.2 0 0-0.3 0-0.4 0.2 0.1 0 0.1 0.2 0.2 0.1 0 0-0.1 0-0.2h0.1c0.3 0-0.3-0.3 0-0.2q-0.1-0.1-0.1-0.1c0.1 0 0.3 0 0.3 0.2 0-0.1 0-0.2 0-0.3-0.2 0-0.1 0-0.3-0.1l0.1-0.2c0 0 0.1 0 0 0.1 0.6 0 0.1-0.8 0.8-0.7-0.2-0.1-0.1-0.1-0.2-0.2 0.1-0.1 0.2-0.2 0.3-0.3l0.1 0.1c0-0.3 0-0.5 0.1-0.6 0-0.1 0.1 0 0.2 0.1-0.1-0.2 0.5 0 0.2-0.3h-0.1c0.2-0.1 0.1-0.5 0.2-0.8 0.3 0.1 0 0.1 0.2 0.3 0.2-0.2 0.2-0.4 0.3-0.6 0 0.1 0.1 0.1 0.1 0.1 0.2-0.1-0.2-0.1-0.1-0.2 0.1 0 0.1 0.1 0.2 0l-0.1-0.1c0 0 0.1 0.1 0.1 0.1-0.1-0.2 0.1-0.3 0-0.4 0 0 0.2 0.1 0.3 0.2 0.1-0.1 0-0.2 0-0.3 0.2 0 0.2-0.1 0.2-0.1 0.2-0.1-0.1-0.1-0.1-0.2h-0.2l0.1-0.2v0.1c0.2 0 0.1-0.2 0.1-0.3h-0.1v-0.2c0.2 0.1 0.1-0.1 0.4 0.1 0.2-0.1 0-0.5 0.1-0.7 0 0 0 0.1 0.1 0.1 0.1-0.1 0-0.3-0.1-0.4 0.1 0.1 0.1 0.1 0.1 0.1 0.1-0.1 0-0.1 0-0.3q0.1 0.1 0.2 0.1-0.2-0.1-0.2-0.2c0.4 0.4 0.3-0.1 0.6 0.2-0.1-0.1-0.1-0.4-0.3-0.4-0.1-0.4 0.2-0.5 0.2-0.8 0 0 0.1 0.2 0.2 0.1 0.2-0.2 0-0.5 0-0.8 0.3 0.2-0.1 0.3 0.2 0.5q0.1-0.5 0.1-1.1c0.5 0.2-0.1-0.3 0.4-0.4-0.2 0-0.2-0.1-0.2-0.2 0.1 0.1 0.2-0.1 0.3 0-0.1-0.1-0.1-0.4 0.2-0.3-0.3-0.1 0.1-0.2-0.1-0.3 0.2-0.1 0.1-0.3 0.2-0.4-0.2 0 0-0.2 0-0.3q0 0.1 0 0.1c0.2 0-0.1-0.2 0.1-0.3 0 0 0.1 0.1 0.2 0-0.2 0-0.2-0.3 0-0.3-0.1 0 0 0 0.1 0.1-0.1-0.5 0.3-0.8 0.2-1.3l0.2 0.2c0.4-0.2-0.3-0.3-0.2-0.5 0.3-0.5 0.8-1 0.8-1.6 0 0-0.1 0-0.2 0 0.1 0 0.3 0 0.2-0.1h-0.2c0.5-0.2 0-0.8 0.6-0.8-0.1-0.3 0.3-0.4 0-0.8 0.2 0 0.2 0.2 0.3 0.1l-0.1-0.3c-0.3-0.4 0.6-0.6 0.4-1 0.1 0 0.2 0 0.2-0.1-0.1 0-0.1 0-0.2 0.1-0.1-0.4-0.1-0.4-0.1-0.7 0.2 0.2 0.2 0 0.4 0-0.1-0.1-0.2 0-0.3-0.2 0-0.2 0.2-0.3 0.3-0.5-0.1-0.1-0.1-0.1-0.3-0.2 0.1-0.2 0-0.3 0-0.6h0.1c-0.2-0.1 0.2-0.2 0-0.3 0.1 0 0.2 0.1 0.2 0.1v-0.2c0 0.1 0.3 0.2 0.3 0.1-0.1-0.2-0.1 0-0.2-0.1h0.2c0-0.1-0.3-0.1-0.4 0 0.1-0.3 0-0.6 0.1-0.8h0.1c0-0.1 0-0.3 0.2-0.4-0.1 0-0.2 0-0.2 0-0.2-0.2 0.2 0 0.1-0.1q0 0 0.1 0l-0.1-0.3c0.1 0 0.4-0.2 0.3-0.3-0.1 0-0.2 0-0.2 0l-0.1-0.1h0.3l-0.2-0.2 0.2 0.1c0-0.1-0.3-0.2-0.3-0.3 0.2-0.2 0.3-0.2 0.5-0.4-0.4 0 0-0.3-0.3-0.4 0.4-0.2 0.2-0.6 0.3-1l0.1 0.1c0.2-0.2-0.4-0.2-0.3-0.4h0.1c0.2-0.2 0-0.5-0.2-0.7 0.1 0 0.2 0 0.2-0.1-0.1 0-0.3 0.1-0.2 0 0 0 0.1 0 0.1-0.1l-0.2-0.1c0.2-0.3 0.4-0.6 0.2-0.9 0.1-0.1 0.2 0 0.2 0 0-0.3-0.2-0.5-0.3-0.7h0.3c0-0.1-0.4-0.1-0.2-0.2 0.1-0.1 0 0.1 0.2 0.1 0.1-0.2-0.3-0.1-0.3-0.3h0.3c0.2-0.2-0.1-0.2-0.3-0.2-0.4-0.2 0.5-0.2 0.3-0.5-0.2 0-0.2 0.1-0.4 0 0.1-0.2-0.1-0.2-0.1-0.4 0.4-0.2 0 0.1 0.4-0.1l-0.1 0.2c0.3-0.2 0.1 0.1 0.4 0.1 0-0.1-0.2-0.3-0.3-0.4 0.2 0 0 0.2 0.3 0.1l-0.1-0.1c0.1 0 0.1 0 0.1 0.1 0.2-0.1 0-0.1 0-0.2q-0.1 0-0.3 0.1 0 0 0-0.1c-0.3-0.1-0.1-0.3-0.3-0.4 0 0 0.1 0 0.1 0 0-0.1-0.3-0.2-0.4-0.3 0.2 0 0.5 0 0.4-0.1-0.2-0.1-0.5 0.1-0.5-0.1 0 0 0.2 0.1 0.3 0zm0.4 1q0 0 0 0 0 0 0 0zm-0.5 7.4q0 0 0 0 0 0 0 0zm-0.8 5q0 0 0 0zm-2.1 5.5q0.1 0 0.1 0 0 0-0.1 0zm-1.4 4q0 0 0 0 0 0 0 0 0 0 0 0zm0 0q-0.1 0-0.1 0c-0.1 0 0-0.1 0-0.1q0 0 0.1 0.1zm0.3 0.4q0 0 0 0 0 0 0 0zm-0.7 0.4q0 0 0 0 0 0 0 0zm-0.8 2q0 0 0 0 0 0 0 0zm-1 1.5q0 0 0 0 0 0 0 0zm-1.9 3.1q0 0 0 0 0 0 0 0zm-1.6 1.7q0 0-0.1 0zm3-3.1q0 0 0 0 0 0 0 0zm2.9-3.6q0 0 0 0 0 0 0 0zm1-1.1q0 0 0 0 0 0 0 0zm0-0.9q0 0 0 0 0 0 0 0zm1.2-2.6q0-0.1 0-0.1 0 0.1 0 0.1zm4-15.2q0 0 0 0 0 0 0 0zm-0.2-0.7q0 0 0 0 0 0 0 0zm0.1-1q0 0 0 0 0 0 0 0zm-0.1-0.9q0 0 0 0 0 0 0 0zm-0.3-2.6q0 0 0 0 0 0 0 0zm-1.8-2.7q0 0 0.1 0-0.1 0-0.1 0zm0.4 1.4q0 0 0 0 0 0 0 0zm-0.1 9.5q0-0.1 0-0.1 0 0 0 0.1zm-7.1 20.3q0 0.1 0 0.1 0 0 0-0.1zm3.9-5.6q0 0.1 0 0.1 0 0 0-0.1zm3.9-19.9q0 0 0 0.1 0-0.1 0-0.1zm0.2 0.3c0-0.1-0.1-0.1-0.2-0.1q0 0.1 0 0.2c0.1-0.1 0.1-0.1 0.2-0.1zm1.1-0.6h0.1q0 0.1 0 0.1c0 0 0.1 0 0-0.1q0 0-0.1 0z"/><path class="C" d="m358.6 1240.2q0 0 0 0-0.1 0-0.1 0.1h0.1z"/><path class="C" d="m350.3 1265.5q0 0 0 0 0 0 0 0z"/><path class="C" d="m356.8 1244.9h0.1-0.1z"/><path class="C" d="m348.8 1266.4q-0.1 0-0.1 0 0 0 0.1 0z"/><path class="C" d="m348.3 1266.9h-0.1q0.1 0 0.1 0z"/><path class="C" d="m347.9 1267.3q0 0 0.1 0z"/><path class="C" d="m352.3 1260.1q0 0 0-0.1c0 0 0 0 0 0.1z"/><path class="C" d="m351.5 1262.5q0-0.1-0.1-0.1c0 0 0 0 0.1 0.1z"/><path class="C" d="m353.3 1257.5v-0.1z"/><path class="C" d="m351.5 1262.3q-0.1 0-0.1 0.1 0.1 0 0.1-0.1z"/><path class="C" d="m346.3 1269q0 0 0 0z"/><path class="C" d="m346.3 1269v0.1q0.1-0.1 0-0.1z"/><path class="C" d="m346.3 1269.1c0 0 0 0 0 0z"/><path class="C" d="m346.9 1268.5h-0.1q0 0 0.1 0z"/><path class="C" d="m347 1268.3c-0.1 0.1-0.2 0-0.2 0.1v0.1c0-0.1 0.3-0.1 0.2-0.2z"/><path class="C" d="m348.3 1268.2l-0.2 0.1c0.1 0.1 0.2 0.1 0.2 0.2 0.3 0-0.2-0.1 0-0.3z"/><path class="C" d="m348.7 1267.9c0 0.1 0.1 0 0.2 0.1 0-0.1 0-0.1-0.2-0.1z"/><path class="C" d="m351.2 1264.5l0.1 0.1c0 0 0 0-0.1-0.1z"/><path class="C" d="m350.8 1263.3h-0.2l0.2 0.2z"/><path class="C" d="m352.2 1263.7v-0.1z"/><path class="C" d="m355.3 1257.5l-0.2-0.1c0 0.1 0.3 0.2 0.2 0.1z"/><path class="C" d="m356.2 1254.6c0.1 0 0.2 0 0.1-0.1 0 0-0.1 0.1-0.1 0.1z"/><path class="C" d="m358.6 1245.9l0.1 0.1v-0.1z"/></g><g style="opacity:.6"><path class="D" d="m133.7 491.6q0 0 0 0 0 0 0 0 0 0 0 0z"/><path class="E" d="m121.2 493.3c-7-0.9-32.2-42.5-55.6-48.5-15.4-3.9-39.7-2.7-54.7-1.4 0 0 43.5 9.1 59.7 38.6 15.5 28.1 37.2 15.5 59.8 10.3-3.9 0.8-7.2 1.3-9.2 1z"/><path class="F" d="m134.8 491.4q0 0-0.1 0 0.1 0 0.1 0z"/></g><path class="G" d="m2350.5 329.6l-770.9 62 770.9 30.9z"/><path class="H" d="m847.1 312.6c0 0-2-0.3-4.1-1.4-2.2-1-6.4 0.2-8.5 1.1-2.1 0.8-3.5 1-3.1 1.1 0.4 0.1 7.3 1.7 7.3 2.5 0 0.7-16.9 7.9-24.1 11.3-7.2 3.4-10.1 4.5-10.2 4.7 0 0.2 12.4 1.6 21 0.5 8.5-1.2 25.5-11 27.1-11 1.5 0 9.8 3.4 12.3 4 2.6 0.7 15.6-7.7 13.9-7.7-1.7 0-15.3-0.4-15.5-0.6-0.2-0.3 27-11.7 29.3-25.3 0 0-17.2 4.3-25.4 8.9-8.2 4.6-20 11.9-20 11.9z"/><path class="I" d="m1111.6 322.9c0 0-1.3-0.2-2.6-0.9-1.4-0.7-4.1 0.2-5.5 0.7-1.3 0.5-2.2 0.6-1.9 0.7 0.2 0.1 4.6 1.1 4.6 1.6 0 0.5-10.8 5.1-15.4 7.3-4.6 2.2-6.5 2.8-6.6 3 0 0.1 8 1 13.5 0.3 5.5-0.7 16.4-7.1 17.4-7.1 1 0 6.3 2.2 7.9 2.6 1.6 0.4 10-4.9 8.9-4.9-1.1 0-10.2-0.4-10.3-0.6-0.1-0.1 18.1-7.4 13.3-17 0 0-5.2 3.7-10.4 6.7-5.3 2.9-12.9 7.6-12.9 7.6z"/><path class="J" d="m1015.6 360.1c0 0-0.8-0.1-1.7-0.6-1-0.4-2.8 0.1-3.7 0.5-0.8 0.3-1.4 0.4-1.3 0.4 0.2 0.1 3.1 0.8 3.1 1.1 0 0.3-7.1 3.3-10.2 4.8-3.1 1.5-4.3 1.9-4.3 2-0.1 0.1 5.2 0.7 8.9 0.2 3.6-0.5 10.8-4.7 11.5-4.7 0.7 0 4.2 1.5 5.3 1.8 1 0.2 6.6-3.3 5.9-3.3-0.8 0-6.8-0.3-6.9-0.4-0.1-0.1 12.1-4.9 8.8-11.3 0 0-3.4 2.5-6.9 4.5-3.5 1.9-8.5 5-8.5 5z"/><g style="opacity:.3"><path class="K" d="m2224.4 209.5c3.9-13.3-12.1-36.6-22.7-32.7-10.6 3.9-20.2 14.2-31.2 13.4-10.9-0.9-19.3-12.2-26.7-22.6-13.5-18.7-28-36.9-45.5-48.9-17.6-12-38.7-17.2-57.6-9.1-20.1 8.7-35.1 31.2-54.6 42.1-44.8 24.8-94.2-17.2-142.8-20.5-55.9-3.7-106.5 44.3-162.3 50.8-13.5 1.5-27.2 0.6-40.4 4.7-13.1 4.1-120.5 3.6-124.9 20.2z"/></g><path class="L" d="m966.9 755.3c0 0-4.9 12.8-2.8 24.9 0 0 6.5-2.5 7.1-7.8 0.5-5.3-4.3-17.1-4.3-17.1z"/><path class="M" d="m990.8 790.1c0 0 0.6 3.4 0 3.5-0.5 0-6.2 0-8.4-0.1-0.3 0-0.4-0.3-0.1-0.4 0.9-0.4 2.8-1.1 5.8-1.3l-0.2-1.7z"/><path class="M" d="m981.4 789.6c0 0 0.6 3.4-0.1 3.5-0.5 0-6.2 0-8.4 0-0.2 0-0.3-0.4-0.1-0.5 1-0.4 2.9-1.1 5.8-1.2l-0.2-1.8z"/><path class="N" d="m995.9 767.5c0 0 1.7 9.2-1.1 17.3-2.2 6.4-6.9 8.4-10.9 1.9 0 0-2 4.2-5.2 3-3.2-1.1-6.4-7.3-8.7-17.4-2.4-10.1-3.8-13.7-4.1-22.8-0.3-9-0.8-11.1-3.6-13.1-2.7-2-6.6-4-7-6.8-0.4-2.7 8.7-3 11.3-2.3 2.7 0.6 8.9 4.7 15.3 13.6 6.4 8.8 12.3 18.5 14 26.6z"/><path class="L" d="m995.9 767.5c-1.7-8.1-7.6-17.8-14-26.6-6.4-8.9-12.6-13-15.3-13.6-2.6-0.7-11.7-0.4-11.3 2.3 0.4 2.8 4.3 4.8 7 6.8q0.5 0.4 0.9 0.7c1.7 0.2 5.4 0.6 9.1 1.1 5.2 0.8 13.7 8.2 15 17.5 0 0-2.2 19.7 5 25.9 0 0 2.7-0.8 4.1-5.3 0.2-5-0.5-8.8-0.5-8.8z"/><path class="M" d="m957.1 727.8c0 0 3 3.5-0.9 3.7 0 0-4.5-2.8-9.5-3.1 0 0 3.8-2.9 10.4-0.6z"/><path class="L" d="m1196.2 725.6c-4.2 4.4-12.7 15.3-10.9 30.3 0.3 1.8 2.9 2.6 4.4 1.3 3.7-3.4 9.5-9.2 12.5-15.4 3.3-6.5 0.3-12.7-2-15.9-0.9-1.3-2.9-1.5-4-0.3z"/><path class="M" d="m1251.2 806.4c0 0 1.3 6.4 0 6.5-1.1 0-12.7 0-17.2 0-0.5 0-0.6-0.6-0.2-0.8 1.9-0.8 5.8-2.1 11.8-2.4l-0.4-3.3z"/><path class="M" d="m1225.5 802.5c0 0 0.4 6.5-0.9 6.4-1.1 0-12.5-1.4-17-1.9-0.5-0.1-0.6-0.7-0.1-0.9 2-0.6 6-1.3 12.1-1v-3.2z"/><path class="O" d="m1181.4 676.9c0 0 4.6 4.5 14.1 7.7 9.5 3.2 14.9 4.2 9.9 14.7-4.9 10.5-14 16.5-7.2 46.7 6.9 30.1 4.7 36.1 12.8 48.5 8.1 12.5 17 11.6 22.4 2.9 0 0 5.6 10.1 14.5 10.6 8.9 0.4 15.6-13.3 18.1-23.3 2.4-9.9 2.1-22.5 2.1-22.5 0 0 3.9 4.8 10.5 5.3 6.6 0.5 3.3-28.5-22.2-50.4 0 0-6.4-24-22.7-39-16.3-15-37-17.7-52.3-1.2z"/><path class="L" d="m1268.1 762.2c0 0 3.9 4.8 10.5 5.3 6.6 0.5 3.3-28.5-22.2-50.4 0 0-6.4-24-22.7-39-16.3-15-37-17.7-52.3-1.2 0 0 4.6 4.5 14.1 7.7 3.6 1.2 6.6 2.1 8.7 3.3 0 0 1.5 0.2 10.2-1.2 8.8-1.4 24.2-7.8 26.9 10.4 2.7 18.3 2.9 26.4 3.9 29 9 23.3 18.7 31.8 20.8 58.6 2.4-9.9 2.1-22.5 2.1-22.5z"/><path class="M" d="m1186.6 672.1c0 0 4.3 4.9-0.9 7.9 0 0-12.1-3.4-25.4-2.7 0 0 6.9-8 26.3-5.2z"/><path class="P" d="m1203.7 749.9c-4-11.4-6.3-20.5-7.7-27.6-0.6 5.8-0.1 13.3 2.2 23.7 6.9 30.1 4.7 36.1 12.8 48.5 8.1 12.5 17 11.6 22.4 2.9 0 0-17.7-12.7-29.7-47.5z"/><path class="L" d="m1023.5 740.9c-1.8 2.7-5.7 9.5-4.8 18.8 0.1 1.2 1.2 1.6 1.9 0.8 1.7-2.1 4.3-5.7 5.7-9.5 1.4-4.1 0.1-7.9-0.9-9.9-0.4-0.8-1.4-0.9-1.9-0.2z"/><path class="M" d="m1048.3 791.1c0 0 0.6 3.9 0 4-0.5 0-5.7 0-7.7 0-0.2 0-0.3-0.4-0.1-0.5 0.9-0.5 2.6-1.3 5.3-1.5l-0.2-2z"/><path class="M" d="m1036.8 788.7c0 0 0.1 4-0.5 3.9-0.4 0-5.6-0.9-7.6-1.2-0.2 0-0.3-0.4-0.1-0.5 1-0.4 2.7-0.9 5.5-0.6v-2.1z"/><path class="Q" d="m1016.9 710.7c0 0 2 2.7 6.3 4.7 4.3 2 6.8 2.7 4.5 9.2-2.2 6.5-6.3 10.2-3.2 29 3.1 18.7 2.1 22.4 5.7 30.1 3.7 7.7 7.7 7.2 10.1 1.8 0 0 2.5 6.3 6.5 6.5 4 0.3 7.1-8.2 8.2-14.4 1.1-6.2 1-14 1-14 0 0 1.7 3 4.7 3.3 3 0.3 1.5-17.7-10-31.3 0 0-2.9-14.9-10.3-24.2-7.3-9.3-16.6-11-23.5-0.7z"/><path class="L" d="m1056 763.6c0 0 1.7 3 4.7 3.3 3 0.3 1.5-17.7-10-31.3 0 0-2.9-14.9-10.3-24.2-7.3-9.3-16.6-11-23.5-0.7 0 0 2 2.7 6.3 4.7 1.6 0.8 3 1.4 3.9 2.1 0 0 0.7 0.1 4.7-0.7 3.9-0.9 10.9-4.9 12.1 6.4 1.2 11.3 1.3 16.4 1.7 18 4.1 14.5 8.4 19.7 9.4 36.4 1.1-6.2 1-14 1-14z"/><path class="M" d="m1019.2 707.7c0 0 2 3.1-0.4 4.9 0 0-5.4-2.1-11.4-1.7 0 0 3.1-4.9 11.8-3.2z"/><path class="P" d="m1026.9 756c-1.8-7.1-2.8-12.7-3.4-17.1-0.3 3.6-0.1 8.2 1 14.7 3.1 18.7 2.1 22.4 5.7 30.1 3.7 7.7 7.7 7.2 10.1 1.8 0 0-8-7.9-13.4-29.5z"/><path class="L" d="m2221.8 645.6c-3.1 3.2-9.4 11.4-8 22.4 0.1 1.4 2.1 2 3.2 1 2.7-2.5 7-6.8 9.3-11.4 2.4-4.9 0.2-9.4-1.5-11.8-0.7-1-2.2-1.1-3-0.2z"/><path class="M" d="m2262.6 705.5c0 0 1 4.8 0 4.8-0.8 0.1-9.4 0-12.7 0-0.4 0-0.5-0.4-0.2-0.6 1.4-0.6 4.3-1.5 8.8-1.8l-0.4-2.4z"/><path class="M" d="m2243.6 702.6c0 0 0.3 4.8-0.7 4.8-0.8-0.1-9.3-1.1-12.6-1.5-0.4 0-0.5-0.5-0.1-0.6 1.5-0.4 4.4-1 8.9-0.7l0.1-2.5z"/><path class="R" d="m2210.9 609.5c0 0 3.3 3.3 10.4 5.7 7 2.4 11.1 3.1 7.4 10.9-3.7 7.7-10.5 12.2-5.4 34.6 5.1 22.4 3.5 26.8 9.5 36 6 9.2 12.6 8.6 16.6 2.2 0 0 4.1 7.5 10.7 7.8 6.6 0.3 11.6-9.9 13.5-17.3 1.8-7.4 1.5-16.7 1.5-16.7 0 0 2.9 3.6 7.8 4 4.9 0.3 2.5-21.2-16.4-37.4 0 0-4.8-17.8-16.9-28.9-12.1-11.2-27.4-13.2-38.7-0.9z"/><path class="L" d="m2275.1 672.7c0 0 2.9 3.6 7.8 4 4.9 0.3 2.5-21.2-16.4-37.4 0 0-4.8-17.8-16.9-28.9-12.1-11.2-27.4-13.2-38.7-0.9 0 0 3.3 3.3 10.4 5.7 2.7 0.9 4.9 1.5 6.4 2.4 0 0 1.2 0.2 7.6-0.9 6.5-1 18-5.7 20 7.8 2 13.5 2.1 19.5 2.9 21.5 6.6 17.2 13.8 23.5 15.4 43.4 1.8-7.4 1.5-16.7 1.5-16.7z"/><path class="M" d="m2214.7 605.9c0 0 3.2 3.7-0.7 5.9 0 0-9-2.6-18.8-2.1 0 0 5.1-5.8 19.5-3.8z"/><path class="P" d="m2227.4 663.6c-3-8.4-4.7-15.2-5.7-20.5-0.5 4.4-0.1 9.9 1.6 17.6 5.1 22.4 3.5 26.8 9.5 36 6 9.2 12.6 8.6 16.6 2.2 0 0-13.2-9.5-22-35.3z"/></g></svg>