<svg version="1.2" xmlns="http://www.w3.org/2000/svg" viewBox="0 0 614 744" width="614" height="744"><style>.a{fill:#011356}.b{fill:#e29e24}.c{fill:#fff}.d{fill:#eee}.e{fill:#282727}.f{fill:#29429f}</style><path class="a" d="m185.8 201c0 0-87 46-136.9 116.5-49.9 70.5-53.8 101.3-45.1 104.6 8.8 3.3 75.9-57.7 151.2-75.3 75.3-17.7 30.8-145.8 30.8-145.8z"/><path class="b" d="m352.3 696.6c0 0-7.9 26 7.3 37.8 15.2 11.8 125.7 9.8 133.5 5 7.9-4.7-5.6-11 0-14.1 5.7-3 16.1-4.6 14-9.8-2.2-5.2-19.2-3.7-13.1-10.2 6.1-6.5 16.5-14.8-9.3-13.1-25.9 1.8-74.7 3.3-74.7 3.3"/><path class="b" d="m258.4 696.6c0 0 7.9 26-7.3 37.8-15.3 11.8-125.8 9.8-133.6 5-7.8-4.7 5.7-11 0-14.1-5.6-3-16.1-4.6-13.9-9.8 2.2-5.2 19.1-3.7 13-10.2-6.1-6.5-16.5-14.8 9.4-13.1 25.9 1.8 74.6 3.3 74.6 3.3"/><path class="c" d="m294.1 0.8c0 0-136.2-1.3-139.4 208.9-2.5 167-107.5 220.6-91.6 354.6 22.7 190.7 319.9 156 393.5 120.6 73.6-35.4 86.7-122.6 54.8-240.9-31.9-118.3-39.6-147.8-49.8-243.3-10.2-95.5-15.1-203-167.5-199.9z"/><path class="d" d="m456.6 684.9c40.5-19.5 62.7-54.7 69.1-102.2-39.7 76.3-148.9 123.4-282 112.4-90.6-7.5-144.5-58.5-174.8-102.7 47.5 158.9 317.9 126 387.7 92.5z"/><path class="a" d="m446.3 229c0 0 85.7 59.8 135.2 130.8 49.5 71.1 34.3 79.1 7.1 62.8-27.2-16.2-119.5-42.2-119.5-42.2"/><path class="a" d="m511.4 444c-31.9-118.3-39.6-147.8-49.8-243.3-10.2-95.5-15.1-203-167.5-199.9 0 0-136.2-1.3-139.4 208.9-2.5 167-107.5 220.6-91.6 354.6 1.2 10.3 3.3 19.8 6.1 28.8-7.7-57.7 3.4-85.7 46.6-152.1 73.4-112.7 63-157.8 69.1-249.8 6-92 32.1-103.7 58-104.8 31.4-1.5 48.7 39.7 49.1 47l10.5-0.6c0 0 11.2-51.1 44.8-54.3 50.8-5 57.4 38.1 82.9 172.4 23.7 124.3 97.5 245.9 91.2 353.2 0.2-1 0.6-2 0.9-3 10.1-41.9 5.8-95.2-10.9-157.1z"/><path class="b" d="m278 131.9l18.5-9.1c0.9-0.5 1.9-0.5 2.8-0.2l19.9 6.8c2.8 1 3.3 4.7 0.9 6.4l-19.7 13.5c-1.2 0.9-2.7 0.9-3.9 0.2l-18.7-11.3c-2.5-1.4-2.3-5.1 0.2-6.3z"/><path class="e" d="m344.3 120.9c0.4 8.5 5.5 15.1 11.3 14.8 5.9-0.3 10.2-7.5 9.7-16-0.5-8.4-5.6-15-11.4-14.7-5.8 0.3-10.1 7.5-9.6 15.9z"/><path class="e" d="m233.2 124.5c0.5 8.5 5.6 15.1 11.4 14.7 5.8-0.3 10.1-7.4 9.6-15.9-0.5-8.5-5.6-15.1-11.4-14.7-5.8 0.3-10.1 7.4-9.6 15.9z"/><path class="f" d="m303.5 278c-63.3 0-114.5-51.2-114.5-114.5 0-63.3 51.2-114.5 114.5-114.5 63.3 0 114.5 51.2 114.5 114.5 0 63.3-51.2 114.5-114.5 114.5z"/></svg>