<svg xmlns="http://www.w3.org/2000/svg" viewBox="0 0 249.88 266.39"><defs><style>.cls-1{fill:#ebbc9f;}.cls-2{fill:#dd7f80;}.cls-3{fill:#a65f60;}.cls-4{fill:#79d4e6;}.cls-5{fill:#b95444;}.cls-6{fill:#b1a299;}</style></defs><title>Asset 51</title><g id="Layer_2" data-name="Layer 2"><g id="Layer_1-2" data-name="Layer 1"><rect class="cls-1" x="11.1" y="251.14" width="227.69" height="9.34"/><rect class="cls-2" x="11.1" y="241.8" width="227.69" height="9.34"/><rect class="cls-1" x="11.1" y="232.46" width="227.69" height="9.34"/><rect class="cls-2" x="11.1" y="223.13" width="227.69" height="9.34"/><rect class="cls-1" x="11.1" y="213.79" width="227.69" height="9.34"/><rect class="cls-2" x="11.1" y="204.45" width="227.69" height="9.34"/><rect class="cls-1" x="11.1" y="195.12" width="227.69" height="9.34"/><rect class="cls-2" x="11.1" y="185.78" width="227.69" height="9.34"/><rect class="cls-1" x="11.1" y="176.44" width="227.69" height="9.34"/><rect class="cls-2" x="11.1" y="167.11" width="227.69" height="9.34"/><rect class="cls-1" x="11.1" y="157.77" width="227.69" height="9.34"/><rect class="cls-2" x="11.1" y="148.44" width="227.69" height="9.34"/><rect class="cls-1" x="11.1" y="139.1" width="227.69" height="9.34"/><rect class="cls-2" x="11.1" y="129.76" width="227.69" height="9.34"/><rect class="cls-2" x="11.1" y="128.77" width="227.69" height="9.34"/><rect class="cls-1" x="11.1" y="119.43" width="227.69" height="9.34"/><rect class="cls-2" x="11.1" y="110.1" width="227.69" height="9.34"/><rect class="cls-1" x="11.1" y="100.76" width="227.69" height="9.34"/><rect class="cls-2" x="11.1" y="91.42" width="227.69" height="9.34"/><rect class="cls-1" x="11.1" y="82.09" width="227.69" height="9.34"/><rect class="cls-2" x="11.1" y="72.75" width="227.69" height="9.34"/><rect class="cls-1" x="11.1" y="63.41" width="227.69" height="9.34"/><rect class="cls-2" x="11.1" y="54.08" width="227.69" height="9.34"/><rect class="cls-1" x="11.1" y="26.07" width="227.69" height="9.34"/><rect class="cls-1" x="11.1" y="44.92" width="227.69" height="9.34"/><rect class="cls-2" x="11.1" y="35.4" width="227.69" height="9.34"/><rect class="cls-3" x="0.74" y="13.7" width="248.39" height="14.06"/><rect class="cls-2" x="105.92" y="199.79" width="37.34" height="60.69"/><rect class="cls-2" x="30.49" y="27.75" width="188.91" height="204.24"/><path class="cls-1" d="M63.25,225.52H39.31V196.23a12,12,0,0,1,12-12h0a12,12,0,0,1,12,12Z"/><path class="cls-4" d="M41.26,223.58V196.23a10,10,0,1,1,20,0v27.35Z"/><rect class="cls-1" x="50.49" y="185.16" width="1.59" height="39.75"/><rect class="cls-1" x="40.3" y="196.03" width="22" height="1.38"/><rect class="cls-1" x="40.3" y="201.27" width="22" height="1.38"/><path class="cls-1" d="M63.25,177.64H39.31V148.35a12,12,0,0,1,12-12h0a12,12,0,0,1,12,12Z"/><path class="cls-4" d="M41.26,175.7V148.35a10,10,0,1,1,20,0V175.7Z"/><rect class="cls-1" x="50.49" y="137.28" width="1.59" height="39.75"/><rect class="cls-1" x="40.3" y="148.15" width="22" height="1.38"/><rect class="cls-1" x="40.3" y="153.39" width="22" height="1.38"/><path class="cls-1" d="M98.18,225.52H74.25V196.23a12,12,0,0,1,12-12h0a12,12,0,0,1,12,12Z"/><path class="cls-4" d="M76.2,223.58V196.23a10,10,0,1,1,20,0v27.35Z"/><rect class="cls-1" x="85.42" y="185.16" width="1.59" height="39.75"/><rect class="cls-1" x="75.24" y="196.03" width="22" height="1.38"/><rect class="cls-1" x="75.24" y="201.27" width="22" height="1.38"/><path class="cls-1" d="M98.18,177.64H74.25V148.35a12,12,0,0,1,12-12h0a12,12,0,0,1,12,12Z"/><path class="cls-4" d="M76.2,175.7V148.35a10,10,0,1,1,20,0V175.7Z"/><rect class="cls-1" x="85.42" y="137.28" width="1.59" height="39.75"/><rect class="cls-1" x="75.24" y="148.15" width="22" height="1.38"/><rect class="cls-1" x="75.24" y="153.39" width="22" height="1.38"/><path class="cls-1" d="M175.63,225.52H151.7V196.23a12,12,0,0,1,12-12h0a12,12,0,0,1,12,12Z"/><path class="cls-4" d="M153.64,223.58V196.23a10,10,0,1,1,20,0v27.35Z"/><rect class="cls-1" x="162.87" y="185.16" width="1.59" height="39.75"/><rect class="cls-1" x="152.68" y="196.03" width="22" height="1.38"/><rect class="cls-1" x="152.68" y="201.27" width="22" height="1.38"/><path class="cls-1" d="M175.63,177.64H151.7V148.35a12,12,0,0,1,12-12h0a12,12,0,0,1,12,12Z"/><path class="cls-4" d="M153.64,175.7V148.35a10,10,0,1,1,20,0V175.7Z"/><rect class="cls-1" x="162.87" y="137.28" width="1.59" height="39.75"/><rect class="cls-1" x="152.68" y="148.15" width="22" height="1.38"/><rect class="cls-1" x="152.68" y="153.39" width="22" height="1.38"/><path class="cls-1" d="M136.84,177.64H112.91V148.35a12,12,0,0,1,12-12h0a12,12,0,0,1,12,12Z"/><path class="cls-4" d="M114.85,175.7V148.35a10,10,0,1,1,20.05,0V175.7Z"/><rect class="cls-1" x="124.08" y="137.28" width="1.59" height="39.75"/><rect class="cls-1" x="113.89" y="148.15" width="22" height="1.38"/><rect class="cls-1" x="113.89" y="153.39" width="22" height="1.38"/><path class="cls-1" d="M210.57,225.52H186.63V196.23a12,12,0,0,1,12-12h0a12,12,0,0,1,12,12Z"/><path class="cls-4" d="M188.58,223.58V196.23a10,10,0,1,1,20,0v27.35Z"/><rect class="cls-1" x="197.8" y="185.16" width="1.59" height="39.75"/><rect class="cls-1" x="187.62" y="196.03" width="22" height="1.38"/><rect class="cls-1" x="187.62" y="201.27" width="22" height="1.38"/><path class="cls-1" d="M210.57,177.64H186.63V148.35a12,12,0,0,1,12-12h0a12,12,0,0,1,12,12Z"/><path class="cls-4" d="M188.58,175.7V148.35a10,10,0,1,1,20,0V175.7Z"/><rect class="cls-1" x="197.8" y="137.28" width="1.59" height="39.75"/><rect class="cls-1" x="187.62" y="148.15" width="22" height="1.38"/><rect class="cls-1" x="187.62" y="153.39" width="22" height="1.38"/><path class="cls-1" d="M63.25,128H39.31V98.72a12,12,0,0,1,12-12h0a12,12,0,0,1,12,12Z"/><path class="cls-4" d="M41.26,126.08V98.72a10,10,0,0,1,20,0v27.36Z"/><rect class="cls-1" x="50.49" y="87.66" width="1.59" height="39.75"/><rect class="cls-1" x="40.3" y="98.52" width="22" height="1.38"/><rect class="cls-1" x="40.3" y="103.77" width="22" height="1.38"/><path class="cls-1" d="M98.18,128H74.25V98.72a12,12,0,0,1,12-12h0a12,12,0,0,1,12,12Z"/><path class="cls-4" d="M76.2,126.08V98.72a10,10,0,0,1,20,0v27.36Z"/><rect class="cls-1" x="85.42" y="87.66" width="1.59" height="39.75"/><rect class="cls-1" x="75.24" y="98.52" width="22" height="1.38"/><rect class="cls-1" x="75.24" y="103.77" width="22" height="1.38"/><path class="cls-1" d="M175.63,128H151.7V98.72a12,12,0,0,1,12-12h0a12,12,0,0,1,12,12Z"/><path class="cls-4" d="M153.64,126.08V98.72a10,10,0,0,1,20,0v27.36Z"/><rect class="cls-1" x="162.87" y="87.66" width="1.59" height="39.75"/><rect class="cls-1" x="152.68" y="98.52" width="22" height="1.38"/><rect class="cls-1" x="152.68" y="103.77" width="22" height="1.38"/><path class="cls-1" d="M136.84,128H112.91V98.72a12,12,0,0,1,12-12h0a12,12,0,0,1,12,12Z"/><path class="cls-4" d="M114.85,126.08V98.72a10,10,0,0,1,20.05,0v27.36Z"/><rect class="cls-1" x="124.08" y="87.66" width="1.59" height="39.75"/><rect class="cls-1" x="113.89" y="98.52" width="22" height="1.38"/><rect class="cls-1" x="113.89" y="103.77" width="22" height="1.38"/><path class="cls-1" d="M210.57,128H186.63V98.72a12,12,0,0,1,12-12h0a12,12,0,0,1,12,12Z"/><path class="cls-4" d="M188.58,126.08V98.72a10,10,0,0,1,20,0v27.36Z"/><rect class="cls-1" x="197.8" y="87.66" width="1.59" height="39.75"/><rect class="cls-1" x="187.62" y="98.52" width="22" height="1.38"/><rect class="cls-1" x="187.62" y="103.77" width="22" height="1.38"/><path class="cls-1" d="M63.25,78.39H39.31V49.1a12,12,0,0,1,12-12h0a12,12,0,0,1,12,12Z"/><path class="cls-4" d="M41.26,76.45V49.1a10,10,0,1,1,20,0V76.45Z"/><rect class="cls-1" x="50.49" y="38.03" width="1.59" height="39.75"/><rect class="cls-1" x="40.3" y="48.9" width="22" height="1.38"/><rect class="cls-1" x="40.3" y="54.14" width="22" height="1.38"/><path class="cls-1" d="M98.18,78.39H74.25V49.1a12,12,0,0,1,12-12h0a12,12,0,0,1,12,12Z"/><path class="cls-4" d="M76.2,76.45V49.1a10,10,0,1,1,20,0V76.45Z"/><rect class="cls-1" x="85.42" y="38.03" width="1.59" height="39.75"/><rect class="cls-1" x="75.24" y="48.9" width="22" height="1.38"/><rect class="cls-1" x="75.24" y="54.14" width="22" height="1.38"/><path class="cls-1" d="M175.63,78.39H151.7V49.1a12,12,0,0,1,12-12h0a12,12,0,0,1,12,12Z"/><path class="cls-4" d="M153.64,76.45V49.1a10,10,0,1,1,20,0V76.45Z"/><rect class="cls-1" x="162.87" y="38.03" width="1.59" height="39.75"/><rect class="cls-1" x="152.68" y="48.9" width="22" height="1.38"/><rect class="cls-1" x="152.68" y="54.14" width="22" height="1.38"/><path class="cls-1" d="M136.84,78.39H112.91V49.1a12,12,0,0,1,12-12h0a12,12,0,0,1,12,12Z"/><path class="cls-4" d="M114.85,76.45V49.1a10,10,0,1,1,20.05,0V76.45Z"/><rect class="cls-1" x="124.08" y="38.03" width="1.59" height="39.75"/><rect class="cls-1" x="113.89" y="48.9" width="22" height="1.38"/><rect class="cls-1" x="113.89" y="54.14" width="22" height="1.38"/><path class="cls-1" d="M210.57,78.39H186.63V49.1a12,12,0,0,1,12-12h0a12,12,0,0,1,12,12Z"/><path class="cls-4" d="M188.58,76.45V49.1a10,10,0,1,1,20,0V76.45Z"/><rect class="cls-1" x="197.8" y="38.03" width="1.59" height="39.75"/><rect class="cls-1" x="187.62" y="48.9" width="22" height="1.38"/><rect class="cls-1" x="187.62" y="54.14" width="22" height="1.38"/><rect class="cls-1" x="112.91" y="207.54" width="23.93" height="52.93"/><rect class="cls-5" x="99.27" y="201.19" width="14.45" height="5.39"/><rect class="cls-5" x="99.27" y="255.08" width="14.45" height="5.4"/><rect class="cls-3" x="101.6" y="206.42" width="9.8" height="48.65"/><rect class="cls-5" x="136.04" y="201.19" width="14.45" height="5.39"/><rect class="cls-5" x="136.04" y="255.08" width="14.45" height="5.4"/><rect class="cls-3" x="138.36" y="206.42" width="9.8" height="48.65"/><rect class="cls-3" x="99.27" y="197.41" width="51.21" height="3.79"/><rect class="cls-1" x="99.27" y="183.71" width="51.21" height="13.7"/><rect class="cls-1" x="63.12" width="123.51" height="13.7"/><rect class="cls-3" x="116.66" y="209.94" width="6.33" height="13.15"/><rect class="cls-3" x="126.76" y="209.94" width="6.33" height="13.15"/><rect class="cls-3" x="116.66" y="225.42" width="6.33" height="13.15"/><rect class="cls-3" x="126.76" y="225.42" width="6.33" height="13.15"/><rect class="cls-3" x="116.66" y="240.89" width="6.33" height="13.15"/><rect class="cls-3" x="126.76" y="240.89" width="6.33" height="13.15"/><rect class="cls-6" y="260.47" width="249.88" height="5.92"/></g></g></svg>