<svg xmlns="http://www.w3.org/2000/svg" viewBox="0 0 312.7 284.13"><defs><style>.cls-1{fill:#b08d77;}.cls-2{fill:#8d6044;}.cls-3{fill:#5b9fad;}.cls-4{fill:#447782;}.cls-5{fill:#79d4e6;}.cls-6{fill:#ebbc9f;}.cls-7{fill:#bc805b;}.cls-8{fill:#b95444;}.cls-9{fill:#a65f60;}.cls-10{fill:#b1a299;}</style></defs><title>Asset 31</title><g id="Layer_2" data-name="Layer 2"><g id="Layer_1-2" data-name="Layer 1"><path class="cls-1" d="M54.63,76.06a.55.55,0,0,1-.54-.48L51.23,51.31a.55.55,0,0,1,1.09-.12l2.86,24.26a.56.56,0,0,1-.48.61Z"/><path class="cls-1" d="M43.48,62.34a.18.18,0,0,1-.18-.16l-1.11-9.47a.17.17,0,0,1,.15-.2.2.2,0,0,1,.21.16l1.11,9.46a.2.2,0,0,1-.16.21Z"/><path class="cls-1" d="M45.89,62.34a.18.18,0,0,1-.18-.16l-1.12-9.47a.18.18,0,0,1,.36,0l1.12,9.46a.2.2,0,0,1-.16.21Z"/><path class="cls-1" d="M48.29,62.34a.18.18,0,0,1-.18-.16L47,52.71a.18.18,0,0,1,.16-.2.2.2,0,0,1,.21.16l1.11,9.46a.2.2,0,0,1-.16.21Z"/><path class="cls-1" d="M50.69,62.34a.18.18,0,0,1-.18-.16L49.4,52.71a.18.18,0,0,1,.36,0l1.12,9.46a.2.2,0,0,1-.16.21Z"/><path class="cls-1" d="M55.48,62.54a.18.18,0,0,1-.18-.17l-1.11-9.46a.18.18,0,0,1,.36,0l1.12,9.46a.18.18,0,0,1-.16.2Z"/><path class="cls-1" d="M57.89,62.54a.18.18,0,0,1-.18-.17l-1.12-9.46a.18.18,0,0,1,.36,0l1.12,9.46a.18.18,0,0,1-.16.2Z"/><path class="cls-1" d="M60.29,62.54a.18.18,0,0,1-.18-.17L59,52.91a.18.18,0,0,1,.36,0l1.11,9.46a.17.17,0,0,1-.15.2Z"/><path class="cls-1" d="M62.7,62.54a.18.18,0,0,1-.18-.17L61.4,52.91a.18.18,0,1,1,.36,0l1.12,9.46a.18.18,0,0,1-.16.2Z"/><path class="cls-1" d="M64.28,57.37H41.5a.19.19,0,0,1-.18-.19A.18.18,0,0,1,41.5,57H64.28a.18.18,0,0,1,.18.18A.19.19,0,0,1,64.28,57.37Z"/><path class="cls-1" d="M226.13,25.35a.54.54,0,0,1-.54-.48L222.73.61a.55.55,0,1,1,1.09-.13l2.86,24.26a.55.55,0,0,1-.48.61Z"/><path class="cls-1" d="M215,11.63a.18.18,0,0,1-.18-.16L213.68,2a.19.19,0,0,1,.37,0l1.11,9.47a.18.18,0,0,1-.16.2Z"/><path class="cls-1" d="M217.39,11.63a.18.18,0,0,1-.18-.16L216.09,2a.18.18,0,0,1,.16-.2.17.17,0,0,1,.2.15l1.12,9.47a.18.18,0,0,1-.16.2Z"/><path class="cls-1" d="M219.79,11.63a.18.18,0,0,1-.18-.16L218.49,2a.18.18,0,0,1,.16-.2.17.17,0,0,1,.2.15L220,11.43a.18.18,0,0,1-.16.2Z"/><path class="cls-1" d="M222.19,11.63a.18.18,0,0,1-.18-.16L220.9,2a.18.18,0,0,1,.16-.2.17.17,0,0,1,.2.15l1.12,9.47a.18.18,0,0,1-.16.2Z"/><path class="cls-1" d="M227,11.83a.18.18,0,0,1-.18-.16l-1.11-9.46a.19.19,0,0,1,.16-.21.18.18,0,0,1,.2.16l1.12,9.47a.18.18,0,0,1-.16.2Z"/><path class="cls-1" d="M229.39,11.83a.18.18,0,0,1-.18-.16l-1.12-9.46a.19.19,0,0,1,.16-.21.18.18,0,0,1,.2.16l1.12,9.47a.18.18,0,0,1-.16.2Z"/><path class="cls-1" d="M231.79,11.83a.18.18,0,0,1-.18-.16L230.5,2.21a.18.18,0,0,1,.16-.21.18.18,0,0,1,.2.16L232,11.63a.17.17,0,0,1-.16.2Z"/><path class="cls-1" d="M234.2,11.83a.18.18,0,0,1-.18-.16L232.9,2.21a.19.19,0,0,1,.16-.21.18.18,0,0,1,.2.16l1.12,9.47a.18.18,0,0,1-.16.2Z"/><path class="cls-1" d="M235.78,6.66H213a.18.18,0,0,1,0-.36h22.78a.18.18,0,1,1,0,.36Z"/><path class="cls-1" d="M146.73,61.87a.41.41,0,0,0,.39-.35L149.19,44a.4.4,0,0,0-.79-.09l-2.07,17.54a.41.41,0,0,0,.35.44Z"/><path class="cls-1" d="M154.79,52a.14.14,0,0,0,.13-.12l.8-6.84a.12.12,0,0,0-.11-.14.13.13,0,0,0-.15.11l-.8,6.84a.13.13,0,0,0,.11.15Z"/><path class="cls-1" d="M153.05,52a.14.14,0,0,0,.13-.12L154,45a.13.13,0,0,0-.12-.14.12.12,0,0,0-.14.11l-.81,6.84A.13.13,0,0,0,153,52Z"/><path class="cls-1" d="M151.31,52a.13.13,0,0,0,.13-.12l.81-6.84a.13.13,0,0,0-.26,0l-.81,6.84a.13.13,0,0,0,.12.15Z"/><path class="cls-1" d="M149.57,52a.12.12,0,0,0,.13-.12l.81-6.84a.12.12,0,0,0-.11-.14.13.13,0,0,0-.15.11l-.81,6.84a.14.14,0,0,0,.12.15Z"/><path class="cls-1" d="M146.11,52.09a.12.12,0,0,0,.13-.11l.81-6.84a.13.13,0,0,0-.12-.15.13.13,0,0,0-.14.12L146,52a.12.12,0,0,0,.12.14Z"/><path class="cls-1" d="M144.37,52.09a.12.12,0,0,0,.13-.11l.81-6.84a.13.13,0,0,0-.11-.15.14.14,0,0,0-.15.12L144.24,52a.13.13,0,0,0,.12.14Z"/><path class="cls-1" d="M142.64,52.09a.13.13,0,0,0,.13-.11l.8-6.84a.13.13,0,0,0-.11-.15.14.14,0,0,0-.15.12l-.8,6.84a.12.12,0,0,0,.11.14Z"/><path class="cls-1" d="M140.9,52.09A.13.13,0,0,0,141,52l.81-6.84a.15.15,0,0,0-.12-.15.14.14,0,0,0-.15.12l-.8,6.84a.12.12,0,0,0,.11.14Z"/><path class="cls-1" d="M139.76,48.36h16.46a.13.13,0,0,0,.13-.13.13.13,0,0,0-.13-.13H139.76a.12.12,0,0,0-.13.13A.13.13,0,0,0,139.76,48.36Z"/><rect class="cls-2" x="39.78" y="72.38" width="266.15" height="162.42"/><rect class="cls-3" y="125.8" width="48.77" height="86.21"/><rect class="cls-4" x="48.77" y="125.8" width="8.87" height="86.21"/><rect class="cls-5" x="1.44" y="127.69" width="22.05" height="39.66"/><rect class="cls-5" x="25.1" y="127.69" width="22.05" height="39.66"/><rect class="cls-5" x="1.44" y="168.91" width="22.05" height="42"/><rect class="cls-5" x="25.1" y="168.91" width="22.05" height="42"/><rect class="cls-5" x="49.86" y="127.69" width="6.06" height="39.66"/><rect class="cls-2" x="57.64" y="114.35" width="24.45" height="97.67"/><rect class="cls-5" x="49.86" y="168.91" width="6.06" height="42"/><rect class="cls-6" y="99.12" width="48.77" height="26.68"/><rect class="cls-6" y="212.01" width="79.56" height="15.83"/><rect class="cls-6" x="48.77" y="99.12" width="71.93" height="10.67"/><rect class="cls-1" x="48.77" y="109.79" width="8.87" height="16.01"/><rect class="cls-1" x="120.62" y="153.27" width="12.89" height="74.67"/><rect class="cls-1" x="57.64" y="109.79" width="24.45" height="4.56"/><rect class="cls-6" x="69.86" y="199.86" width="50.75" height="27.98"/><rect class="cls-6" x="96.06" y="153.27" width="24.55" height="46.6"/><rect class="cls-1" x="127.59" y="99.12" width="5.91" height="54.15"/><rect class="cls-1" x="120.7" y="99.12" width="6.9" height="10.8"/><rect class="cls-3" x="96.06" y="109.91" width="24.55" height="43.35"/><rect class="cls-4" x="120.62" y="109.91" width="6.98" height="43.35"/><rect class="cls-5" x="97.58" y="111.39" width="21.39" height="40.52"/><rect class="cls-3" x="82.09" y="153.27" width="13.98" height="46.6"/><rect class="cls-5" x="82.95" y="154.85" width="12.18" height="43.55"/><rect class="cls-5" x="121.68" y="111.39" width="5.38" height="40.52"/><rect class="cls-7" x="82.09" y="109.79" width="13.98" height="43.48"/><rect class="cls-1" x="39.78" y="85.82" width="93.73" height="13.3"/><rect class="cls-8" x="33.66" y="72.51" width="99.84" height="13.3"/><rect class="cls-8" x="133.63" y="59.08" width="49.8" height="13.3"/><rect class="cls-3" x="263.93" y="71.99" width="48.77" height="86.21"/><rect class="cls-4" x="255.06" y="71.99" width="8.87" height="86.21" transform="translate(519 230.19) rotate(180)"/><rect class="cls-5" x="289.22" y="73.88" width="22.05" height="39.66" transform="translate(600.49 187.42) rotate(180)"/><rect class="cls-5" x="265.55" y="73.88" width="22.05" height="39.66" transform="translate(553.15 187.42) rotate(180)"/><rect class="cls-5" x="289.22" y="115.1" width="22.05" height="42" transform="translate(600.49 272.19) rotate(180)"/><rect class="cls-5" x="265.55" y="115.1" width="22.05" height="42" transform="translate(553.15 272.19) rotate(180)"/><rect class="cls-5" x="256.79" y="73.88" width="6.06" height="39.66" transform="translate(519.63 187.42) rotate(180)"/><rect class="cls-2" x="230.62" y="60.54" width="24.45" height="97.67"/><rect class="cls-5" x="256.79" y="115.1" width="6.06" height="42" transform="translate(519.63 272.19) rotate(180)"/><rect class="cls-6" x="263.93" y="45.31" width="48.77" height="26.68"/><rect class="cls-6" x="233.14" y="158.2" width="79.56" height="15.83"/><rect class="cls-6" x="192.01" y="45.31" width="71.93" height="10.67" transform="translate(455.94 101.29) rotate(180)"/><rect class="cls-1" x="255.06" y="55.98" width="8.87" height="16.01" transform="translate(519 127.97) rotate(180)"/><rect class="cls-1" x="179.2" y="99.46" width="12.89" height="74.67" transform="translate(371.29 273.58) rotate(180)"/><rect class="cls-1" x="230.62" y="55.98" width="24.45" height="4.56" transform="translate(485.68 116.52) rotate(180)"/><rect class="cls-6" x="192.09" y="146.05" width="50.75" height="27.98" transform="translate(434.93 320.08) rotate(180)"/><rect class="cls-6" x="192.09" y="99.46" width="24.55" height="46.6" transform="translate(408.73 245.51) rotate(180)"/><rect class="cls-1" x="179.2" y="45.31" width="5.91" height="54.15" transform="translate(364.31 144.76) rotate(180)"/><rect class="cls-1" x="185.11" y="45.31" width="6.9" height="10.8" transform="translate(377.12 101.41) rotate(180)"/><rect class="cls-3" x="192.09" y="56.1" width="24.55" height="43.35"/><rect class="cls-4" x="185.11" y="56.1" width="6.98" height="43.35" transform="translate(377.2 155.56) rotate(180)"/><rect class="cls-5" x="193.73" y="57.58" width="21.39" height="40.52" transform="translate(408.85 155.68) rotate(180)"/><rect class="cls-3" x="216.64" y="99.46" width="13.98" height="46.6"/><rect class="cls-5" x="217.57" y="101.04" width="12.18" height="43.55" transform="translate(447.33 245.64) rotate(180)"/><rect class="cls-5" x="185.64" y="57.58" width="5.38" height="40.52" transform="translate(376.67 155.68) rotate(180)"/><rect class="cls-7" x="216.64" y="55.98" width="13.98" height="43.48"/><rect class="cls-1" x="179.2" y="32" width="92.12" height="13.3" transform="translate(450.52 77.31) rotate(180)"/><rect class="cls-8" x="179.2" y="18.7" width="99.84" height="13.3"/><rect class="cls-3" x="41.46" y="87.46" width="21.28" height="10.64"/><rect class="cls-3" x="64.52" y="87.46" width="21.28" height="10.64"/><rect class="cls-3" x="87.57" y="87.46" width="21.28" height="10.64"/><rect class="cls-3" x="110.62" y="87.46" width="21.28" height="10.64"/><rect class="cls-3" x="145.87" y="73.84" width="20.96" height="58.85"/><rect class="cls-3" x="145.87" y="161.17" width="20.96" height="58.86"/><rect class="cls-3" x="180.72" y="33.33" width="20.96" height="10.64"/><rect class="cls-3" x="203.43" y="33.33" width="20.96" height="10.64"/><rect class="cls-3" x="226.13" y="33.33" width="20.96" height="10.64"/><rect class="cls-3" x="248.84" y="33.33" width="20.96" height="10.64"/><rect class="cls-3" x="198.04" y="181.87" width="23.9" height="10.64"/><rect class="cls-3" x="223.93" y="181.87" width="23.9" height="10.64"/><rect class="cls-3" x="249.82" y="181.87" width="23.9" height="10.64"/><rect class="cls-3" x="275.71" y="181.87" width="23.9" height="10.64"/><rect class="cls-9" x="39.78" y="234.8" width="266.15" height="43.23"/><rect class="cls-3" x="100.61" y="237.98" width="23.9" height="10.64"/><rect class="cls-3" x="126.5" y="237.98" width="23.9" height="10.64"/><rect class="cls-3" x="152.39" y="237.98" width="23.9" height="10.64"/><rect class="cls-3" x="178.28" y="237.98" width="23.9" height="10.64"/><rect class="cls-6" x="217.57" y="238.86" width="82.67" height="39.16"/><rect class="cls-3" x="219.28" y="241" width="79.26" height="37.03"/><rect class="cls-5" x="257.53" y="240.93" width="0.9" height="37.13"/><rect class="cls-5" x="263.65" y="261.93" width="0.9" height="16.12"/><rect class="cls-5" x="251.25" y="261.93" width="0.9" height="16.12"/><rect class="cls-5" x="251.25" y="261.93" width="13.3" height="0.86"/><rect class="cls-10" x="1.44" y="277.73" width="311.27" height="6.4"/></g></g></svg>