<svg xmlns="http://www.w3.org/2000/svg" viewBox="0 0 365.42 274.76"><defs><style>.cls-1{fill:#5b9fad;}.cls-2{fill:#447782;}.cls-3{fill:#79d4e6;}.cls-4{fill:#b08d77;}.cls-5{fill:#ebbc9f;}.cls-6{fill:#b1a299;}</style></defs><title>Asset 81</title><g id="Layer_2" data-name="Layer 2"><g id="Layer_1-2" data-name="Layer 1"><rect class="cls-1" x="68.28" y="57.71" width="56.22" height="212.64"/><rect class="cls-2" x="123.25" y="11.24" width="118.28" height="259.1"/><rect class="cls-3" x="73.39" y="61.16" width="13.13" height="47.61"/><rect class="cls-3" x="89.15" y="61.16" width="13.13" height="47.61"/><rect class="cls-3" x="104.37" y="61.16" width="13.13" height="47.61"/><rect class="cls-3" x="73.39" y="113.18" width="13.13" height="149.19"/><rect class="cls-3" x="89.15" y="113.18" width="13.13" height="149.19"/><rect class="cls-3" x="104.37" y="113.18" width="13.13" height="149.19"/><rect class="cls-1" x="241.53" y="57.71" width="56.22" height="212.64"/><rect class="cls-3" x="246.65" y="61.16" width="13.13" height="47.61"/><rect class="cls-3" x="262.4" y="61.16" width="13.13" height="47.61"/><rect class="cls-3" x="277.63" y="61.16" width="13.13" height="47.61"/><rect class="cls-3" x="246.65" y="113.18" width="13.13" height="149.19"/><rect class="cls-3" x="262.4" y="113.18" width="13.13" height="149.19"/><rect class="cls-3" x="277.63" y="113.18" width="13.13" height="149.19"/><rect class="cls-2" x="297.76" y="126.75" width="56.22" height="143.59"/><rect class="cls-3" x="302.88" y="129.08" width="13.13" height="32.15"/><rect class="cls-3" x="318.63" y="129.08" width="13.13" height="32.15"/><rect class="cls-3" x="333.85" y="129.08" width="13.13" height="32.15"/><rect class="cls-3" x="302.88" y="164.21" width="13.13" height="100.75"/><rect class="cls-3" x="318.63" y="164.21" width="13.13" height="100.75"/><rect class="cls-3" x="333.85" y="164.21" width="13.13" height="100.75"/><rect class="cls-2" x="12.05" y="126.75" width="56.22" height="143.59"/><rect class="cls-3" x="17.17" y="129.08" width="13.13" height="32.15"/><rect class="cls-3" x="32.92" y="129.08" width="13.13" height="32.15"/><rect class="cls-3" x="48.15" y="129.08" width="13.13" height="32.15"/><rect class="cls-3" x="17.17" y="164.21" width="13.13" height="100.75"/><rect class="cls-3" x="32.92" y="164.21" width="13.13" height="100.75"/><rect class="cls-3" x="48.15" y="164.21" width="13.13" height="100.75"/><rect class="cls-3" x="137.45" y="15.44" width="13.13" height="58.02"/><rect class="cls-3" x="153.2" y="15.44" width="13.12" height="58.02"/><rect class="cls-3" x="168.42" y="15.44" width="13.13" height="58.02"/><rect class="cls-3" x="137.45" y="78.84" width="13.13" height="181.79"/><rect class="cls-3" x="153.2" y="78.84" width="13.12" height="181.79"/><rect class="cls-3" x="168.42" y="78.84" width="13.13" height="181.79"/><rect class="cls-3" x="185.23" y="15.44" width="13.12" height="58.02"/><rect class="cls-3" x="200.98" y="15.44" width="13.13" height="58.02"/><rect class="cls-3" x="216.2" y="15.44" width="13.13" height="58.02"/><rect class="cls-3" x="185.23" y="78.84" width="13.12" height="181.79"/><rect class="cls-3" x="200.98" y="78.84" width="13.13" height="181.79"/><rect class="cls-3" x="216.2" y="78.84" width="13.13" height="181.79"/><rect class="cls-4" x="12.05" y="122.16" width="56.22" height="4.59"/><rect class="cls-5" x="68.28" y="53.12" width="54.97" height="4.59"/><rect class="cls-5" x="241.48" y="53.12" width="56.28" height="4.59"/><rect class="cls-5" x="154.25" width="56.28" height="6.65"/><rect class="cls-4" x="80.48" y="46.46" width="30.45" height="6.65"/><rect class="cls-4" x="254.42" y="46.46" width="30.45" height="6.65"/><rect class="cls-5" x="309.96" y="115.51" width="30.45" height="6.65"/><rect class="cls-5" x="24.26" y="115.51" width="30.45" height="6.65"/><rect class="cls-4" x="297.76" y="122.16" width="56.22" height="4.59"/><rect class="cls-4" x="123.25" y="6.65" width="118.28" height="4.59"/><rect class="cls-6" y="270.34" width="365.42" height="4.42"/></g></g></svg>