<svg xmlns="http://www.w3.org/2000/svg" viewBox="0 0 294.06 162.44"><defs><style>.cls-1{fill:#dd7f80;}.cls-2{fill:#8d6044;}.cls-3{fill:#ebbc9f;}.cls-4{fill:#b95444;}.cls-5{fill:#79d4e6;}.cls-6{fill:#f7705a;}.cls-7{fill:#efefef;}.cls-8{fill:#5b9fad;}.cls-9{fill:#b1a299;}</style></defs><title>Asset 61</title><g id="Layer_2" data-name="Layer 2"><g id="Layer_1-2" data-name="Layer 1"><rect class="cls-1" x="55.82" y="14.47" width="181.49" height="41.8"/><rect class="cls-2" y="52.66" width="294.06" height="6.32"/><rect class="cls-2" y="75.27" width="294.06" height="6.32"/><rect class="cls-3" y="58.99" width="294.06" height="16.29"/><rect class="cls-2" x="47.15" width="199.76" height="3.16"/><rect class="cls-2" x="47.15" y="11.3" width="199.76" height="3.16"/><rect class="cls-3" x="47.15" y="3.16" width="199.76" height="8.14"/><rect class="cls-1" x="18.18" y="81.6" width="257.69" height="73.71"/><rect class="cls-4" x="31.06" y="98.33" width="32.11" height="46.45"/><rect class="cls-5" x="32.66" y="99.64" width="8.32" height="25.59"/><rect class="cls-5" x="42.74" y="99.64" width="8.32" height="25.59"/><rect class="cls-5" x="52.83" y="99.64" width="8.32" height="25.59"/><rect class="cls-5" x="32.66" y="126.95" width="8.32" height="14.52"/><rect class="cls-5" x="42.74" y="126.95" width="8.32" height="14.52"/><rect class="cls-5" x="52.83" y="126.95" width="8.32" height="14.52"/><rect class="cls-6" x="28.39" y="88.1" width="4.11" height="18.69"/><rect class="cls-7" x="32.51" y="88.1" width="4.11" height="18.69"/><rect class="cls-6" x="36.62" y="88.1" width="4.11" height="18.69"/><rect class="cls-7" x="40.73" y="88.1" width="4.11" height="18.69"/><rect class="cls-6" x="44.85" y="88.1" width="4.11" height="18.69"/><rect class="cls-7" x="48.96" y="88.1" width="4.11" height="18.69"/><rect class="cls-6" x="53.07" y="88.1" width="4.11" height="18.69"/><rect class="cls-6" x="61.3" y="88.1" width="4.11" height="18.69"/><rect class="cls-7" x="57.19" y="88.1" width="4.11" height="18.69"/><rect class="cls-4" x="88.81" y="98.33" width="32.11" height="46.45"/><rect class="cls-5" x="90.41" y="99.64" width="8.32" height="25.59"/><rect class="cls-5" x="100.5" y="99.64" width="8.32" height="25.59"/><rect class="cls-5" x="110.58" y="99.64" width="8.32" height="25.59"/><rect class="cls-5" x="90.41" y="126.95" width="8.32" height="14.52"/><rect class="cls-5" x="100.5" y="126.95" width="8.32" height="14.52"/><rect class="cls-5" x="110.58" y="126.95" width="8.32" height="14.52"/><rect class="cls-6" x="86.14" y="88.1" width="4.11" height="18.69"/><rect class="cls-7" x="90.26" y="88.1" width="4.11" height="18.69"/><rect class="cls-6" x="94.37" y="88.1" width="4.11" height="18.69"/><rect class="cls-7" x="98.48" y="88.1" width="4.11" height="18.69"/><rect class="cls-6" x="102.6" y="88.1" width="4.11" height="18.69"/><rect class="cls-7" x="106.71" y="88.1" width="4.11" height="18.69"/><rect class="cls-6" x="110.83" y="88.1" width="4.11" height="18.69"/><rect class="cls-6" x="119.05" y="88.1" width="4.11" height="18.69"/><rect class="cls-7" x="114.94" y="88.1" width="4.11" height="18.69"/><rect class="cls-4" x="146.57" y="98.33" width="32.11" height="46.45"/><rect class="cls-5" x="148.16" y="99.64" width="8.32" height="25.59"/><rect class="cls-5" x="158.25" y="99.64" width="8.32" height="25.59"/><rect class="cls-5" x="168.34" y="99.64" width="8.32" height="25.59"/><rect class="cls-5" x="148.16" y="126.95" width="8.32" height="14.52"/><rect class="cls-5" x="158.25" y="126.95" width="8.32" height="14.52"/><rect class="cls-5" x="168.34" y="126.95" width="8.32" height="14.52"/><rect class="cls-6" x="143.9" y="88.1" width="4.11" height="18.69"/><rect class="cls-7" x="148.01" y="88.1" width="4.11" height="18.69"/><rect class="cls-6" x="152.12" y="88.1" width="4.11" height="18.69"/><rect class="cls-7" x="156.24" y="88.1" width="4.11" height="18.69"/><rect class="cls-6" x="160.35" y="88.1" width="4.11" height="18.69"/><rect class="cls-7" x="164.46" y="88.1" width="4.11" height="18.69"/><rect class="cls-6" x="168.58" y="88.1" width="4.11" height="18.69"/><rect class="cls-6" x="176.8" y="88.1" width="4.11" height="18.69"/><rect class="cls-7" x="172.69" y="88.1" width="4.11" height="18.69"/><rect class="cls-4" x="196.36" y="88.1" width="72.32" height="67.2"/><rect class="cls-5" x="200.12" y="90.52" width="64.78" height="64.78"/><rect class="cls-8" x="231.97" y="90.52" width="1.1" height="64.78"/><rect class="cls-8" x="240.29" y="129.45" width="1.1" height="25.85"/><rect class="cls-8" x="223.74" y="129.45" width="1.1" height="25.85"/><rect class="cls-8" x="223.74" y="129.45" width="17.64" height="1.21"/><rect class="cls-6" x="191.73" y="84.52" width="4.8" height="21.8"/><rect class="cls-7" x="196.53" y="84.52" width="4.8" height="21.8"/><rect class="cls-6" x="201.33" y="84.52" width="4.8" height="21.8"/><rect class="cls-7" x="206.12" y="84.52" width="4.8" height="21.8"/><rect class="cls-6" x="210.92" y="84.52" width="4.8" height="21.8"/><rect class="cls-7" x="215.72" y="84.52" width="4.8" height="21.8"/><rect class="cls-6" x="220.52" y="84.52" width="4.8" height="21.8"/><rect class="cls-6" x="230.11" y="84.52" width="4.8" height="21.8"/><rect class="cls-7" x="225.32" y="84.52" width="4.8" height="21.8"/><rect class="cls-6" x="239.71" y="84.52" width="4.8" height="21.8"/><rect class="cls-7" x="234.91" y="84.52" width="4.8" height="21.8"/><rect class="cls-6" x="249.31" y="84.52" width="4.8" height="21.8"/><rect class="cls-7" x="244.51" y="84.52" width="4.8" height="21.8"/><rect class="cls-6" x="258.9" y="84.52" width="4.8" height="21.8"/><rect class="cls-7" x="254.1" y="84.52" width="4.8" height="21.8"/><rect class="cls-6" x="268.5" y="84.52" width="4.8" height="21.8"/><rect class="cls-7" x="263.7" y="84.52" width="4.8" height="21.8"/><rect class="cls-9" y="155.3" width="294.06" height="7.14"/><rect class="cls-4" x="61.89" y="23.68" width="82.28" height="21.14"/><rect class="cls-5" x="64.56" y="25.88" width="23.75" height="16.47"/><rect class="cls-5" x="91.12" y="25.88" width="23.75" height="16.47"/><rect class="cls-5" x="117.69" y="25.88" width="23.75" height="16.47"/><rect class="cls-4" x="148.96" y="23.68" width="82.28" height="21.14"/><rect class="cls-5" x="151.64" y="25.88" width="23.75" height="16.47"/><rect class="cls-5" x="178.2" y="25.88" width="23.75" height="16.47"/><rect class="cls-5" x="204.76" y="25.88" width="23.75" height="16.47"/></g></g></svg>