<svg xmlns="http://www.w3.org/2000/svg" viewBox="0 0 228.69 283.23"><defs><style>.cls-1{fill:#ebbc9f;}.cls-2{fill:#8d6044;}.cls-3{fill:#a65f60;}.cls-4{fill:#79d4e6;}.cls-5,.cls-8{fill:#5b9fad;}.cls-6{fill:#bc805b;}.cls-7{fill:#b08d77;}.cls-8{opacity:0.3;}.cls-9{fill:#b1a299;}</style></defs><title>Asset 71</title><g id="Layer_2" data-name="Layer 2"><g id="Layer_1-2" data-name="Layer 1"><rect class="cls-1" x="18.39" y="208.22" width="191.9" height="71.41"/><path class="cls-2" d="M133.31,239.82v39.81H95.37V239.82a19,19,0,1,1,37.94,0Z"/><path class="cls-3" d="M130.75,279.63H97.93V240a16.41,16.41,0,0,1,16.41-16.41h0A16.41,16.41,0,0,1,130.75,240Z"/><path class="cls-4" d="M71.86,271.19H39V233.07a16.41,16.41,0,0,1,16.41-16.41h0a16.41,16.41,0,0,1,16.41,16.41Z"/><path class="cls-5" d="M55,233.35H40.17a.28.28,0,0,1,0-.56H55a.28.28,0,0,1,0,.56Z"/><path class="cls-5" d="M54.91,233.08l-12.84-7.42a.27.27,0,1,1,.27-.47l12.85,7.41a.28.28,0,0,1-.28.48Z"/><path class="cls-5" d="M55,232.81,47.55,220a.27.27,0,0,1,.1-.38.27.27,0,0,1,.37.1l7.42,12.85a.28.28,0,0,1-.1.38A.29.29,0,0,1,55,232.81Z"/><path class="cls-5" d="M55.15,269.81V218.44c0-.53.12-1,.27-1s.28.43.28,1v51.37c0,.53-.13,1-.28,1S55.15,270.34,55.15,269.81Z"/><path class="cls-5" d="M55.41,232.5l7.42-12.85a.27.27,0,0,1,.37-.1.28.28,0,0,1,.11.38l-7.42,12.85a.29.29,0,0,1-.38.1A.28.28,0,0,1,55.41,232.5Z"/><path class="cls-5" d="M55.68,232.55l12.85-7.42a.29.29,0,0,1,.38.1.27.27,0,0,1-.1.38L56,233a.28.28,0,0,1-.38-.1A.29.29,0,0,1,55.68,232.55Z"/><path class="cls-5" d="M55.9,232.73H70.73a.28.28,0,1,1,0,.56H55.9a.28.28,0,1,1,0-.56Z"/><path class="cls-4" d="M189.86,271.19H157.05V233.07a16.41,16.41,0,0,1,16.4-16.41h0a16.41,16.41,0,0,1,16.41,16.41Z"/><path class="cls-5" d="M173,233.35H158.17a.28.28,0,0,1,0-.56H173a.28.28,0,0,1,0,.56Z"/><path class="cls-5" d="M172.91,233.08l-12.84-7.42a.27.27,0,1,1,.27-.47l12.85,7.41a.28.28,0,0,1,.1.38A.27.27,0,0,1,172.91,233.08Z"/><path class="cls-5" d="M173,232.81,165.55,220a.28.28,0,0,1,.1-.38.29.29,0,0,1,.38.1l7.41,12.85a.27.27,0,0,1-.1.38A.29.29,0,0,1,173,232.81Z"/><path class="cls-5" d="M173.15,269.81V218.44c0-.53.12-1,.27-1s.28.43.28,1v51.37c0,.53-.12,1-.28,1S173.15,270.34,173.15,269.81Z"/><path class="cls-5" d="M173.41,232.5l7.42-12.85a.28.28,0,0,1,.38-.1.29.29,0,0,1,.1.38l-7.42,12.85a.29.29,0,0,1-.38.1A.28.28,0,0,1,173.41,232.5Z"/><path class="cls-5" d="M173.68,232.55l12.85-7.42a.29.29,0,0,1,.38.1.27.27,0,0,1-.1.38L174,233a.28.28,0,0,1-.38-.1A.29.29,0,0,1,173.68,232.55Z"/><path class="cls-5" d="M173.9,232.73h14.83a.28.28,0,1,1,0,.56H173.9a.28.28,0,1,1,0-.56Z"/><rect class="cls-2" x="113.82" y="221.85" width="1.09" height="57.78"/><rect class="cls-2" x="10.35" y="204.75" width="207.98" height="3.47"/><rect class="cls-6" x="10.35" y="201.28" width="207.98" height="3.47"/><rect class="cls-2" x="2.91" y="195.42" width="222.86" height="5.86"/><rect class="cls-6" x="2.91" y="189.56" width="222.86" height="5.86"/><rect class="cls-7" x="22.38" y="244.13" width="10.13" height="4.45"/><rect class="cls-7" x="24.39" y="249.35" width="10.13" height="4.45"/><rect class="cls-7" x="77.54" y="223.83" width="10.13" height="4.45"/><rect class="cls-7" x="79.55" y="229.06" width="10.13" height="4.45"/><rect class="cls-7" x="138.1" y="246.75" width="10.13" height="4.45"/><rect class="cls-7" x="140.11" y="251.98" width="10.13" height="4.45"/><rect class="cls-7" x="192.63" y="217.01" width="10.13" height="4.45"/><rect class="cls-7" x="194.64" y="222.24" width="10.13" height="4.45"/><rect class="cls-5" x="28.98" y="8.2" width="170.73" height="181.36"/><rect class="cls-4" x="33.39" y="169.74" width="52.34" height="17.73"/><rect class="cls-4" x="88.39" y="169.74" width="52.34" height="17.73"/><rect class="cls-4" x="143.38" y="169.74" width="52.34" height="17.73"/><rect class="cls-4" x="33.39" y="149.91" width="52.34" height="17.74"/><rect class="cls-4" x="88.39" y="149.91" width="52.34" height="17.74"/><rect class="cls-4" x="143.38" y="149.91" width="52.34" height="17.74"/><rect class="cls-4" x="33.39" y="130.09" width="52.34" height="17.73"/><rect class="cls-4" x="88.39" y="130.09" width="52.34" height="17.73"/><rect class="cls-4" x="143.38" y="130.09" width="52.34" height="17.73"/><rect class="cls-4" x="33.39" y="110.26" width="52.34" height="17.74"/><rect class="cls-4" x="88.39" y="110.26" width="52.34" height="17.74"/><rect class="cls-4" x="143.38" y="110.26" width="52.34" height="17.74"/><rect class="cls-4" x="33.39" y="90.44" width="52.34" height="17.73"/><rect class="cls-4" x="88.39" y="90.44" width="52.34" height="17.73"/><rect class="cls-4" x="143.38" y="90.44" width="52.34" height="17.73"/><rect class="cls-4" x="33.39" y="70.61" width="52.34" height="17.74"/><rect class="cls-4" x="88.39" y="70.61" width="52.34" height="17.74"/><rect class="cls-4" x="143.38" y="70.61" width="52.34" height="17.74"/><rect class="cls-4" x="33.39" y="50.79" width="52.34" height="17.73"/><rect class="cls-4" x="88.39" y="50.79" width="52.34" height="17.73"/><rect class="cls-4" x="143.38" y="50.79" width="52.34" height="17.73"/><rect class="cls-4" x="33.39" y="30.97" width="52.34" height="17.73"/><rect class="cls-4" x="88.39" y="30.97" width="52.34" height="17.73"/><rect class="cls-4" x="143.38" y="30.97" width="52.34" height="17.73"/><rect class="cls-4" x="33.39" y="11.14" width="52.34" height="17.73"/><rect class="cls-4" x="88.39" y="11.14" width="52.34" height="17.73"/><rect class="cls-4" x="143.38" y="11.14" width="52.34" height="17.73"/><polygon class="cls-8" points="33.39 90.44 42.66 90.44 33.39 106.5 33.39 90.44"/><polygon class="cls-8" points="33.39 70.61 54.1 70.61 43.87 88.35 33.39 88.35 33.39 70.61"/><polygon class="cls-8" points="65.55 50.79 55.31 68.52 33.39 68.52 33.39 54.63 35.6 50.79 65.55 50.79"/><polygon class="cls-8" points="77 30.97 66.76 48.7 36.81 48.7 47.05 30.97 77 30.97"/><polygon class="cls-8" points="85.73 11.14 85.73 15.83 78.2 28.87 48.26 28.87 58.5 11.14 85.73 11.14"/><polygon class="cls-8" points="88.44 11.14 88.39 11.24 88.39 11.14 88.44 11.14"/><polygon class="cls-8" points="80.29 68.52 85.73 59.09 85.73 68.52 80.29 68.52"/><polygon class="cls-8" points="79.08 70.61 85.73 70.61 85.73 88.35 68.84 88.35 79.08 70.61"/><polygon class="cls-8" points="67.64 90.44 85.73 90.44 85.73 108.17 57.4 108.17 67.64 90.44"/><polygon class="cls-8" points="33.39 169.74 51.8 169.74 41.56 187.47 33.39 187.47 33.39 169.74"/><polygon class="cls-8" points="33.39 149.91 63.25 149.91 53.01 167.65 33.39 167.65 33.39 149.91"/><polygon class="cls-8" points="74.69 130.09 64.45 147.82 34.51 147.82 44.74 130.09 74.69 130.09"/><polygon class="cls-8" points="85.73 110.26 85.73 110.96 75.89 128 45.95 128 56.19 110.26 85.73 110.26"/><polygon class="cls-8" points="88.39 90.44 97.58 90.44 88.39 106.36 88.39 90.44"/><polygon class="cls-8" points="88.39 70.61 109.03 70.61 98.79 88.35 88.39 88.35 88.39 70.61"/><polygon class="cls-8" points="120.47 50.79 110.24 68.52 88.39 68.52 88.39 54.5 90.53 50.79 120.47 50.79"/><polygon class="cls-8" points="131.92 30.97 121.68 48.7 91.73 48.7 101.97 30.97 131.92 30.97"/><polygon class="cls-8" points="140.73 11.14 140.73 15.7 133.13 28.87 103.18 28.87 113.42 11.14 140.73 11.14"/><polygon class="cls-8" points="77.98 167.65 85.73 154.22 85.73 167.65 77.98 167.65"/><polygon class="cls-8" points="76.78 169.74 85.73 169.74 85.73 187.47 66.57 187.47 66.55 187.45 76.78 169.74"/><polygon class="cls-8" points="88.39 169.74 106.72 169.74 96.48 187.47 88.39 187.47 88.39 169.74"/><polygon class="cls-8" points="88.39 149.91 118.17 149.91 107.93 167.65 88.39 167.65 88.39 149.91"/><polygon class="cls-8" points="99.67 130.09 129.61 130.09 119.38 147.82 89.43 147.82 99.67 130.09"/><polygon class="cls-8" points="135.21 68.52 140.73 58.97 140.73 68.52 135.21 68.52"/><polygon class="cls-8" points="134.01 70.61 140.73 70.61 140.73 88.35 123.77 88.35 134.01 70.61"/><polygon class="cls-8" points="122.56 90.44 140.73 90.44 140.73 108.17 112.32 108.17 122.56 90.44"/><polygon class="cls-8" points="111.12 110.26 140.73 110.26 140.73 110.83 130.82 128 100.87 128 111.12 110.26"/><polygon class="cls-8" points="143.38 90.44 152.5 90.44 143.38 106.23 143.38 90.44"/><polygon class="cls-8" points="143.38 70.61 163.95 70.61 153.71 88.35 143.38 88.35 143.38 70.61"/><polygon class="cls-8" points="156.9 30.97 186.84 30.97 176.6 48.7 175.4 50.79 165.16 68.52 143.38 68.52 143.38 54.37 145.45 50.79 146.66 48.7 156.9 30.97"/><polygon class="cls-8" points="195.73 11.14 195.73 15.57 188.05 28.87 158.11 28.87 168.34 11.14 195.73 11.14"/><polygon class="cls-8" points="132.91 167.65 140.73 154.09 140.73 167.65 132.91 167.65"/><polygon class="cls-8" points="131.7 169.74 140.73 169.74 140.73 187.47 121.46 187.47 131.7 169.74"/><polygon class="cls-8" points="143.38 169.74 161.65 169.74 151.41 187.47 143.38 187.47 143.38 169.74"/><polygon class="cls-8" points="143.38 149.91 173.09 149.91 162.85 167.65 143.38 167.65 143.38 149.91"/><polygon class="cls-8" points="154.59 130.09 184.54 130.09 174.3 147.82 144.35 147.82 154.59 130.09"/><polygon class="cls-8" points="195.73 58.83 195.73 68.52 190.14 68.52 195.73 58.83"/><polygon class="cls-8" points="188.93 70.61 195.73 70.61 195.73 88.35 178.69 88.35 188.93 70.61"/><polygon class="cls-8" points="177.48 90.44 195.73 90.44 195.73 108.17 167.24 108.17 177.48 90.44"/><polygon class="cls-8" points="166.04 110.26 195.73 110.26 195.73 110.7 185.74 128 155.8 128 166.04 110.26"/><polygon class="cls-8" points="195.73 153.96 195.73 167.65 187.83 167.65 195.73 153.96"/><polygon class="cls-8" points="186.62 169.74 195.73 169.74 195.73 187.47 176.38 187.47 186.62 169.74"/><rect class="cls-6" x="56.9" width="105.9" height="8.2"/><rect class="cls-9" y="279.63" width="228.69" height="3.59"/></g></g></svg>