<svg xmlns="http://www.w3.org/2000/svg" viewBox="0 0 174.17 280.53"><defs><style>.cls-1{fill:#b08d77;}.cls-2{fill:#ebbc9f;}.cls-3{fill:#f7705a;}.cls-4{fill:#b95444;}.cls-5{fill:#79d4e6;}.cls-6{fill:#5b9fad;}.cls-7{fill:#8b3f33;}.cls-8{fill:#b1a299;}</style></defs><title>Asset 121</title><g id="Layer_2" data-name="Layer 2"><g id="Layer_1-2" data-name="Layer 1"><path class="cls-1" d="M20.38,34a.63.63,0,0,1-.62-.56L16.47,5.55a.62.62,0,1,1,1.24-.15L21,33.3a.62.62,0,0,1-.55.7Z"/><path class="cls-1" d="M7.55,18.23a.21.21,0,0,1-.2-.19L6.06,7.16a.22.22,0,0,1,.19-.24.21.21,0,0,1,.23.19L7.76,18a.22.22,0,0,1-.18.24Z"/><path class="cls-1" d="M10.32,18.23a.21.21,0,0,1-.21-.19L8.83,7.16A.21.21,0,0,1,9,6.92a.21.21,0,0,1,.23.19L10.53,18a.22.22,0,0,1-.19.24Z"/><path class="cls-1" d="M13.08,18.23a.21.21,0,0,1-.2-.19L11.59,7.16a.22.22,0,0,1,.19-.24.21.21,0,0,1,.23.19L13.29,18a.21.21,0,0,1-.18.24Z"/><path class="cls-1" d="M15.85,18.23a.21.21,0,0,1-.21-.19L14.36,7.16a.21.21,0,0,1,.18-.24.21.21,0,0,1,.23.19L16.06,18a.22.22,0,0,1-.19.24Z"/><path class="cls-1" d="M21.36,18.45a.2.2,0,0,1-.21-.18L19.87,7.38a.2.2,0,0,1,.18-.23.21.21,0,0,1,.23.19l1.29,10.88a.21.21,0,0,1-.19.23Z"/><path class="cls-1" d="M24.12,18.45a.21.21,0,0,1-.21-.18L22.63,7.38a.21.21,0,1,1,.42,0l1.28,10.88a.21.21,0,0,1-.18.23Z"/><path class="cls-1" d="M26.89,18.45a.2.2,0,0,1-.21-.18L25.4,7.38a.2.2,0,0,1,.18-.23.21.21,0,0,1,.23.19l1.28,10.88a.19.19,0,0,1-.18.23Z"/><path class="cls-1" d="M29.65,18.45a.2.2,0,0,1-.2-.18L28.16,7.38a.22.22,0,0,1,.18-.23.22.22,0,0,1,.24.19l1.28,10.88a.21.21,0,0,1-.18.23Z"/><path class="cls-1" d="M31.47,12.51H5.27a.21.21,0,0,1,0-.42h26.2a.21.21,0,1,1,0,.42Z"/><rect class="cls-2" x="4.03" y="31.18" width="128.31" height="243.97"/><path class="cls-1" d="M108.88,17.51a.39.39,0,0,0,.38-.34l2-16.75A.37.37,0,0,0,110.9,0a.39.39,0,0,0-.42.33l-2,16.75a.37.37,0,0,0,.33.42Z"/><path class="cls-1" d="M116.58,8a.13.13,0,0,0,.13-.11l.77-6.53a.12.12,0,0,0-.11-.14.12.12,0,0,0-.14.11l-.77,6.53a.12.12,0,0,0,.11.14Z"/><path class="cls-1" d="M114.92,8a.13.13,0,0,0,.13-.11l.77-6.53a.12.12,0,0,0-.11-.14.12.12,0,0,0-.14.11l-.77,6.53a.12.12,0,0,0,.11.14Z"/><path class="cls-1" d="M113.26,8a.13.13,0,0,0,.13-.11l.77-6.53a.12.12,0,0,0-.11-.14.12.12,0,0,0-.14.11l-.77,6.53a.12.12,0,0,0,.11.14Z"/><path class="cls-1" d="M111.6,8a.13.13,0,0,0,.13-.11l.77-6.53a.12.12,0,0,0-.11-.14.12.12,0,0,0-.14.11l-.77,6.53a.12.12,0,0,0,.11.14Z"/><path class="cls-1" d="M108.3,8.17a.13.13,0,0,0,.12-.11l.77-6.54a.13.13,0,0,0-.25,0L108.17,8a.13.13,0,0,0,.11.14Z"/><path class="cls-1" d="M106.64,8.17a.13.13,0,0,0,.12-.11l.77-6.54a.13.13,0,0,0-.25,0L106.51,8a.12.12,0,0,0,.11.14Z"/><path class="cls-1" d="M105,8.17a.13.13,0,0,0,.12-.11l.77-6.54a.13.13,0,0,0-.25,0L104.85,8a.12.12,0,0,0,.11.14Z"/><path class="cls-1" d="M103.32,8.17a.13.13,0,0,0,.12-.11l.77-6.54a.13.13,0,0,0-.25,0L103.19,8a.12.12,0,0,0,.11.14Z"/><path class="cls-1" d="M102.23,4.6H118a.13.13,0,0,0,.13-.13.12.12,0,0,0-.13-.12H102.23a.12.12,0,0,0-.13.12A.13.13,0,0,0,102.23,4.6Z"/><rect class="cls-1" x="132.34" y="31.18" width="37.05" height="243.97"/><rect class="cls-3" x="37.46" y="15.52" width="79.23" height="15.66"/><rect class="cls-4" x="116.69" y="15.52" width="22.88" height="15.66"/><rect class="cls-5" x="19.46" y="46.39" width="16.19" height="17.62"/><rect class="cls-6" x="19.46" y="64.01" width="16.19" height="8.81"/><rect class="cls-5" x="60.09" y="46.39" width="16.19" height="17.62"/><rect class="cls-6" x="60.09" y="64.01" width="16.19" height="8.81"/><rect class="cls-5" x="100.71" y="46.39" width="16.19" height="17.62"/><rect class="cls-6" x="100.71" y="64.01" width="16.19" height="8.81"/><rect class="cls-5" x="19.46" y="105.9" width="16.19" height="17.62"/><rect class="cls-6" x="19.46" y="123.52" width="16.19" height="8.81"/><rect class="cls-5" x="60.09" y="105.9" width="16.19" height="17.62"/><rect class="cls-6" x="60.09" y="123.52" width="16.19" height="8.81"/><rect class="cls-5" x="100.71" y="105.9" width="16.19" height="17.62"/><rect class="cls-6" x="100.71" y="123.52" width="16.19" height="8.81"/><rect class="cls-5" x="19.46" y="165.4" width="16.19" height="17.62"/><rect class="cls-6" x="19.46" y="183.02" width="16.19" height="8.81"/><rect class="cls-5" x="60.09" y="165.4" width="16.19" height="17.62"/><rect class="cls-6" x="60.09" y="183.02" width="16.19" height="8.81"/><rect class="cls-5" x="100.71" y="165.4" width="16.19" height="17.62"/><rect class="cls-6" x="100.71" y="183.02" width="16.19" height="8.81"/><rect class="cls-5" x="19.46" y="224.9" width="16.19" height="17.62"/><rect class="cls-6" x="19.46" y="242.52" width="16.19" height="8.81"/><rect class="cls-5" x="62.95" y="224.9" width="16.19" height="17.62"/><rect class="cls-6" x="62.95" y="242.52" width="16.19" height="8.81"/><rect class="cls-5" x="100.71" y="224.9" width="16.19" height="17.62"/><rect class="cls-6" x="100.71" y="242.52" width="16.19" height="8.81"/><rect class="cls-1" x="38.21" y="271.24" width="59.94" height="3.92"/><rect class="cls-1" x="46.42" y="267.32" width="43.52" height="3.92"/><rect class="cls-1" x="53.65" y="263.41" width="29.07" height="3.92"/><rect class="cls-4" x="55.16" y="223.65" width="26.05" height="39.76"/><rect class="cls-4" y="85.52" width="136.9" height="7.68"/><rect class="cls-7" x="136.9" y="85.52" width="37.27" height="7.68"/><rect class="cls-4" y="145.02" width="136.9" height="7.68"/><rect class="cls-7" x="136.9" y="145.02" width="37.27" height="7.68"/><rect class="cls-4" y="203.9" width="136.9" height="7.68"/><rect class="cls-7" x="136.9" y="203.9" width="37.27" height="7.68"/><rect class="cls-7" x="58.24" y="226.44" width="8.43" height="7.84"/><rect class="cls-7" x="69.77" y="226.44" width="8.43" height="7.84"/><rect class="cls-7" x="58.24" y="236.78" width="8.43" height="7.84"/><rect class="cls-7" x="69.77" y="236.78" width="8.43" height="7.84"/><rect class="cls-7" x="58.24" y="247.1" width="19.95" height="13.91"/><rect class="cls-1" x="41.87" y="189.2" width="7.46" height="2.63"/><rect class="cls-1" x="38.14" y="192.36" width="7.46" height="2.63"/><rect class="cls-1" x="86.14" y="160.89" width="7.45" height="2.63"/><rect class="cls-1" x="82.42" y="164.06" width="7.46" height="2.63"/><rect class="cls-1" x="91.73" y="219.11" width="7.46" height="2.63"/><rect class="cls-1" x="88.01" y="222.27" width="7.46" height="2.63"/><rect class="cls-1" x="25.7" y="257.62" width="7.46" height="2.63"/><rect class="cls-1" x="21.97" y="260.78" width="7.46" height="2.63"/><rect class="cls-1" x="46.01" y="104.01" width="7.46" height="2.63"/><rect class="cls-1" x="42.28" y="107.17" width="7.45" height="2.63"/><rect class="cls-1" x="88.01" y="131.04" width="7.46" height="2.63"/><rect class="cls-1" x="84.28" y="134.2" width="7.46" height="2.63"/><rect class="cls-1" x="88.01" y="67.04" width="7.46" height="2.63"/><rect class="cls-1" x="84.28" y="70.2" width="7.46" height="2.63"/><rect class="cls-1" x="46.01" y="46.39" width="7.46" height="2.63"/><rect class="cls-1" x="42.28" y="49.56" width="7.45" height="2.63"/><rect class="cls-8" y="275.16" width="174.17" height="5.37"/></g></g></svg>