<svg xmlns="http://www.w3.org/2000/svg" viewBox="0 0 240.41 214.39"><defs><style>.cls-1{fill:#5b9fad;}.cls-2{fill:#447782;}.cls-3{fill:#79d4e6;}.cls-4{opacity:0.3;}.cls-5{fill:#ebbc9f;}.cls-6{fill:#b08d77;}.cls-7{fill:#f7705a;}.cls-8{fill:#b95444;}.cls-9{fill:#bc805b;}.cls-10{fill:#8d6044;}.cls-11{fill:#b1a299;}</style></defs><title>Asset 111</title><g id="Layer_2" data-name="Layer 2"><g id="Layer_1-2" data-name="Layer 1"><rect class="cls-1" x="10.13" y="7.1" width="172.3" height="135.37"/><rect class="cls-2" x="182.43" y="7.1" width="46.57" height="135.37"/><rect class="cls-3" x="14.8" y="11.81" width="37.25" height="28.26"/><rect class="cls-3" x="56.71" y="11.81" width="37.25" height="28.26"/><rect class="cls-3" x="98.61" y="11.81" width="37.25" height="28.26"/><rect class="cls-3" x="140.51" y="11.81" width="37.25" height="28.26"/><rect class="cls-3" x="14.8" y="44.37" width="37.25" height="28.25"/><rect class="cls-3" x="56.71" y="44.37" width="37.25" height="28.25"/><rect class="cls-3" x="98.61" y="44.37" width="37.25" height="28.25"/><rect class="cls-3" x="140.51" y="44.37" width="37.25" height="28.25"/><rect class="cls-3" x="14.8" y="76.94" width="37.25" height="28.25"/><rect class="cls-3" x="56.71" y="76.94" width="37.25" height="28.25"/><rect class="cls-3" x="98.61" y="76.94" width="37.25" height="28.25"/><rect class="cls-3" x="140.51" y="76.94" width="37.25" height="28.25"/><rect class="cls-3" x="14.8" y="109.5" width="37.25" height="28.26"/><rect class="cls-3" x="56.71" y="109.5" width="37.25" height="28.26"/><rect class="cls-3" x="98.61" y="109.5" width="37.25" height="28.26"/><rect class="cls-3" x="140.51" y="109.5" width="37.25" height="28.26"/><g class="cls-4"><polygon class="cls-1" points="14.8 76.94 30.11 76.94 14.8 103.44 14.8 76.94"/></g><g class="cls-4"><polygon class="cls-1" points="17.94 44.37 48.91 44.37 32.6 72.63 14.8 72.63 14.8 49.81 17.94 44.37"/></g><g class="cls-4"><polygon class="cls-1" points="52.05 11.81 52.05 38.93 51.4 40.06 20.43 40.06 36.75 11.81 52.05 11.81"/></g><g class="cls-4"><polygon class="cls-1" points="67.71 11.81 56.7 30.87 56.7 11.81 67.71 11.81"/></g><g class="cls-4"><polygon class="cls-1" points="91.39 11.81 93.95 11.81 93.95 40.06 75.08 40.06 91.39 11.81"/></g><g class="cls-4"><polygon class="cls-1" points="37.48 105.19 52.05 79.95 52.05 105.19 37.48 105.19"/></g><g class="cls-4"><polygon class="cls-1" points="34.99 109.5 52.05 109.5 52.05 133.59 49.64 137.76 18.67 137.76 34.99 109.5"/></g><g class="cls-4"><polygon class="cls-1" points="56.7 109.5 65.96 109.5 56.7 125.53 56.7 109.5"/></g><g class="cls-4"><polygon class="cls-1" points="56.7 76.94 84.76 76.94 68.44 105.19 56.7 105.19 56.7 76.94"/></g><g class="cls-4"><polygon class="cls-1" points="93.95 44.37 93.95 61.01 87.25 72.63 56.7 72.63 56.7 71.89 72.59 44.37 93.95 44.37"/></g><g class="cls-4"><polygon class="cls-1" points="98.61 44.37 103.56 44.37 98.61 52.94 98.61 44.37"/></g><g class="cls-4"><polygon class="cls-1" points="122.36 11.81 106.05 40.06 98.61 40.06 98.61 11.81 122.36 11.81"/></g><g class="cls-4"><polygon class="cls-1" points="92.13 105.19 93.95 102.03 93.95 105.19 92.13 105.19"/></g><g class="cls-4"><polygon class="cls-1" points="89.64 109.5 93.95 109.5 93.95 137.76 73.33 137.76 89.64 109.5"/></g><g class="cls-4"><polygon class="cls-1" points="98.61 109.5 120.61 109.5 104.29 137.76 98.61 137.76 98.61 109.5"/></g><g class="cls-4"><polygon class="cls-1" points="129.73 40.06 135.86 29.45 135.86 40.06 129.73 40.06"/></g><g class="cls-4"><polygon class="cls-1" points="127.24 44.37 135.86 44.37 135.86 72.63 110.93 72.63 127.24 44.37"/></g><g class="cls-4"><polygon class="cls-1" points="108.44 76.94 135.86 76.94 135.86 83.09 123.09 105.19 98.61 105.19 98.61 93.97 108.44 76.94"/></g><g class="cls-4"><polygon class="cls-1" points="140.51 44.37 158.21 44.37 141.9 72.63 140.51 72.63 140.51 44.37"/></g><g class="cls-4"><polygon class="cls-1" points="177.01 11.81 160.7 40.06 140.51 40.06 140.51 21.39 146.04 11.81 177.01 11.81"/></g><g class="cls-4"><polygon class="cls-1" points="177.76 51.52 177.76 72.63 165.58 72.63 177.76 51.52"/></g><g class="cls-4"><polygon class="cls-1" points="127.97 137.76 135.86 124.11 135.86 137.76 127.97 137.76"/></g><g class="cls-4"><polygon class="cls-1" points="144.29 109.5 175.26 109.5 158.94 137.76 140.51 137.76 140.51 116.04 144.29 109.5"/></g><g class="cls-4"><polygon class="cls-1" points="177.76 76.94 177.76 105.16 177.75 105.19 146.78 105.19 163.09 76.94 177.76 76.94"/></g><rect class="cls-5" x="36.8" width="79.73" height="7.1"/><rect class="cls-6" x="116.37" width="14.1" height="7.1"/><rect class="cls-5" x="151.45" width="15.62" height="7.1"/><rect class="cls-6" x="167.04" width="5.81" height="7.1"/><rect class="cls-7" y="142.47" width="197.87" height="10.88"/><rect class="cls-8" x="198.11" y="142.47" width="40.1" height="10.88"/><rect class="cls-9" x="8.54" y="153.35" width="185.82" height="55.63"/><rect class="cls-10" x="194.35" y="153.35" width="38.32" height="55.63"/><rect class="cls-10" x="59.47" y="158.85" width="83.96" height="50.13"/><rect class="cls-9" x="62.61" y="160.88" width="3.59" height="48.1"/><rect class="cls-9" x="137.16" y="160.88" width="3.59" height="48.1"/><rect class="cls-9" x="99.65" y="160.88" width="3.59" height="48.1"/><rect class="cls-9" x="112.89" y="190.62" width="3.59" height="18.36"/><rect class="cls-9" x="86.87" y="190.62" width="3.59" height="18.36"/><rect class="cls-9" x="62.61" y="160.88" width="78.15" height="1.81"/><rect class="cls-9" x="86.87" y="190.62" width="29.61" height="1.81"/><rect class="cls-10" x="156.82" y="158.85" width="24.14" height="10.38"/><rect class="cls-10" x="156.82" y="174.74" width="24.14" height="10.38"/><rect class="cls-10" x="156.82" y="190.62" width="24.14" height="10.38"/><rect class="cls-10" x="23.29" y="158.85" width="24.14" height="10.38"/><rect class="cls-10" x="23.29" y="174.74" width="24.14" height="10.38"/><rect class="cls-10" x="23.29" y="190.62" width="24.14" height="10.38"/><rect class="cls-11" y="208.98" width="240.41" height="5.41"/></g></g></svg>