<svg xmlns="http://www.w3.org/2000/svg" viewBox="0 0 266.52 171"><defs><style>.cls-1{fill:#f7705a;}.cls-2{fill:#8d6044;}.cls-3{fill:#bc805b;}.cls-4{fill:#b95444;}.cls-5{fill:#79d4e6;}.cls-6{fill:#5b9fad;}.cls-7{fill:#a65f60;}.cls-8{fill:#ebbc9f;}.cls-9{fill:#b1a299;}</style></defs><title>Asset 101</title><g id="Layer_2" data-name="Layer 2"><g id="Layer_1-2" data-name="Layer 1"><rect class="cls-1" x="8.99" y="111.39" width="248.54" height="55.02"/><rect class="cls-1" x="64.73" y="49.73" width="137.06" height="41.98"/><rect class="cls-2" x="96.57" y="122.93" width="73.38" height="43.81"/><rect class="cls-3" x="99.32" y="124.7" width="3.14" height="42.04"/><rect class="cls-3" x="164.47" y="124.7" width="3.14" height="42.04"/><rect class="cls-3" x="131.69" y="124.7" width="3.14" height="42.04"/><rect class="cls-3" x="143.27" y="150.69" width="3.14" height="16.04"/><rect class="cls-3" x="120.52" y="150.69" width="3.14" height="16.04"/><rect class="cls-3" x="99.32" y="124.7" width="68.3" height="1.58"/><rect class="cls-3" x="120.52" y="150.69" width="25.88" height="1.58"/><rect class="cls-4" x="13.78" y="122.93" width="78.89" height="20.27"/><rect class="cls-5" x="16.34" y="125.04" width="22.77" height="15.79"/><rect class="cls-5" x="41.81" y="125.04" width="22.77" height="15.79"/><rect class="cls-5" x="67.28" y="125.04" width="22.77" height="15.79"/><rect class="cls-4" x="173.56" y="122.93" width="78.89" height="20.27"/><rect class="cls-5" x="176.12" y="125.04" width="22.77" height="15.79"/><rect class="cls-5" x="201.59" y="125.04" width="22.77" height="15.79"/><rect class="cls-5" x="227.06" y="125.04" width="22.77" height="15.79"/><rect class="cls-4" x="93.82" y="61.55" width="78.89" height="20.27"/><rect class="cls-5" x="96.38" y="63.66" width="22.77" height="15.79"/><rect class="cls-5" x="121.85" y="63.66" width="22.77" height="15.79"/><rect class="cls-5" x="147.31" y="63.66" width="22.77" height="15.79"/><rect class="cls-4" x="93.82" y="61.55" width="78.89" height="20.27"/><rect class="cls-5" x="96.38" y="63.66" width="22.77" height="15.79"/><rect class="cls-5" x="121.85" y="63.66" width="22.77" height="15.79"/><rect class="cls-5" x="147.31" y="63.66" width="22.77" height="15.79"/><rect class="cls-5" y="105.08" width="266.52" height="7.05"/><rect class="cls-5" y="90.98" width="266.52" height="7.05"/><rect class="cls-6" y="98.03" width="266.52" height="7.05"/><rect class="cls-5" x="57.25" y="30.58" width="152.01" height="9.48"/><rect class="cls-6" x="57.25" y="40.07" width="152.01" height="9.48"/><rect class="cls-7" x="102.03" width="65.15" height="44.81" rx="7.39"/><path class="cls-8" d="M144.94,30.19H124.31l-4.87-20.14h-4.72a1.36,1.36,0,1,1,0-2.71h6.86l4.87,20.13H143.2l5.72-12.42H126.69a1.36,1.36,0,0,1,0-2.71h26.47Z"/><path class="cls-8" d="M130.67,35A2.67,2.67,0,1,1,128,32.29,2.67,2.67,0,0,1,130.67,35Z"/><path class="cls-8" d="M143.28,35a2.67,2.67,0,1,1-2.67-2.66A2.68,2.68,0,0,1,143.28,35Z"/><rect class="cls-9" y="166.41" width="266.52" height="4.59"/></g></g></svg>