<svg xmlns="http://www.w3.org/2000/svg" viewBox="0 0 149.57 216.21"><defs><style>.cls-1{fill:#b1a299;}.cls-2{fill:#dd7f80;}.cls-3{fill:#ebbc9f;}.cls-4{fill:#8d6044;}.cls-5{fill:#b95444;}.cls-6{fill:#79d4e6;}</style></defs><title>Asset 91</title><g id="Layer_2" data-name="Layer 2"><g id="Layer_1-2" data-name="Layer 1"><rect class="cls-1" x="42.16" y="30.11" width="5.46" height="12.95" transform="translate(-8.68 14.58) rotate(-16.85)"/><rect class="cls-1" x="41.23" y="29.83" width="0.61" height="1.69" transform="translate(-7.1 13.33) rotate(-16.82)"/><rect class="cls-1" x="44.09" y="28.96" width="0.61" height="1.69" transform="translate(-6.75 14.2) rotate(-16.91)"/><polygon class="cls-1" points="41.34 24.86 38.94 30.7 46.57 28.39 41.34 24.86"/><rect class="cls-1" x="108.79" y="42.02" width="5.46" height="12.95" transform="translate(204.18 127.24) rotate(-163.14)"/><rect class="cls-1" x="114.56" y="41.73" width="0.61" height="1.69" transform="translate(212.5 116.57) rotate(-163.18)"/><rect class="cls-1" x="111.7" y="40.87" width="0.61" height="1.69" transform="translate(207.14 114.07) rotate(-163.17)"/><polygon class="cls-1" points="115.07 36.77 117.47 42.61 109.83 40.29 115.07 36.77"/><rect class="cls-1" x="27.14" y="53.05" width="5.46" height="12.95" transform="translate(-15.98 11.22) rotate(-16.86)"/><rect class="cls-1" x="26.21" y="52.76" width="0.61" height="1.69" transform="translate(-14.39 9.98) rotate(-16.83)"/><rect class="cls-1" x="29.07" y="51.9" width="0.61" height="1.69" transform="translate(-14.01 10.77) rotate(-16.83)"/><polygon class="cls-1" points="26.32 47.8 23.92 53.64 31.56 51.32 26.32 47.8"/><polygon class="cls-2" points="129.01 80.96 94.92 22.91 94.92 4.29 55.63 4.29 55.63 22.91 19.91 80.96 8.94 80.96 8.94 211.16 141.6 211.16 141.6 80.96 129.01 80.96"/><rect class="cls-3" x="21.46" y="99.85" width="20.45" height="29.57"/><rect class="cls-4" x="19.68" y="129.43" width="23.73" height="2.83"/><rect class="cls-3" x="105.8" y="99.85" width="20.45" height="29.57"/><rect class="cls-4" x="104.02" y="129.43" width="23.73" height="2.83"/><rect class="cls-3" x="105.94" y="157.54" width="20.45" height="29.57"/><rect class="cls-4" x="104.16" y="187.11" width="23.73" height="2.83"/><rect class="cls-3" x="21.6" y="157.54" width="20.44" height="29.57"/><rect class="cls-4" x="19.82" y="187.11" width="23.73" height="2.83"/><path class="cls-5" d="M23.74,98.72c-.75.23-1.51.49-2.25.8-.53-1.5-1-3-1.58-4.48.86-.35,1.73-.65,2.6-.92Z"/><path class="cls-5" d="M26.75,98c-.77.14-1.54.32-2.31.53-.37-1.54-.74-3.09-1.12-4.63.88-.24,1.77-.45,2.66-.62C26.24,94.84,26.49,96.41,26.75,98Z"/><path class="cls-5" d="M29.79,97.59c-.77,0-1.55.14-2.33.26-.22-1.57-.44-3.15-.65-4.73.89-.14,1.79-.24,2.69-.3C29.6,94.41,29.7,96,29.79,97.59Z"/><path class="cls-5" d="M32.86,97.55a23,23,0,0,0-2.35,0l-.18-4.78c.9,0,1.81,0,2.71,0Z"/><path class="cls-5" d="M35.91,97.85c-.77-.12-1.55-.21-2.33-.26.09-1.59.19-3.18.29-4.77q1.35.09,2.7.3Z"/><path class="cls-5" d="M38.93,98.51c-.76-.21-1.53-.39-2.31-.53.26-1.57.51-3.14.77-4.72.89.17,1.78.38,2.66.62C39.68,95.42,39.3,97,38.93,98.51Z"/><path class="cls-5" d="M41.88,99.52a23.17,23.17,0,0,0-2.25-.8l1.23-4.6c.87.27,1.74.57,2.6.92C42.93,96.53,42.41,98,41.88,99.52Z"/><path class="cls-5" d="M108.08,98.72a23.17,23.17,0,0,0-2.25.8q-.8-2.25-1.58-4.48c.86-.35,1.72-.65,2.6-.92Z"/><path class="cls-5" d="M111.08,98c-.77.14-1.54.32-2.3.53-.37-1.54-.75-3.09-1.12-4.63.88-.24,1.77-.45,2.66-.62C110.57,94.84,110.83,96.41,111.08,98Z"/><path class="cls-5" d="M114.13,97.59c-.78,0-1.56.14-2.33.26l-.66-4.73q1.35-.21,2.7-.3C113.94,94.41,114,96,114.13,97.59Z"/><path class="cls-5" d="M117.19,97.55a22.83,22.83,0,0,0-2.34,0l-.18-4.78c.9,0,1.8,0,2.71,0C117.32,94.36,117.25,96,117.19,97.55Z"/><path class="cls-5" d="M120.25,97.85c-.78-.12-1.56-.21-2.34-.26l.3-4.77c.9.06,1.8.16,2.69.3C120.68,94.7,120.47,96.28,120.25,97.85Z"/><path class="cls-5" d="M123.26,98.51c-.76-.21-1.53-.39-2.3-.53.26-1.57.51-3.14.77-4.72.89.17,1.77.38,2.66.62C124,95.42,123.64,97,123.26,98.51Z"/><path class="cls-5" d="M126.22,99.52a23.35,23.35,0,0,0-2.26-.8l1.23-4.6c.88.27,1.75.57,2.61.92Q127,97.28,126.22,99.52Z"/><path class="cls-5" d="M23.74,155.47c-.75.23-1.51.5-2.25.8-.53-1.49-1-3-1.58-4.48.86-.34,1.73-.65,2.6-.92Z"/><path class="cls-5" d="M26.75,154.73c-.77.14-1.54.32-2.31.53-.37-1.54-.74-3.08-1.12-4.63.88-.24,1.77-.45,2.66-.61C26.24,151.59,26.49,153.16,26.75,154.73Z"/><path class="cls-5" d="M29.79,154.34a23.43,23.43,0,0,0-2.33.27c-.22-1.58-.44-3.16-.65-4.73a27,27,0,0,1,2.69-.31C29.6,151.16,29.7,152.75,29.79,154.34Z"/><path class="cls-5" d="M32.86,154.3c-.78,0-1.57,0-2.35,0l-.18-4.78c.9,0,1.81,0,2.71,0Z"/><path class="cls-5" d="M35.91,154.61a22.76,22.76,0,0,0-2.33-.27c.09-1.59.19-3.18.29-4.77.9.06,1.8.16,2.7.31Z"/><path class="cls-5" d="M38.93,155.26c-.76-.21-1.53-.39-2.31-.53.26-1.57.51-3.14.77-4.71.89.16,1.78.37,2.66.61C39.68,152.18,39.3,153.72,38.93,155.26Z"/><path class="cls-5" d="M41.88,156.27c-.74-.3-1.49-.57-2.25-.8l1.23-4.6c.87.27,1.74.58,2.6.92C42.93,153.28,42.41,154.78,41.88,156.27Z"/><path class="cls-5" d="M108.08,155.47c-.76.23-1.51.5-2.25.8-.53-1.49-1.06-3-1.58-4.48.86-.34,1.72-.65,2.6-.92Z"/><path class="cls-5" d="M111.08,154.73c-.77.14-1.54.32-2.3.53-.37-1.54-.75-3.08-1.12-4.63.88-.24,1.77-.45,2.66-.61C110.57,151.59,110.83,153.16,111.08,154.73Z"/><path class="cls-5" d="M114.13,154.34a22.76,22.76,0,0,0-2.33.27l-.66-4.73c.9-.15,1.8-.25,2.7-.31C113.94,151.16,114,152.75,114.13,154.34Z"/><path class="cls-5" d="M117.19,154.3q-1.17,0-2.34,0l-.18-4.78c.9,0,1.8,0,2.71,0C117.32,151.11,117.25,152.71,117.19,154.3Z"/><path class="cls-5" d="M120.25,154.61a23.29,23.29,0,0,0-2.34-.27l.3-4.77a27,27,0,0,1,2.69.31C120.68,151.45,120.47,153,120.25,154.61Z"/><path class="cls-5" d="M123.26,155.26c-.76-.21-1.53-.39-2.3-.53.26-1.57.51-3.14.77-4.71.89.16,1.77.37,2.66.61C124,152.18,123.64,153.72,123.26,155.26Z"/><path class="cls-5" d="M126.22,156.27c-.74-.3-1.5-.57-2.26-.8l1.23-4.6c.88.27,1.75.58,2.61.92C127.27,153.28,126.74,154.78,126.22,156.27Z"/><path class="cls-3" d="M88.91,46.18A13.69,13.69,0,1,1,75.22,32.49,13.69,13.69,0,0,1,88.91,46.18Z"/><path class="cls-6" d="M75.8,45.61V35.21a10.4,10.4,0,0,1,10.39,10.4Z"/><path class="cls-6" d="M74.65,45.61H64.25a10.41,10.41,0,0,1,10.4-10.4Z"/><path class="cls-6" d="M74.65,46.76V57.15a10.4,10.4,0,0,1-10.4-10.39Z"/><path class="cls-6" d="M75.8,46.76H86.19A10.38,10.38,0,0,1,75.8,57.15Z"/><rect class="cls-6" x="22.72" y="101.22" width="5.3" height="16.29"/><rect class="cls-6" x="29.14" y="101.22" width="5.3" height="16.29"/><rect class="cls-6" x="35.56" y="101.22" width="5.29" height="16.29"/><rect class="cls-6" x="22.72" y="118.61" width="5.3" height="9.24"/><rect class="cls-6" x="29.14" y="118.61" width="5.3" height="9.24"/><rect class="cls-6" x="35.56" y="118.61" width="5.29" height="9.24"/><rect class="cls-6" x="106.95" y="101.22" width="5.3" height="16.29"/><rect class="cls-6" x="113.37" y="101.22" width="5.3" height="16.29"/><rect class="cls-6" x="119.8" y="101.22" width="5.3" height="16.29"/><rect class="cls-6" x="106.95" y="118.61" width="5.3" height="9.24"/><rect class="cls-6" x="113.37" y="118.61" width="5.3" height="9.24"/><rect class="cls-6" x="119.8" y="118.61" width="5.3" height="9.24"/><rect class="cls-6" x="22.72" y="158.37" width="5.3" height="16.29"/><rect class="cls-6" x="29.14" y="158.37" width="5.3" height="16.29"/><rect class="cls-6" x="35.56" y="158.37" width="5.29" height="16.29"/><rect class="cls-6" x="22.72" y="175.76" width="5.3" height="9.24"/><rect class="cls-6" x="29.14" y="175.76" width="5.3" height="9.24"/><rect class="cls-6" x="35.56" y="175.76" width="5.29" height="9.24"/><rect class="cls-6" x="106.95" y="158.37" width="5.3" height="16.29"/><rect class="cls-6" x="113.37" y="158.37" width="5.3" height="16.29"/><rect class="cls-6" x="119.8" y="158.37" width="5.3" height="16.29"/><rect class="cls-6" x="106.95" y="175.76" width="5.3" height="9.24"/><rect class="cls-6" x="113.37" y="175.76" width="5.3" height="9.24"/><rect class="cls-6" x="119.8" y="175.76" width="5.3" height="9.24"/><rect class="cls-5" x="40.86" y="80.14" width="7.12" height="3.83"/><rect class="cls-5" x="96.17" y="109.85" width="7.12" height="3.83"/><rect class="cls-5" x="45.79" y="111.76" width="7.12" height="3.83"/><rect class="cls-5" x="35.56" y="75.07" width="7.12" height="3.83"/><rect class="cls-5" x="24.12" y="202.54" width="7.12" height="3.83"/><rect class="cls-5" x="18.83" y="197.47" width="7.12" height="3.83"/><rect class="cls-5" x="37.11" y="198.47" width="7.12" height="3.83"/><rect class="cls-5" x="31.82" y="193.41" width="7.12" height="3.83"/><rect class="cls-5" x="121.76" y="200" width="7.12" height="3.83"/><rect class="cls-5" x="116.47" y="194.94" width="7.12" height="3.83"/><rect class="cls-5" x="126.98" y="143.21" width="7.12" height="3.83"/><rect class="cls-5" x="121.68" y="138.14" width="7.12" height="3.83"/><rect class="cls-5" x="21.48" y="141.49" width="7.12" height="3.83"/><rect class="cls-5" x="16.18" y="136.42" width="7.12" height="3.83"/><rect class="cls-5" x="65.89" y="69.05" width="7.12" height="3.83"/><rect class="cls-5" x="108.08" y="83.97" width="7.12" height="3.83"/><rect class="cls-5" x="69.45" y="64.12" width="7.12" height="3.83"/><rect class="cls-5" x="47.98" y="44.27" width="7.12" height="3.83"/><rect class="cls-5" x="51.79" y="48.92" width="7.12" height="3.83"/><rect class="cls-5" x="112.46" y="79.59" width="7.12" height="3.83"/><rect class="cls-5" x="129.01" y="107.93" width="7.12" height="3.83"/><rect class="cls-3" x="51.54" width="46.23" height="5.66"/><rect class="cls-3" x="1.92" y="76.08" width="21.4" height="5.66"/><rect class="cls-3" x="126.25" y="76.08" width="21.4" height="5.66"/><rect class="cls-3" x="43.48" y="208.22" width="59.42" height="2.94"/><rect class="cls-4" x="43.48" y="207.26" width="59.42" height="0.96"/><rect class="cls-3" x="46.72" y="204.32" width="52.94" height="2.94"/><rect class="cls-4" x="46.72" y="203.36" width="52.94" height="0.96"/><rect class="cls-3" x="49.36" y="200.41" width="47.64" height="2.94"/><rect class="cls-4" x="49.36" y="199.46" width="47.64" height="0.96"/><rect class="cls-3" x="49.36" y="196.97" width="10.04" height="2.49"/><rect class="cls-3" x="49.36" y="156.79" width="10.04" height="2.49"/><rect class="cls-3" x="50.64" y="159.27" width="5" height="37.7"/><rect class="cls-4" x="55.57" y="159.27" width="2.57" height="37.7"/><rect class="cls-3" x="86.97" y="196.97" width="10.04" height="2.49" transform="translate(183.98 396.42) rotate(180)"/><rect class="cls-3" x="86.97" y="156.79" width="10.04" height="2.49" transform="translate(183.98 316.06) rotate(180)"/><rect class="cls-3" x="90.74" y="159.27" width="5" height="37.7" transform="translate(186.48 356.24) rotate(180)"/><rect class="cls-4" x="88.24" y="159.27" width="2.57" height="37.7"/><rect class="cls-3" x="62.61" y="160.37" width="21.15" height="39.09"/><rect class="cls-4" x="64.74" y="162.28" width="6.85" height="10.31"/><rect class="cls-4" x="74.78" y="162.28" width="6.85" height="10.31"/><rect class="cls-4" x="64.74" y="173.69" width="6.85" height="10.31"/><rect class="cls-4" x="74.78" y="173.69" width="6.85" height="10.31"/><rect class="cls-4" x="64.74" y="185.1" width="6.85" height="10.31"/><rect class="cls-4" x="74.78" y="185.1" width="6.85" height="10.31"/><rect class="cls-3" x="62.61" y="95.89" width="21.15" height="39.09"/><rect class="cls-6" x="64.74" y="97.81" width="6.85" height="10.31"/><rect class="cls-6" x="74.78" y="97.81" width="6.85" height="10.31"/><rect class="cls-6" x="64.74" y="109.22" width="6.85" height="10.31"/><rect class="cls-6" x="74.78" y="109.22" width="6.85" height="10.31"/><rect class="cls-6" x="64.74" y="120.63" width="6.85" height="10.31"/><rect class="cls-6" x="74.78" y="120.63" width="6.85" height="10.31"/><rect class="cls-4" x="45.09" y="149.57" width="56.2" height="7.22"/><rect class="cls-4" x="45.09" y="143.48" width="56.2" height="2.99"/><rect class="cls-3" x="54.7" y="89.9" width="5.43" height="53.58"/><rect class="cls-3" x="86.25" y="89.9" width="5.43" height="53.58"/><path class="cls-4" d="M88,81.23s-.91,3.84-4.29,3.11-1.37-5.21-1.37-5.21a29.09,29.09,0,0,0-9.13-2.19,29.09,29.09,0,0,0-9.13,2.19s2,4.48-1.36,5.21-4.29-3.11-4.29-3.11-6.12,2.38-6.3,5.48V89.9H94.31V86.71C94.12,83.61,88,81.23,88,81.23Z"/><path class="cls-3" d="M54.65,87.39v-.56c.1-.49,1.19-1.43,2.66-2.28a5.64,5.64,0,0,0,4.59,2.39,6.44,6.44,0,0,0,1.36-.15,4.72,4.72,0,0,0,3.38-2.51,6.09,6.09,0,0,0,.48-3.59,22.64,22.64,0,0,1,6.1-1.24,22.64,22.64,0,0,1,6.1,1.24,6.17,6.17,0,0,0,.48,3.59,4.72,4.72,0,0,0,3.39,2.51,6.34,6.34,0,0,0,1.35.15,5.62,5.62,0,0,0,4.59-2.39c1.47.85,2.57,1.79,2.67,2.28v.56Z"/><rect class="cls-1" y="211.16" width="149.57" height="5.05"/></g></g></svg>