<svg version="1.2" xmlns="http://www.w3.org/2000/svg" viewBox="0 0 937 88" width="937" height="88"><style>.a{fill:#63393f}.b{fill:#82595e}</style><path fill-rule="evenodd" class="a" d="m7.6 9.9l918.5 0.1 2.9 70.5-918.4-0.1zm43.6 27.9c-1.6 0-2.8 1.3-2.7 2.8l0.3 7.8c0 1.5 1.4 2.8 2.9 2.8h30.1c1.5 0 2.7-1.3 2.7-2.8l-0.4-7.8c0-1.5-1.4-2.8-2.9-2.8zm820.9 0.1c-1.5 0-2.7 1.2-2.7 2.8l0.4 7.7c0 1.6 1.4 2.9 2.9 2.9h30c1.6 0 2.8-1.3 2.8-2.9l-0.4-7.7c0-1.6-1.4-2.8-2.9-2.8zm-195.7-0.1c-1.6 0-2.8 1.3-2.7 2.9l0.3 7.7c0.1 1.6 1.4 2.9 2.9 2.8l12.2 0.1c1.6 0 2.8-1.3 2.7-2.9l-0.3-7.7c0-1.6-1.4-2.8-2.9-2.8zm-424.6-0.1c-1.6 0-2.8 1.3-2.7 2.8l0.3 7.8c0.1 1.6 1.4 2.8 2.9 2.8h12.2c1.6 0 2.8-1.2 2.7-2.8l-0.3-7.8c-0.1-1.5-1.4-2.8-2.9-2.8z"/><path class="b" d="m7.6 9.9l918.5 0.1 0.6 14.1-918.5-0.1z"/><path class="b" d="m10 66.3l918.4 0.1 0.6 14.1-918.4-0.1z"/></svg>