<svg version="1.2" xmlns="http://www.w3.org/2000/svg" viewBox="0 0 135 1102" width="135" height="1102">
	<title>&lt;Group&gt;</title>
	<style>
		.s0 { fill: #63393f } 
		.s1 { fill: #82595e } 
		.s2 { fill: #f5a748 } 
	</style>
	<g id="&lt;Group&gt;">
		<g id="&lt;Group&gt;">
			<path id="&lt;Path&gt;" class="s0" d="m48.8 965.7l31 1.3v104.5l-31-1.3z"/>
			<path id="&lt;Path&gt;" class="s0" d="m12 964.1l67.8 2.9v30.7l-67.8-2.9c-6.2-0.2-11.2-5.5-11.2-11.8v-8.1c0-6.2 5-11 11.2-10.8z"/>
			<path id="&lt;Path&gt;" class="s0" d="m48.8 1052.8l79 3.4v15.4l-15.3 14.6-63.7-2.6z"/>
			<path id="&lt;Path&gt;" class="s0" d="m23.4 951.9l33.8 1.4v30.7l-33.8-1.4z"/>
			<path id="&lt;Path&gt;" class="s0" d="m31.8 905.7l17 0.7v77.3l-17-0.8z"/>
			<path id="&lt;Path&gt;" class="s0" d="m14.9 959.8l16.9 0.8v8.8l-16.9-0.8z"/>
			<path id="&lt;Path&gt;" class="s1" d="m39.6 972.9l28.6 1.2v9l-28.6-1.2z"/>
			<path id="&lt;Path&gt;" class="s1" d="m69.3 1025.1l-2.2 2.2 6.3 6.6 2.3-2.2z"/>
			<path id="&lt;Path&gt;" class="s1" d="m69.3 994.5l-2.2-2.3 6.3-6.1 2.3 2.3z"/>
			<path id="&lt;Path&gt;" class="s0" d="m17.1 835l46.4 1.9v111.4l-46.4-2z"/>
			<path id="&lt;Path&gt;" class="s2" d="m23.2 843.4l33.9 15.2v14.1l-33.9-15.2z"/>
			<path id="&lt;Path&gt;" class="s2" d="m23.2 865.6l33.9 15.2v14.2l-33.9-15.3z"/>
			<path id="&lt;Path&gt;" class="s2" d="m23.2 887.8l33.9 15.3v14.1l-33.9-15.3z"/>
			<path id="&lt;Path&gt;" class="s2" d="m23.2 910.1l33.9 15.2v14.1l-33.9-15.2z"/>
			<path id="&lt;Path&gt;" class="s0" d="m23.5 830.5l33.6 1.4v7.4l-33.6-1.4z"/>
			<path id="&lt;Path&gt;" class="s0" d="m42.8 6v832.7l-5-0.3v-832.4z"/>
		</g>
	</g>
</svg>