<svg version="1.2" xmlns="http://www.w3.org/2000/svg" viewBox="0 0 2500 1664" width="2500" height="1664"><style>.a{fill:#b1defc}.b{fill:#9dc8ea}.c{fill:#d1edfe}.d{fill:#fff}.e{fill:#79a0cf}.f{fill:#63393f}.g{fill:#82595e}.h{fill:#e3f0f9}.i{fill:#6e464b}.j{fill:#a58387}.k{fill:#c2a7aa}.l{fill:#f5a748}.m{fill:#fcd39e}.n{fill:#e75f27}.o{fill:#e58a24}</style><path class="a" d="m0 0h2500v1664h-1352.7-1147.3z"/><path class="b" d="m1807.4 1303.8l-172.5-39.1v399.3h172.5z"/><path class="b" d="m1220.1 1280.9h109.9v364.3h-109.9z"/><path class="b" d="m888.6 1046.5h166.3v598.7h-166.3z"/><path class="b" d="m1667.3 1104.2l-129.3-33.3v340.5h129.3z"/><path fill-rule="evenodd" class="c" d="m2500 990.5q-6.3-1.4-12.8-2.9c-448.5-106.4-646.5-324.4-1082-273.7-132.5 15.4-236.3 35.2-327.7 52.5-48.4 9.2-115.5 19.9-193.7 30.1-129.1 6.5-257.6 5.1-450.8-15.5-154.2-16.5-304.9-38.3-433-59.1v-99.1c128.1 46.9 278.8 95.9 433 132.6 283.3 67.4 427.7 39.9 638.6-0.1 91.8-17.5 196.1-74.6 329.8-90.2 446-52 644.7 205.4 1092.5 311.6q3.1 0.7 6.1 1.4zm-2500-180.7v-7.1c210.6 21.3 567.1 13.1 829.3 0.6-262.2 31.4-618.7 53.8-829.3 6.5z"/><path class="b" d="m1688.8 1198.7l-172.4-44.5v454.1h172.4z"/><path class="b" d="m227.3 734.1h10.6l2.5-67.8 4.1-109h3.8l0.2-4.7 2.2-58.5h7.1 7.2l2.2 58.5 0.1 4.7h3.8l4.1 109 2.6 67.8h10.6v228.3h17v653.1h-95.1v-653.1h17z"/><path class="d" d="m2064.5 1117.4l-642.4-123c0 0-23.3-3 1-7.9 24.3-4.9 65.4 19.2 70.9 10.8 5.5-8.4 9-8 14.4-6.3 5.4 1.6 14.4 15.5 12.4 5.2-2.1-10.3 3.5-24.5 20.4-9.5 16.9 15 39.4 32.4 49.3 31.6 9.9-0.8 0.5-9.5 11.8-6.9 11.2 2.5 18.8 12.2 31.8 17.4 13.1 5.2 22.2 9.5 27.2 8.1 5-1.4 51.8 11.7 61.2-4.4 9.4-16.1-10.9-29.4-1.4-50.8 9.5-21.4 43.9-0.9 43.9-0.9 0 0-8.1-12.5 4.9-13.1 13-0.6 32.2 5 41.6 18 9.5 13 19 24.8 28 26.5 8.9 1.8 19.4-5 27.1 7.6 7.6 12.7 3.5 15.4 20.8 25.1 17.3 9.6 25.1 8.2 38.4 17.7 13.3 9.5-4.3 12.7 20.8 18.2 25.2 5.6 35.8-2.8 45.7 3.8 9.9 6.6 17 18 27.5 19 10.4 1.1 51.3 10.3 44.7 13.8z"/><path class="d" d="m1909.9 954h590.1v19.1h-95.5l89 236.5 6.5 2.5v-19.7l-6.5 17.2-13.4 5.1-90.9-241.6h-2.4l-90.9 241.6-13.4-5.1-89.1-236.5h178.1l-89 236.5-13.4 5.1-91-241.6h-2.4l-90.9 241.6-13.4-5.1-89.1-236.5h178.2l-89.1 236.5-13.4 5.1-91-241.6h-2.3l-91 241.6-13.4-5.1 89.1-236.5h-39.5z"/><path class="b" d="m2500 1596v68h-1352.7-1147.3v-286.7c539.9 50.5 2072.9 182.1 2500 218.7z"/><path class="b" d="m2235.8 1494h109.9v170h-109.9z"/><path class="b" d="m2140.2 1384.6h109.9v279.4h-109.9z"/><path class="b" d="m2075 1266h81.4v340.1h-81.4z"/><path class="b" d="m2060.7 1324h109.9v340h-109.9z"/><path class="b" d="m1418 1369.9h109.9v291.6h-109.9z"/><path class="b" d="m1367.6 1324h109.9v291.5h-109.9z"/><path class="b" d="m371.3 1032.4h109.9v583.1h-109.9z"/><path class="e" d="m406.1 1485.8h34v178.2h-67.9v-144.2z"/><path fill-rule="evenodd" class="e" d="m1771.5 1538.2v123.4h-46.6v-169.3h23.3zm-110.8 15h30v110.8h-60.1v-6.6h-92.8v-194.9l49.8-72.5h49.8v186.5zm-170.5-31.8h25.4v135.9h-50.7v-99z"/><path class="b" d="m116.5 1485.8h33.9v178.2h-67.8v-144.2z"/><path class="e" d="m322.3 1334.8h62.7v329.2h-125.4v-266.5z"/><path class="d" d="m217 954h1030.2v19.1h-63.6l89.1 236.5-13.4 5.1-91-241.6h-2.3l-91 241.6-13.4-5.1-89.1-236.5h178.2l-89.1 236.5-13.4 5.1-90.9-241.6h-2.4l-91 241.6-13.4-5.1-89-236.5h178.1l-89.1 236.5-13.3 5.1-91-241.6h-2.4l-90.9 241.6-13.4-5.1-89.1-236.5h178.1l-89 236.5-13.4 5.1-91-241.6h-2.3l-91 241.6-13.4-5.1-89.1-236.5h178.2l-89.1 236.5-13.4 5.1-91-241.6h-2.3l-91 241.6-13.4-5.1 89.1-236.5h-89.4z"/><path class="b" d="m1327.6 1488h-48v176h96v-128z"/><path class="e" d="m1344.3 1433.8h33.6v192.6h-67.1v-140.4z"/><path class="b" d="m648.4 1229.9h25.9v209.7h-51.8v-183.7z"/><path class="b" d="m795.5 1488h48v176h-96v-128z"/><path class="b" d="m739.1 1082.2h37.1v581.8h-74.2v-544.8z"/><path class="b" d="m648.4 1334.8h40.7v329.2h-81.4v-288.5z"/><path class="e" d="m713.1 1450.7h40.7v213.3h-81.4v-172.7z"/><path class="e" d="m646 1493.2h40.7v170.8h-81.4v-130.1z"/><path class="e" d="m843 1514h40.7v150h-81.4v-109.3z"/><path class="e" d="m1273.9 1514h40.7v150h-81.4v-109.3z"/><path class="b" d="m513.5 1200.4h57.3v463.6h-114.6v-406.3z"/><path class="d" d="m2450.1 1381.1l-238.4-45.7c0 0-8.7-1.1 0.3-2.9 9.1-1.8 24.3 7.1 26.3 4 2.1-3.1 3.4-2.9 5.4-2.3 2 0.6 5.3 5.7 4.6 1.9-0.8-3.8 1.3-9.1 7.6-3.5 6.2 5.5 14.6 12 18.2 11.7 3.7-0.3 0.3-3.5 4.4-2.6 4.2 1 7 4.6 11.8 6.5 4.9 1.9 8.3 3.5 10.1 3 1.9-0.5 19.2 4.4 22.7-1.6 3.5-6-4-10.9-0.5-18.9 3.5-7.9 16.3-0.3 16.3-0.3 0 0-3-4.7 1.8-4.9 4.9-0.2 12 1.9 15.5 6.7 3.5 4.8 7 9.2 10.3 9.9 3.4 0.6 7.2-1.9 10.1 2.8 2.8 4.7 1.3 5.7 7.7 9.3 6.4 3.5 9.4 3 14.3 6.6 4.9 3.5-1.6 4.7 7.7 6.7 9.3 2.1 13.3-1 17 1.4 3.6 2.5 6.3 6.7 10.1 7.1 3.9 0.4 19.1 3.8 16.7 5.1z"/><path class="f" d="m1759.8 1202.6h115.6v5.4h-115.6z"/><path class="f" d="m1759.8 1169.8h115.6v5.3h-115.6z"/><path class="e" d="m2500 1633.8v30.2h-1352.7-1147.3v-127.4c539.9 22.4 2072.9 80.9 2500 97.2z"/><path class="f" d="m1759.8 1214.3h115.6v5.4h-115.6z"/><path fill-rule="evenodd" class="g" d="m1233 1098v566h-6.6v-26.8l-26.8 26.8h-11.4v-566h6.6v13.7l31.6 31.6v-45.3zm-38.2 23v66.6l31.7-31.7v-3.2zm3.2 72.6l28.4 28.3v-56.7zm-3.3 6v66.6l31.6-31.6v-3.3zm3.3 72.6l28.4 28.3v-56.7zm-3.3 6.1v66.5l31.6-31.6v-3.3zm3.3 72.6l28.4 28.4v-56.8zm-3.3 6.1v66.5l31.6-31.6v-3.3zm3.3 72.6l28.4 28.4v-56.8zm-3.3 6.1v66.5l31.6-31.6v-3.3zm3.3 72.6l28.4 28.4v-56.7zm-3.3 6v66.6l31.6-31.7v-3.3zm3.3 72.6l28.4 28.4v-56.7zm-3.3 6v66.6l31.6-31.7v-3.2z"/><path fill-rule="evenodd" class="d" d="m2500 937.5q-6.3-2.7-12.8-5.6c-448.5-201.8-646.5-477.7-1082-505.5-132.5-8.5-236.3-6.8-327.7-5.3-48.4 0.8-115.5-0.4-193.7-4.2-129.1-17.6-257.6-43.6-450.8-103.1-154.2-47.4-304.9-100-433-147.2v-108.3c128.1 75.7 278.8 158 433 227.6 283.3 127.7 427.7 125.3 638.6 121.9 91.8-1.5 196.1-44 329.8-35.4 446 28.5 644.7 347.4 1092.5 548.9q3.1 1.3 6.1 2.7zm-2500-675v-7.8c210.6 63.6 567.1 122.7 829.3 159.2-262.2-15.9-618.7-59.5-829.3-151.4z"/><path class="d" d="m2148.9 324.5l-1543.4-295.4c0 0-55.9-7.2 2.5-18.9 58.3-11.8 157 46.1 170.2 25.9 13.3-20.2 21.6-19.2 34.6-15.2 13.1 4 34.7 37.2 29.8 12.4-2.4-11.9-0.5-25.9 6.6-33.3h28.2c4.3 2.5 9.1 5.9 14.3 10.6 40.6 35.9 94.6 77.8 118.3 75.9 23.7-1.9 1.4-22.7 28.3-16.6 27 6.1 45.2 29.4 76.6 41.8 31.3 12.5 53.2 22.7 65.3 19.4 12.1-3.3 124.4 28.3 146.9-10.4 22.4-38.3-25.2-70.1-3.9-120.7h211q3.7 3.9 6.9 8.2c22.6 31.2 45.6 59.5 67.1 63.8 21.5 4.2 46.6-12.1 65.1 18.2 18.4 30.4 8.5 37 50 60.1 41.5 23.2 60.4 19.9 92.4 42.7 31.9 22.9-10.4 30.5 50 43.7 60.3 13.3 85.9-6.8 109.7 9.1 23.8 15.9 40.9 43.3 65.9 45.7 25.1 2.5 123.4 24.5 107.6 33z"/><path fill-rule="evenodd" class="h" d="m1138.8 1098v566h-6.6v-26.8l-26.8 26.8h-11.4v-566h6.6v13.7l31.6 31.6v-45.3zm-38.2 23v66.6l31.6-31.7v-3.2zm3.3 72.6l28.4 28.3v-56.7zm-3.3 6v66.6l31.6-31.6v-3.3zm3.3 72.6l28.4 28.3v-56.7zm-3.3 6.1v66.5l31.6-31.6v-3.3zm3.3 72.6l28.4 28.4v-56.8zm-3.3 6.1v66.5l31.6-31.6v-3.3zm3.3 72.6l28.4 28.4v-56.8zm-3.3 6.1v66.5l31.6-31.6v-3.3zm3.3 72.6l28.4 28.4v-56.7zm-3.3 6v66.6l31.6-31.7v-3.3zm3.3 72.6l28.3 28.4v-56.7zm-3.2 6v66.6l31.6-31.7v-3.2z"/><path class="g" d="m116.5 1664h178.2v-399.5h-178.2z"/><path class="f" d="m116.5 1291.8h178.2v-24.9h-178.2z"/><path class="f" d="m93.6 1279.3h224l20.9-20.9v-35.7h-265.8v35.7z"/><path class="i" d="m159.6 1279.3h92l20.9-20.9v-35.7h-133.8v35.7z"/><path class="j" d="m116.5 1664h94.1v-222.9l-94.1-50.5z"/><path fill-rule="evenodd" class="g" d="m127.3 1396.4l6.6 3.5v62l31.6-31.6v-3.3l-21.8-21.8 20.2 10.8 1.6 1.7v-0.8l6.6 3.5v243.6h-6.6v-1.1l-31.6-31.6v32.7h-6.6zm9.8 71.6l28.4 28.3v-56.7zm-3.3 6v66.6l31.7-31.6v-3.3zm3.2 72.6l28.4 28.3v-56.7zm-3.3 6.1v66.5l31.7-31.6v-3.3zm3.2 72.6l28.4 28.4v-56.8z"/><path class="d" d="m116.5 1664h77.9v-173l-77.9-41.9z"/><path fill-rule="evenodd" class="j" d="m127.3 1454.9l6.6 3.6v3.4l2.2-2.2 6.1 3.2-5.1 5.1 28.4 28.3v-20.9l6.6 3.6v185h-6.6v-1.1l-31.6-31.6v32.7h-6.6zm6.6 19.1v66.5l31.6-31.6v-3.3zm3.3 72.6l28.3 28.4v-56.7zm-3.2 6v66.6l31.6-31.7v-3.3zm3.3 72.6l28.3 28.4v-56.7z"/><path class="f" d="m1364.7 1214.3h119.8v5.4h-119.8z"/><path class="g" d="m938.2 1664h178.2v-399.5h-178.2z"/><path class="f" d="m938.2 1291.8h178.2v-24.9h-178.2z"/><path class="f" d="m915.3 1279.3h224l20.9-20.9v-35.7h-265.8v35.7z"/><path class="i" d="m981.3 1279.3h92l20.9-20.9v-35.7h-133.8v35.7z"/><path class="g" d="m0 1236.9h1418.8v-78.2h-1418.8z"/><path class="j" d="m1418.8 1189.4v-30.7h-1418.8v30.7z"/><path class="k" d="m938.2 1664h94v-222.9l-94-50.5z"/><path class="d" d="m938.2 1664h58.7v-130.3l-58.7-31.5z"/><path class="f" d="m0 1244.3h1418.8v-14.8h-1418.8z"/><path class="f" d="m1364.7 1229.1h204v15.2h-204z"/><path class="g" d="m1759.8 1664h178.3v-399.5h-178.3z"/><path class="f" d="m1759.8 1291.8h178.3v-24.9h-178.3z"/><path class="f" d="m1736.9 1279.3h224.1l20.8-20.9v-35.7h-265.7v35.7z"/><path class="i" d="m1802.9 1279.3h92.1l20.8-20.9v-35.7h-133.7v35.7z"/><path class="k" d="m1759.8 1664h94.1v-222.9l-94.1-50.5z"/><path class="g" d="m1784.5 1664h3.1v-272.2l-3.1-1.7z"/><path class="f" d="m0 1379h223.8v5.6h-223.8z"/><path class="f" d="m0 1524.5h223.8v5.6h-223.8z"/><path class="f" d="m142.6 1354.7h51.9v27.9h-51.9z"/><path class="f" d="m117.7 1362.3h37.7v20.3h-37.7z"/><path class="f" d="m150.3 1497.1h51.9v27.8h-51.9z"/><path class="f" d="m128.1 1511h34.7v13.9h-34.7z"/><path class="f" d="m104.2 1276.9h2v102.1h-2z"/><path class="f" d="m0 1169.5h1418.8v-10.8h-1418.8z"/><path class="f" d="m147.6 1278.5l1.9 0.6-27.4 98.3-1.9-0.6z"/><path class="f" d="m146.8 1277.2l2 0.2-12.4 101.3-2-0.2z"/><path class="f" d="m401.9 1233.7h28.3v48.8h-28.3z"/><path class="g" d="m401.9 1233.7h28.3v20.2h-28.3z"/><path class="f" d="m612 1233.7h28.3v48.8h-28.3z"/><path class="g" d="m612 1233.7h28.3v20.2h-28.3z"/><path class="f" d="m822.2 1233.7h28.2v48.8h-28.2z"/><path class="g" d="m822.2 1233.7h28.2v20.2h-28.2z"/><path class="f" d="m329.8 1260.4h590.7v4.1h-590.7z"/><path class="f" d="m236.7 1269.2h683.8v8.9h-683.8z"/><path class="f" d="m0 1269.2h580.8v8.9h-580.8z"/><path class="f" d="m0 1260.4h571v4.1h-571z"/><path class="f" d="m1287 558.1l2.5 0.1v990h-2.5z"/><path class="f" d="m2270.5 604.5l5.4 0.1v1059.4h-5.4z"/><path class="f" d="m2213.3 603.9h5.4v1060.1h-5.4z"/><path class="f" d="m2006.3 414l3.9 1.1-33.2 120-3.9-1.1z"/><path class="f" d="m2006.5 357.2l6 0.1v200.4l-6-0.1z"/><path class="f" d="m1925.5 592.5l126.1 1.4v20.2l-126.1-1.4z"/><path class="f" d="m1992.6 497.2l49.3 0.5v60.3l-49.3-0.5z"/><path fill-rule="evenodd" class="f" d="m1946.4 607.2v67.3l47-46.4v-20.3l9.8 0.1v1056.1h-9.8v-87.3l-47 46.5v4.9l35.6 35.9h-13.7l-21.9-22.1v22.1h-9.7v-1056.9zm0 81.2v4.8l46.9 47.6v-98.9zm0 18.7l0.1 84.3 42.1-41.7zm0 98.2v4.9l47 47.5v-98.9zm0 18.7v84.3l42.1-41.6zm0 98.1v4.9l47 47.5v-98.9zm0 18.8v84.2l42.1-41.6zm0 98.1v4.9l47 47.5v-98.8zm0 18.7v84.3l42.2-41.7zm0 98.1v4.9l47 47.5v-98.8zm0 18.7v84.3l42.1-41.7zm0 98.1v4.9l47 47.6v-98.9zm0 18.7v84.3l42.1-41.7zm0 98.2v4.8l47 47.6v-98.9zm0 18.7v84.3l42.1-41.7zm0 98.2v4.9l47 47.5v-98.9zm0 18.7v84.3l42.2-41.6z"/><path class="l" d="m1944.2 512.1l60.6 0.7v70.7l-88.2-1v-43.1z"/><path class="m" d="m1944.2 512.1l60.6 0.7v27.6l-88.2-1z"/><path fill-rule="evenodd" class="f" d="m1986.2 607.7v67.3l47-46.5v-20.3l9.8 0.1v1055.7h-9.8v-86.8l-47 46.4v4.9l35.1 35.5h-13.7l-21.4-21.6v21.6h-9.8v-1056.4zm0 81.1v4.9l47 47.5v-98.8zm0 18.7v84.3l42.1-41.7zm0 98.1v4.9l47 47.5v-98.8zm0 18.7v84.3l42.1-41.7zm0 98.2v4.8l47 47.6v-98.9zm0 18.7v84.3l42.2-41.7zm0 98.2v4.8l47 47.6v-98.9zm0 18.7v84.3l42.1-41.7zm0 98.2v4.8l47 47.6v-98.9zm0 18.7v84.3l42.1-41.7zm0 98.2v4.9l47 47.5v-98.9zm0 18.7v84.3l42.2-41.6zm0 98.1v4.9l46.9 47.5v-98.9zm0 18.7v84.3l42.2-41.6zm0 98.1v4.9l47 47.5v-98.9zm0 18.8v84.2l42.1-41.6z"/><path class="f" d="m2011.4 601.6h5.4v1062.4h-5.4z"/><path class="f" d="m1990 512.6l60.6 0.7v70.8l-88.2-1v-43.1z"/><path class="f" d="m2022.3 556.8l287.2 3.3v26.9l-287.2-3.3z"/><path class="f" d="m1271.6 565.7l690.8 7.9v4.7l-690.8-7.8z"/><path fill-rule="evenodd" class="f" d="m1949.4 540.5l-36.1-0.4 25.2 25.5 10.9 0.1v5.2l-657.6-7.5v-5.2l14.8 0.1 25.2-24.9-40-0.4v-5.3l657.6 7.5zm-43.5-0.5h-2.6l-25.2 24.9 53 0.6zm-10-0.1l-45.2-0.5 22.6 22.9zm-52.7-0.6l-2.6-0.1-25.2 25 53 0.6zm-10-0.2l-45.2-0.5 22.6 22.9zm-52.7-0.6h-2.6l-25.2 24.9 53.1 0.6zm-10.1-0.1l-45.2-0.5 22.6 22.8zm-52.6-0.6h-2.6l-25.2 24.9 53 0.6zm-10.1-0.1l-45.2-0.5 22.6 22.9zm-52.6-0.6l-2.6-0.1-25.2 25 53 0.6zm-10-0.2l-45.2-0.5 22.6 22.9zm-52.7-0.6h-2.6l-25.2 24.9 53 0.6zm-10-0.1l-45.2-0.5 22.6 22.8zm-52.6-0.6h-2.7l-25.2 24.9 53.1 0.6zm-10.1-0.1l-45.2-0.5 22.6 22.9zm-52.6-0.6l-2.6-0.1-25.2 24.9 53 0.7zm-10-0.2l-45.3-0.5 22.6 22.9zm-52.6-0.6h-2.6l-25.2 24.9 53 0.6zm-10-0.1l-45.2-0.5 22.6 22.8zm-52.7-0.6h-2.6l-25.2 24.9 53 0.6z"/><path class="f" d="m2014.2 357.3l6 0.1v200.4l-6-0.1z"/><path class="f" d="m1303 529.5l714.4-153.6 236.1 172.7-1.1 1.5-235.4-172.2-713.6 153.5z"/><path class="f" d="m2197.4 546.7l99.7 1.1v26.9l-99.7-1.1z"/><path class="f" d="m2197.4 578.3l99.7 1.2v26.9l-99.7-1.1z"/><path class="f" d="m2197.4 610l99.7 1.1v27l-99.7-1.2z"/><path class="f" d="m2197.4 641.7l99.7 1.1v27l-99.7-1.2z"/><path class="f" d="m2197.4 673.3l99.7 1.2v26.9l-99.7-1.1z"/><path class="f" d="m1592.2 564.6l425.4-191.3 195.3 183.6-1.3 1.4-194.3-182.7-424.3 190.8z"/><path class="f" d="m1978.1 514.9l-25.2 24.9v43.1l-32.1-0.3v-43.1l25.3-25z"/><path class="g" d="m2236.2 578.8l60.9 0.7v26.9l-60.9-0.7z"/><path class="g" d="m2236.2 610.4l60.9 0.7v27l-60.9-0.7z"/><path class="g" d="m2236.2 642.1l60.9 0.7v27l-60.9-0.7z"/><path class="g" d="m2236.2 673.8l60.9 0.7v26.9l-60.9-0.7z"/><path class="f" d="m1295.3 521.9l10.1 0.1v13.6l-10.1-0.1z"/><path class="f" d="m1629.7 525.7l56.4 0.6v13.7l-56.4-0.7z"/><path class="f" d="m1286.4 558.1l14.2 0.2v59.6l-14.2-0.1z"/><path class="f" d="m1449.3 529.5l10.2 0.1v7.8l-10.2-0.2z"/><path class="f" d="m1293.3 552.3l639.4 7.4v1.6l-639.4-7.3z"/><path class="f" d="m1288.8 541.7c5.4 0.1 9.8 4.5 9.8 9.9 0 5.4-4.4 9.7-9.8 9.6-5.3-0.1-9.7-4.5-9.7-9.9 0-5.3 4.4-9.7 9.7-9.6z"/><path class="f" d="m1288.8 520.5c5.4 0.1 9.8 4.5 9.8 9.9 0 5.4-4.4 9.7-9.8 9.7-5.3-0.1-9.7-4.5-9.7-9.9 0-5.4 4.4-9.7 9.7-9.7z"/><path class="n" d="m2013.2 540l37.4 0.4v43.7l-54.5-0.7v-26.6z"/><path class="m" d="m2013.2 540l37.4 0.4v17.1l-54.5-0.7z"/><path class="f" d="m2041.5 540.3l37.4 0.4v43.7l-54.5-0.6v-26.6z"/><path class="f" d="m2041.9 547.2l172.1 1.9v3.1l-172.1-2z"/><path class="f" d="m1906.1 580.1l165 1.9v20.2l-165-1.8z"/><path class="g" d="m1906.1 596l66 0.7v2.7l-66-0.7z"/><path class="f" d="m2014.2 306.1h3.3v79.2h-3.3z"/><path class="o" d="m1995.3 516.5l4.4 0.1v12.4h-4.4z"/><path class="o" d="m1970.7 541.8l4.4 0.1v6.2l-4.4-0.1z"/><path class="g" d="m1970.7 561.1l12.1 0.1v17.3l-12.1-0.2z"/><path class="g" d="m2003 518.3l12.2 0.1v17.3l-12.2-0.2z"/><path class="g" d="m2018.5 531.9l12.1 0.2v3.8l-12.1-0.2z"/><path class="g" d="m2026.7 520.4c2.6 0 4.8 2.2 4.8 4.9 0 2.6-2.2 4.7-4.8 4.7-2.7 0-4.8-2.2-4.8-4.9 0-2.6 2.1-4.7 4.8-4.7z"/><path class="g" d="m2037.9 520.5c2.6 0.1 4.8 2.2 4.8 4.9 0 2.6-2.2 4.8-4.8 4.7-2.7 0-4.8-2.2-4.8-4.8 0-2.7 2.1-4.8 4.8-4.8z"/><path class="g" d="m2043.3 552.2c2.7 0.1 4.8 2.2 4.8 4.9 0 2.6-2.1 4.8-4.8 4.7-2.6 0-4.8-2.2-4.8-4.8 0-2.7 2.2-4.8 4.8-4.8z"/><path class="f" d="m1893.7 580l23.3 0.3v10.1l-23.3-0.3z"/><path class="g" d="m1906.1 587.2l66 0.8v6l-66-0.7z"/><path class="f" d="m1897.1 575h3.7v10.1h-3.7z"/><path class="f" d="m1912.6 574.2h3.7v10.1h-3.7z"/><path class="f" d="m1292.3 565c0.6 0.2 201 57.2 361.7 1.7l0.3-0.1h0.2c0.4 0.1 121.2 32.4 244.3 17.6l0.3 1.9c-120.4 14.5-238.5-15.9-244.7-17.5-161.2 55.6-362-1.5-362.6-1.7z"/><path class="o" d="m1281.6 535.8l12.4 0.1v44l-12.4-0.2z"/><path fill-rule="evenodd" class="f" d="m1282.6 544.5l10.4-3.5v5.5l-10.4 3.6zm0 25.4l10.4-3.5v5.5l-10.4 3.6zm10.4-12v5.5l-10.4 3.5v-5.5zm0-8.5v5.5l-10.3 3.6v-5.6z"/><path class="o" d="m1281.6 527.6h2.4v5.3l-2.4-0.1z"/><path class="o" d="m1298.4 522.8l4.6 0.1v6.6h-4.6z"/><path class="o" d="m1315.2 526.4l86.7 1v5.3l-86.7-1z"/><path class="o" d="m1406.2 527.4l86.6 1v5.3l-86.6-1z"/><path class="o" d="m1699.9 530.8l86.7 1v5.2l-86.7-0.9z"/><path fill-rule="evenodd" class="f" d="m1419.5 569.8l44.1 0.5-7.3 9.3-27.8-0.3-6.9-7.3zm35.5 7.2l3.4-4.2-33-0.4 4.1 4.3z"/><path fill-rule="evenodd" class="f" d="m1811.3 574.3l44.1 0.5-7.3 9.3-27.8-0.3-6.9-7.4zm35.5 7.3l3.3-4.3-32.9-0.3 4.1 4.3z"/><path class="g" d="m2030.4 571.3c1.4 0 2.4 1.1 2.4 2.4 0 1.4-1 2.4-2.4 2.4-1.3 0-2.4-1.1-2.4-2.4 0-1.3 1.1-2.4 2.4-2.4z"/><path class="g" d="m1979.2 588.8l12.1 0.1v8.7l-12.1-0.2z"/><path class="g" d="m1995.2 589l12.1 0.1v8.6l-12.1-0.1z"/><path class="g" d="m2016.1 589.2h3l-3.7 8.6h-3z"/><path class="g" d="m2021.6 589.3h3.1l-3.7 8.6h-3.1z"/><path class="g" d="m2027.2 589.3l3 0.1-3.7 8.6-3-0.1z"/><path class="g" d="m2032.8 589.4h3l-3.7 8.6h-3.1z"/><path class="g" d="m2038.3 589.5h3l-3.7 8.6h-3z"/><path class="g" d="m2043.9 589.5l3 0.1-3.7 8.6-3.1-0.1z"/><path class="g" d="m2049.4 589.6h3.1l-3.8 8.6h-3z"/><path class="g" d="m2055 589.7h3l-3.7 8.6-3-0.1z"/><path class="g" d="m2060.5 589.7l3.1 0.1-3.8 8.5h-3z"/><path class="f" d="m1282.9 1506l24.5 0.3v47.8l-7.8 7.7-8.9-0.1-7.8-7.9z"/><path fill-rule="evenodd" class="f" d="m1289.3 1471.1l14.3 0.2v51.8l-16.9-0.2v-51.8zm9.3 5.2l-6.7-0.1v41.7h6.7z"/><path class="o" d="m1279.6 1494.6l15.7 0.2v55.8l-15.7-0.2z"/><path fill-rule="evenodd" class="f" d="m1280.9 1505.7l13.1-4.5v7.1l-13.1 4.5zm-0.1 32.3l13.2-4.5v7.1l-13.1 4.4zm13.1-15.2v7l-13.1 4.5v-7zm0-10.8l-0.1 7-13.1 4.5v-7z"/><path class="f" d="m1294.6 1448.1c7.4 0 13.5 6.1 13.5 13.6 0 7.4-6.1 13.4-13.5 13.3-7.4-0.1-13.5-6.2-13.5-13.6 0-7.5 6.1-13.4 13.5-13.3z"/><path class="f" d="m1294.6 1418.2c7.4 0.1 13.5 6.1 13.5 13.6 0 7.4-6.1 13.4-13.5 13.3-7.4-0.1-13.5-6.2-13.5-13.6 0-7.5 6.1-13.4 13.5-13.3z"/><path class="f" d="m1300.1 558.3h2.5v990h-2.5z"/><path fill-rule="evenodd" class="f" d="m1294.6 1557.8c7.4 0.1 13.5 6.2 13.5 13.6 0 7.5-6.1 13.4-13.5 13.3-7.4 0-13.5-6.1-13.5-13.6 0-7.4 6.1-13.4 13.5-13.3zm0 5.7c-4.3 0-7.8 3.4-7.8 7.7 0 4.3 3.5 7.8 7.8 7.9 4.3 0 7.8-3.4 7.8-7.7 0-4.3-3.5-7.8-7.8-7.9z"/><path class="f" d="m1292.2 1576.9l3.7 0.1v87h-3.7z"/><path class="f" d="m2015 247l1.5 0.1v79.3l-1.5-0.1z"/><path class="g" d="m1849 1236.9h651v-78.2h-651z"/><path class="j" d="m2500 1189.4v-30.7h-651v30.7z"/><path class="f" d="m1849 1169.5h651v-10.8h-651z"/><path class="b" d="m795.5 1429.9h30.6v52.2h-30.6l-30.5 30.6v-52.2z"/><path class="b" d="m795.5 1372.7h30.6v52.2h-30.6l-30.5 30.5v-52.2z"/><path class="f" d="m2060.3 908.5h439.7v19.1h-156.2l89.1 236.4 13.4 5.1 53.7-142.6v-40.6l-67.1 178.1-13.4 5.1-91-241.5h-2.3l-91 241.5-13.4-5.1-89.1-236.4h178.2l-89.1 236.4-13.4 5.1-90.9-241.5h-2.4l-91 241.5-13.3-5.1 89-236.4h-39.5z"/><path class="f" d="m207.1 1120.9h21.9v42.5h-21.9z"/><path class="f" d="m212.8 1114.8h10.5v33.7h-10.5z"/><path class="j" d="m212.8 1139.4h10.5v13.5h-10.5z"/><path class="j" d="m204.8 1148.5h5.3v4.4h-5.3z"/><path class="j" d="m225.9 1148.5h5.2v4.4h-5.2z"/><path class="f" d="m418 1120.9h21.9v42.5h-21.9z"/><path class="f" d="m423.7 1114.8h10.5v33.7h-10.5z"/><path class="j" d="m423.7 1139.4h10.5v13.5h-10.5z"/><path class="j" d="m415.7 1148.5h5.2v4.4h-5.2z"/><path class="j" d="m436.7 1148.5h5.3v4.4h-5.3z"/><path class="f" d="m840.1 1120.9h21.9v42.5h-21.9z"/><path class="f" d="m845.8 1114.8h10.5v33.7h-10.5z"/><path class="j" d="m845.8 1139.4h10.5v13.5h-10.5z"/><path class="j" d="m837.8 1148.5h5.3v4.4h-5.3z"/><path class="j" d="m858.9 1148.5h5.2v4.4h-5.2z"/><path class="f" d="m629.4 1120.9h21.9v42.5h-21.9z"/><path class="f" d="m635.1 1114.8h10.6v33.7h-10.6z"/><path class="j" d="m635.1 1139.4h10.6v13.5h-10.6z"/><path class="j" d="m627.1 1148.5h5.3v4.4h-5.3z"/><path class="j" d="m648.2 1148.5h5.2v4.4h-5.2z"/><path class="f" d="m0 1120.9h16.1v42.5h-16.1z"/><path class="f" d="m0 1114.8h10.4v33.7h-10.4z"/><path class="j" d="m0 1139.4h10.4v13.5h-10.4z"/><path class="j" d="m12.9 1148.5h5.3v4.4h-5.3z"/><path class="b" d="m324.5 1341.3h56.4v3.8h-56.4z"/><path class="b" d="m324.5 1405.7h56.4v3.8h-56.4z"/><path class="b" d="m324.5 1412h56.4v3.8h-56.4z"/><path class="b" d="m324.5 1570.3h56.4v3.8h-56.4z"/><path class="b" d="m324.5 1425.1h2.3v3.8h-2.3z"/><path class="b" d="m324.5 1431h2.3v3.7h-2.3z"/><path class="b" d="m324.5 1436.8h2.3v3.8h-2.3z"/><path class="b" d="m324.5 1442.7h2.3v3.8h-2.3z"/><path class="b" d="m368.5 1354.1h2.3v3.8h-2.3z"/><path class="b" d="m368.5 1360h2.3v3.8h-2.3z"/><path class="b" d="m368.5 1365.9h2.3v3.8h-2.3z"/><path class="b" d="m368.5 1371.8h2.3v3.8h-2.3z"/><path class="b" d="m368.5 1510.7h2.3v3.8h-2.3z"/><path class="b" d="m368.5 1516.6h2.3v3.8h-2.3z"/><path class="b" d="m368.5 1522.5h2.3v3.8h-2.3z"/><path class="b" d="m368.5 1528.4h2.3v3.8h-2.3z"/><path class="f" d="m0 98.2c189.3 39.1 480.7 52.6 806.4-98.2h58c-347.6 176.1-661.5 164.8-864.4 123.9zm1101.2-98.2c197.5 106.1 592.4 251.8 973.5 0h44.9c-428.7 308.3-880.7 110.6-1070.3 0z"/><path class="f" d="m0 85.2c116.1 29.8 364 69.8 649.1-26.3 66.8-22.5 119.9-42 162-58.9h12.4c-44 18.2-100.5 39.4-172.8 63.7-285.2 96.2-533.4 56.6-650.7 26.7zm1053.2-85.2c107.6 99.2 478.1 364.8 1061.6 0h9.6l-3.4 2.2c-595.6 374.4-971.7 95-1075.3-2.2z"/><path class="f" d="m130.3 106l8.8 1.2-6 42.1-8.8-1.3z"/><path class="f" d="m1130.8 11.8l9.6 4-18.9 46.1-9.7-4z"/><path class="f" d="m1751.6 123.3l10.3-1.7 8.1 49.1-10.3 1.7z"/><path class="f" d="m289 1145.5h51.8v19.8h-51.8z"/><path class="f" d="m334.3 1152.5h33.5v12.8h-33.5z"/><path class="f" d="m12 1163.5c0.5 0.5 177.8 160.5 361.8 0.9l0.6-0.5 0.7 0.3c0.3 0.1 111.5 46.8 196.1-5.5l1.3 2.2c-81.9 50.6-188 9.8-197.6 6-185.5 160.2-364.1-1-364.6-1.5z"/><path class="i" d="m1888.8 1291.8h47.9v372.2h-47.9z"/><path class="f" d="m1775.1 1287.2h10.1v19.3h-10.1z"/><path class="f" d="m1786.1 1293.8h5.1v4.8h-5.1z"/><path class="f" d="m1769.1 1293.8h5.1v4.8h-5.1z"/><path class="f" d="m1846 1287.2h10.1v19.3h-10.1z"/><path class="f" d="m1857 1293.8h5.1v4.8h-5.1z"/><path class="f" d="m1840 1293.8h5.1v4.8h-5.1z"/><path class="f" d="m1916.9 1287.2h10.1v19.3h-10.1z"/><path class="f" d="m1927.9 1293.8h5v4.8h-5z"/><path class="f" d="m1910.9 1293.8h5v4.8h-5z"/><path class="f" d="m1775.1 1306.5h10.1v8.7h-10.1z"/><path class="f" d="m1846 1306.5h10.1v8.7h-10.1z"/><path class="f" d="m1916.9 1306.5h10.1v8.7h-10.1z"/><path class="f" d="m1758.1 1285.1h190v4.6h-190z"/><path class="f" d="m945.1 1287.2h10.1v19.3h-10.1z"/><path class="f" d="m956.1 1293.8h5.1v4.8h-5.1z"/><path class="f" d="m939.1 1293.8h5.1v4.8h-5.1z"/><path class="f" d="m1016 1287.2h10.1v19.3h-10.1z"/><path class="f" d="m1027 1293.8h5v4.8h-5z"/><path class="f" d="m1010 1293.8h5v4.8h-5z"/><path class="f" d="m1086.9 1287.2h10.1v19.3h-10.1z"/><path class="f" d="m1097.9 1293.8h5v4.8h-5z"/><path class="f" d="m1080.9 1293.8h5v4.8h-5z"/><path class="f" d="m945.1 1304h10.1v11.2h-10.1z"/><path class="f" d="m1016 1304h10.1v11.2h-10.1z"/><path class="f" d="m1086.9 1304h10.1v11.2h-10.1z"/><path class="f" d="m928.1 1285.1h190v4.6h-190z"/><path class="f" d="m127.8 1287.2h10.1v19.3h-10.1z"/><path class="f" d="m138.8 1293.8h5v4.8h-5z"/><path class="f" d="m121.8 1293.8h5v4.8h-5z"/><path class="f" d="m198.6 1287.2h10.2v19.3h-10.2z"/><path class="f" d="m209.6 1293.8h5.1v4.8h-5.1z"/><path class="f" d="m192.6 1293.8h5.1v4.8h-5.1z"/><path class="f" d="m269.5 1287.2h10.1v19.3h-10.1z"/><path class="f" d="m280.5 1293.8h5.1v4.8h-5.1z"/><path class="f" d="m263.5 1293.8h5.1v4.8h-5.1z"/><path class="f" d="m127.8 1303.2h10.1v12h-10.1z"/><path class="f" d="m198.6 1303.2h10.2v12h-10.2z"/><path class="f" d="m269.5 1303.2h10.1v12h-10.1z"/><path class="f" d="m110.7 1285.1h190.1v4.6h-190.1z"/><path class="f" d="m1778.5 1310h3.1v354h-3.1z"/><path class="f" d="m2005.9 1120.9h21.8v42.5h-21.8z"/><path class="f" d="m2011.5 1114.8h10.6v33.7h-10.6z"/><path class="j" d="m2011.5 1139.4h10.6v13.5h-10.6z"/><path class="j" d="m2003.5 1148.5h5.3v4.4h-5.3z"/><path class="j" d="m2024.6 1148.5h5.2v4.4h-5.2z"/><path class="f" d="m2211.2 1120.9h21.9v42.5h-21.9z"/><path class="f" d="m2216.9 1114.8h10.6v33.7h-10.6z"/><path class="j" d="m2216.9 1139.4h10.6v13.5h-10.6z"/><path class="j" d="m2208.9 1148.5h5.3v4.4h-5.3z"/><path class="j" d="m2230 1148.5h5.2v4.4h-5.2z"/><path class="f" d="m2422.3 1120.9h21.9v42.5h-21.9z"/><path class="f" d="m2428 1114.8h10.6v33.7h-10.6z"/><path class="j" d="m2428 1139.4h10.6v13.5h-10.6z"/><path class="j" d="m2420 1148.5h5.3v4.4h-5.3z"/><path class="j" d="m2441.1 1148.5h5.2v4.4h-5.2z"/><path class="f" d="m1005 1366.9h49.9v78.2h-49.9v-50.8h25.3v4.8l-18.8 29h8.8l17.8-26v-15.6h-33.1z"/><path fill-rule="evenodd" class="f" d="m1833.4 1366.9h49.9v78.2h-49.9zm44.2 23.7l-4.1-4.2h-29.2l-4.1 4.2v12.4l4.1 4.2-4.1 4.2v12.4l4.1 4.2h29.2l4.1-4.2v-12.4l-4.1-4.2 4.1-4.2zm-11.3 12.8h-14.8l-3-3v-6.1h20.8v6.1zm-14.9 7.8h14.9l3 3v6.1h-20.8v-6.1z"/><path class="f" d="m170.7 1285.1l2 0.6-12.4 233-2-0.5z"/><path class="f" d="m0 1535.8h1170.7v5.6h-1170.7z"/><path class="f" d="m47.4 1526c0.1 0.2 34.2 52.1 117.6-0.3l0.4-0.2 0.5 0.2c0.3 0.1 103.7 51.4 254 11h0.1 0.2c0.7 0.1 219.6 32.3 287.4 3.8l0.3-0.1h0.3c0.7 0.2 218.3 52.8 331.1-1.9l0.9 1.7c-111.4 54-323.6 4.2-332.1 2.2-67.7 28.1-280.7-2.7-287.9-3.7-145.3 38.9-247-7.4-254.6-11-84.7 52.9-119.7-0.4-119.8-0.6z"/><path class="f" d="m138.9 1479.1c1.4 0 2.7 1.2 2.7 2.7v3.3c0 1.5-1.3 2.7-2.7 2.7-1.5 0-2.7-1.2-2.7-2.7v-3.3c0-1.5 1.2-2.7 2.7-2.7z"/><path class="f" d="m138.9 1486.7c2.7 0 5 2.2 5 5v6.3c0 2.8-2.3 5.1-5 5.1-2.8 0-5.1-2.3-5.1-5.1v-6.3c0-2.8 2.3-5 5.1-5z"/><path class="f" d="m137.7 1483.5c1.5 0 2.7 1.2 2.7 2.7v0.4c0 1.4-1.2 2.6-2.7 2.6-1.5 0-2.7-1.2-2.7-2.6v-0.4c0-1.5 1.2-2.7 2.7-2.7z"/><path class="f" d="m140 1483.6c1.5 0 2.7 1.2 2.7 2.7v3.4c0 1.4-1.2 2.7-2.7 2.7-1.4 0-2.6-1.3-2.6-2.7v-3.4c0-1.5 1.2-2.7 2.6-2.7z"/><path class="f" d="m136.3 1496.9c1.4 0 2.6 1.2 2.6 2.6v10.4c0 1.4-1.2 2.5-2.6 2.5-1.4 0-2.5-1.1-2.5-2.5v-10.4c0-1.4 1.1-2.6 2.5-2.6z"/><path class="f" d="m136.3 1506.9c1.4 0 2.6 1.1 2.6 2.5v10.4c0 1.4-1.2 2.5-2.6 2.5-1.4 0-2.5-1.1-2.5-2.5v-10.4c0-1.4 1.1-2.5 2.5-2.5z"/><path class="f" d="m140.5 1496.9c1.4 0 2.7 1.2 2.9 2.6l1.4 10.4c0.2 1.4-0.8 2.5-2.2 2.5-1.4 0-2.7-1.1-2.9-2.5l-1.3-10.4c-0.2-1.4 0.8-2.6 2.1-2.6z"/><path class="f" d="m141.9 1506.9c1.4 0 2.6 1.1 2.8 2.5l1.4 10.4c0.2 1.4-0.8 2.5-2.2 2.5-1.4 0-2.7-1.1-2.8-2.5l-1.4-10.4c-0.2-1.4 0.8-2.5 2.2-2.5z"/><path class="f" d="m137.2 1485.7c-1.1-0.3-2.3 0.3-2.8 1.3l-3.3 7.7c-0.5 1 0 2.1 1.1 2.4 1 0.3 2.3-0.2 2.7-1.3l3.4-7.6c0.4-1.1-0.1-2.1-1.1-2.5z"/><path class="f" d="m140 1486.1c1.1-0.3 2.4 0.2 3 1.3l3.9 7.9c0.5 1.1 0 2.3-1.1 2.7-1.1 0.3-2.4-0.2-3-1.3l-3.9-8c-0.5-1 0-2.2 1.1-2.6z"/><path class="f" d="m144 1494.1c0.8-0.3 1.8 0.1 2.2 0.9l2.9 5.9c0.4 0.8 0 1.6-0.8 1.9-0.8 0.3-1.8-0.1-2.2-0.9l-2.9-5.9c-0.4-0.8 0-1.6 0.8-1.9z"/><path class="f" d="m132.3 1494.2c0.8-0.3 1.8 0.2 2.2 0.9l2.9 5.9c0.4 0.8 0 1.7-0.8 1.9-0.8 0.3-1.8-0.1-2.2-0.9l-2.9-5.9c-0.4-0.7 0-1.6 0.8-1.9z"/><path class="f" d="m113 1347.3c1.5 0 2.7 1.2 2.7 2.7v3.3c0 1.5-1.2 2.7-2.7 2.7-1.5 0-2.7-1.2-2.7-2.7v-3.3c0-1.5 1.2-2.7 2.7-2.7z"/><path class="f" d="m113 1354.9c2.8 0 5 2.3 5 5v6.4c0 2.7-2.2 5-5 5-2.8 0-5.1-2.3-5.1-5v-6.4c0-2.7 2.3-5 5.1-5z"/><path class="f" d="m111.8 1351.7c1.5 0 2.7 1.2 2.7 2.7v0.4c0 1.4-1.2 2.7-2.7 2.7-1.5 0-2.7-1.3-2.7-2.7v-0.4c0-1.5 1.2-2.7 2.7-2.7z"/><path class="f" d="m114.2 1351.8c1.5 0 2.7 1.2 2.7 2.7v3.4c0 1.5-1.2 2.7-2.7 2.7-1.5 0-2.7-1.2-2.7-2.7v-3.4c0-1.5 1.2-2.7 2.7-2.7z"/><path class="f" d="m108.3 1367.6c1.3-0.7 2.8-0.2 3.4 1.1l4.8 9.3c0.6 1.2 0.1 2.7-1.1 3.4-1.3 0.6-2.8 0.1-3.4-1.1l-4.8-9.3c-0.6-1.3-0.1-2.8 1.1-3.4z"/><path class="f" d="m116 1379.6c-0.3 1.3-1.6 2.2-3 1.9l-10.2-2c-1.4-0.3-2.2-1.6-2-3 0.3-1.3 1.6-2.2 3-2l10.2 2.1c1.4 0.3 2.3 1.6 2 3z"/><path class="f" d="m114.3 1366c1.3-0.3 2.8 0.5 3.3 1.9l3.5 9.9c0.5 1.3-0.2 2.6-1.6 2.9-1.4 0.3-2.9-0.6-3.3-1.9l-3.6-9.9c-0.4-1.3 0.3-2.6 1.7-2.9z"/><path class="f" d="m111.3 1353.9c-1.1-0.3-2.3 0.3-2.8 1.3l-3.3 7.7c-0.5 1 0 2.1 1.1 2.4 1.1 0.3 2.3-0.2 2.7-1.3l3.4-7.6c0.5-1.1 0-2.1-1.1-2.5z"/><path class="f" d="m114.1 1354.3c1.1-0.3 2.5 0.2 3 1.3l3.9 7.9c0.5 1.1 0 2.3-1.1 2.7-1.1 0.3-2.4-0.2-2.9-1.3l-3.9-8c-0.6-1-0.1-2.2 1-2.6z"/><path class="f" d="m118.1 1362.3c0.9-0.3 1.9 0.1 2.2 0.9l2.9 5.9c0.4 0.8 0.1 1.6-0.8 1.9-0.8 0.3-1.8-0.1-2.2-0.9l-2.8-5.9c-0.4-0.8-0.1-1.6 0.7-1.9z"/><path class="f" d="m106.4 1362.4c0.8-0.3 1.8 0.2 2.2 0.9l2.9 5.9c0.4 0.8 0 1.7-0.8 2-0.8 0.2-1.8-0.2-2.2-1l-2.9-5.9c-0.4-0.7 0-1.6 0.8-1.9z"/><path class="l" d="m905.9 1242.6h8.3l9.2 12.9h-8.3z"/><path class="l" d="m918.1 1242.6h8.3l9.1 12.9h-8.3z"/><path class="l" d="m930.2 1242.6h8.3l9.2 12.9h-8.3z"/><path class="l" d="m1144.4 1242.6h-8.3l-9.2 12.9h8.3z"/><path class="l" d="m1132.2 1242.6h-8.3l-9.2 12.9h8.3z"/><path class="l" d="m1120.1 1242.6h-8.3l-9.2 12.9h8.3z"/><path fill-rule="evenodd" class="f" d="m1180.7 1098v566h-6.6v-26.8l-26.8 26.8h-11.4v-566h6.6v13.7l31.6 31.6v-45.3zm-38.2 23v66.6l31.6-31.7v-3.2zm3.3 72.6l28.4 28.3v-56.7zm-3.3 6v66.6l31.6-31.6v-3.3zm3.3 72.6l28.4 28.3v-56.7zm-3.3 6.1v66.5l31.6-31.6v-3.3zm3.3 72.6l28.3 28.4v-56.8zm-3.2 6.1v66.5l31.6-31.6v-3.3zm3.3 72.6l28.3 28.4v-56.8zm-3.2 6.1v66.5l31.6-31.6v-3.3zm3.3 72.6l28.3 28.4v-56.7zm-3.2 6v66.6l31.6-31.7v-3.3zm3.3 72.6l28.3 28.4v-56.7zm-3.2 6v66.6l31.6-31.7v-3.2z"/><path fill-rule="evenodd" class="f" d="m663.9 0l-98 1664h-36.6l14.2-240.4-186.1 175.7-1.1 18.3 43.7 46.4h-83l98-1664h36.6l-13.9 236.7 166.8-157.6-74.4-79.1h51.7l42.9 45.5 2.6-45.5zm-229.3 288.5l-1 18.2 165.3 175.7 21.8-369.7zm-4.1 70.1l-18.6 315.1 166.9-157.6zm-21.7 367l-1 18.2 165.3 175.7 21.8-369.7zm-4.1 70l-18.6 315.2 166.9-157.6zm-21.6 367l-1.1 18.2 165.4 175.7 21.7-369.7zm-4.1 70.1l-18.6 315.1 166.9-157.6z"/><path fill-rule="evenodd" class="f" d="m619.4 756.1l-53.5 907.9h-36.6l14.2-240.4-186.1 175.7-1.1 18.3 43.7 46.4h-83l68.1-1156.9 34.5 36.6-7.7 130 68.8-65 24.4 25.9-96.2 90.8-1.1 18.3 165.4 175.7 11.8-199.9zm-214.7 39.3l-18.6 315.2 166.9-157.6zm-21.6 367l-1.1 18.2 165.4 175.7 21.8-369.7zm-4.2 70l-18.5 315.2 166.8-157.6z"/><path class="f" d="m503.2 0l-117.1 1664h-12.7l117-1664z"/><path class="f" d="m0 301.9c24.3 33.8 49.9 61.3 76.5 82.8 54.1 43.7 112 62.6 169.9 59.6 58-3 116.3-27.9 170.7-71.9 92.1-74.6 173.2-203.4 224.4-372.4h13.2c-51.9 173.4-135 305.7-229.7 382.3-56.5 45.6-117.2 71.6-178 74.7-60.9 3.1-121.8-16.6-178.4-62.4-23.7-19.2-46.7-42.9-68.6-71.5z"/><path class="f" d="m0 391c32.8 39.2 67.8 56.2 102.7 53.3 36.8-3 73.7-27.9 108.3-71.9 58.4-74.6 109.9-203.4 142.4-372.4h8.4c-33 173.4-85.7 305.7-145.8 382.3-35.8 45.6-74.4 71.6-112.9 74.7-35.1 2.8-70.1-13.1-103.1-50.2z"/><path class="f" d="m1876.4 1224.5h15.5v24.6h-15.5z"/><path class="f" d="m2157.6 1224.5h15.5v24.6h-15.5z"/><path class="f" d="m2456.3 1224.5h15.5v24.6h-15.5z"/><path class="f" d="m1867.7 1242h632.3v3.7h-632.3z"/><path class="f" d="m2330.3 1303.7h77.5v22.9h-77.5z"/><path class="f" d="m2336.9 1243.6h1v67.7h-1z"/><path class="f" d="m2398.7 1243.6h1v67.7h-1z"/><path class="f" d="m2323.9 1307.7h12.8v11.5h-12.8z"/><path class="f" d="m2334.9 1317.5h37v11.4h-37z"/><path class="f" d="m2333 1300.8h37.1v2h-37.1z"/><path class="f" d="m2386.2 1300.8h21.6v2h-21.6z"/><path class="g" d="m2330.3 1303.7h77.5v13.8h-77.5z"/><path class="f" d="m2324.3 1240.7h26.9v11.3h-26.9z"/><path class="f" d="m2332.7 1247.8c2.3 0 4.2 1.8 4.2 4.2 0 2.3-1.9 4.2-4.2 4.2-2.3 0-4.2-1.9-4.2-4.2 0-2.4 1.9-4.2 4.2-4.2z"/><path class="f" d="m2342.3 1247.8c2.3 0 4.2 1.8 4.2 4.2 0 2.3-1.9 4.2-4.2 4.2-2.3 0-4.2-1.9-4.2-4.2 0-2.4 1.9-4.2 4.2-4.2z"/><path class="f" d="m2386.1 1240.7h26.9v11.3h-26.9z"/><path class="f" d="m2394.5 1247.8c2.3 0 4.2 1.8 4.2 4.2 0 2.3-1.9 4.2-4.2 4.2-2.3 0-4.2-1.9-4.2-4.2 0-2.4 1.9-4.2 4.2-4.2z"/><path class="f" d="m2404.1 1247.8c2.3 0 4.2 1.8 4.2 4.2 0 2.3-1.9 4.2-4.2 4.2-2.3 0-4.2-1.9-4.2-4.2 0-2.4 1.9-4.2 4.2-4.2z"/><path class="f" d="m688.3 1331.2h77.5v22.9h-77.5z"/><path class="f" d="m694.9 1271.1h1v67.7h-1z"/><path class="f" d="m756.7 1271.1h1v67.7h-1z"/><path class="f" d="m681.9 1335.2h12.8v11.5h-12.8z"/><path class="f" d="m692.9 1345h37v11.5h-37z"/><path class="f" d="m691 1328.3h37.1v2.1h-37.1z"/><path class="f" d="m744.2 1328.3h21.6v2.1h-21.6z"/><path class="g" d="m688.3 1331.2h77.5v13.8h-77.5z"/><path class="f" d="m682.3 1268.2h26.9v11.3h-26.9z"/><path class="f" d="m690.7 1275.3c2.3 0 4.2 1.9 4.2 4.2 0 2.3-1.9 4.2-4.2 4.2-2.3 0-4.2-1.9-4.2-4.2 0-2.3 1.9-4.2 4.2-4.2z"/><path class="f" d="m700.3 1275.3c2.3 0 4.2 1.9 4.2 4.2 0 2.3-1.9 4.2-4.2 4.2-2.3 0-4.2-1.9-4.2-4.2 0-2.3 1.9-4.2 4.2-4.2z"/><path class="f" d="m744.1 1268.2h26.9v11.3h-26.9z"/><path class="f" d="m752.5 1275.3c2.3 0 4.2 1.9 4.2 4.2 0 2.3-1.9 4.2-4.2 4.2-2.3 0-4.2-1.9-4.2-4.2 0-2.3 1.9-4.2 4.2-4.2z"/><path class="f" d="m762.1 1275.3c2.3 0 4.2 1.9 4.2 4.2 0 2.3-1.9 4.2-4.2 4.2-2.3 0-4.2-1.9-4.2-4.2 0-2.3 1.9-4.2 4.2-4.2z"/><path class="f" d="m0 134.6l1748.9-134.6h66.3l-1815.2 139.6z"/><path class="f" d="m0 100.4c455.5-12.9 2077.6-66.1 2500-79.9v5c-422.7 13.9-2044.6 67-2500 80z"/><path class="f" d="m94 0c97.3 372.1 400.6 1366.2 810.1 1116.5l1 1.3c-417.1 254.4-721.4-745.9-818.2-1117.8z"/><path class="f" d="m376.7 0c72.3 372.1 297.8 1366.2 602.2 1116.5l0.7 1.3c-310 254.4-536.2-745.9-608.2-1117.8z"/><path class="f" d="m893.5 1120h95.7v11.5h-95.7z"/><path class="f" d="m930.3 1120h22.2v44h-22.2z"/><path class="f" d="m905.9 1120h4.2v44h-4.2z"/><path class="f" d="m905.9 1115.3h4.2v9.4h-4.2z"/><path class="f" d="m937.6 1115.3h4.2v9.4h-4.2z"/><path class="f" d="m946 1115.3h4.2v9.4h-4.2z"/><path class="f" d="m977.5 1115.3h4.2v9.4h-4.2z"/><path class="f" d="m968.2 1120h4.2v44h-4.2z"/><path class="f" d="m893.5 1158.1h95.7v11.4h-95.7z"/><path class="f" d="m920.1 1124.7v539.3h-1.9v-539.3z"/><path class="f" d="m934.6 1124.7v539.3h-1.9v-539.3z"/><path class="f" d="m983.1 1124.7v539.3h-1.9v-539.3z"/><path fill-rule="evenodd" class="f" d="m266.2 1098v566h-6.6v-26.8l-26.8 26.8h-11.4v-566h6.6v13.7l31.6 31.6v-45.3zm-38.2 23v66.6l31.6-31.7v-3.2zm3.3 72.6l28.3 28.3v-56.7zm-3.2 6v66.6l31.6-31.6v-3.3zm3.3 72.6l28.3 28.3v-56.7zm-3.2 6.1v66.5l31.6-31.6v-3.3zm3.3 72.6l28.3 28.4v-56.8zm-3.2 6.1v66.5l31.6-31.6v-3.3zm3.3 72.6l28.3 28.4v-56.8zm-3.2 6.1v66.5l31.6-31.6v-3.3zm3.3 72.6l28.3 28.4v-56.7zm-3.2 6v66.6l31.6-31.7v-3.3zm3.2 72.6l28.4 28.4v-56.7zm-3.3 6v66.6l31.7-31.7v-3.2z"/><path class="f" d="m104.9 43.6c8.1 0 14.7 4.4 14.7 9.9 0 5.5-6.6 9.9-14.7 9.9-8 0-14.6-4.4-14.6-9.9 0-5.5 6.6-9.9 14.6-9.9z"/><path class="f" d="m100.9 29.8c8.1 0 14.7 4.4 14.7 9.9 0 5.5-6.6 9.9-14.7 9.9-8.1 0-14.6-4.4-14.6-9.9 0-5.5 6.5-9.9 14.6-9.9z"/><path class="f" d="m96.9 15.6c8.1 0 14.6 4.5 14.6 9.9 0 5.5-6.5 10-14.6 10-8.1 0-14.7-4.5-14.7-10 0-5.4 6.6-9.9 14.7-9.9z"/><path class="f" d="m385.9 46.6c8.1 0 14.7 4.4 14.7 9.9 0 5.5-6.6 10-14.7 10-8 0-14.6-4.5-14.6-10 0-5.5 6.6-9.9 14.6-9.9z"/><path class="f" d="m381.9 32.8c8.1 0 14.7 4.4 14.7 9.9 0 5.5-6.6 10-14.7 10-8.1 0-14.6-4.5-14.6-10 0-5.5 6.5-9.9 14.6-9.9z"/><path class="f" d="m377.9 18.6c8 0 14.6 4.5 14.6 10 0 5.5-6.6 9.9-14.6 9.9-8.1 0-14.7-4.4-14.7-9.9 0-5.5 6.6-10 14.7-10z"/><path class="f" d="m676.5 974.6c4.3 0 7.8 2.4 7.8 5.3 0 2.9-3.5 5.3-7.8 5.3-4.3 0-7.8-2.4-7.8-5.3 0-2.9 3.5-5.3 7.8-5.3z"/><path class="f" d="m647.9 922.3c4.4 0 7.8 2.3 7.8 5.3 0 2.9-3.4 5.2-7.8 5.2-4.3 0-7.7-2.3-7.7-5.2 0-3 3.4-5.3 7.7-5.3z"/><path class="f" d="m105.9 53.3c0.6 3.3 219.3 1148.9 535.6 876.3l3.1-2.8 1.3 1.5-3.2 2.8c-318.7 274.7-538.1-874.1-538.7-877.4z"/><path fill-rule="evenodd" class="d" d="m0 1589.5q6.3-0.2 12.8-0.4c448.5-12.7 646.5 63 1082-22.6 132.5-26 236.3-50.1 327.7-71.2 48.4-11.2 115.5-25.8 193.7-41.6 129.1-21.3 257.6-38.9 450.8-56.3 154.2-13.9 304.9-24.9 433-33.1v47.2c-128.1-4.2-278.8-6.3-433-1.9-283.3 7.9-427.7 41.3-638.6 90.2-91.8 21.2-196.1 63.1-329.8 89.4-446 87.7-644.7-6.7-1092.5 6.1q-3.1 0.1-6.1 0.2zm2500-267v3.3c-210.6 19.6-567.1 73.9-829.3 116.8 262.2-51.9 618.7-112.9 829.3-120.1z"/><path class="d" d="m2104.9 1496.6c0 0 1.2-0.4 3.1-0.3l0.3 2.3c-2-1-3.4-2-3.4-2z"/><path class="d" d="m2082.4 1475.9c0 0 17.1 5 23 20.5l-6.4-0.8c-0.6-4-3.5-12.5-16.6-19.7z"/><path class="f" d="m2108.1 1497.8c0 0-5-4.5-12.1-3.2 5.5 4.7 12.1 3.2 12.1 3.2z"/><path class="f" d="m2128.4 1485.3c0 0-17.6-2.1-29 9.8l6.1 1.8c2.1-3.5 8.1-10.1 22.9-11.6z"/><path class="f" d="m2106 1497.3c0 0 2-0.2 4.4 0l-2.3 1.7c-1.6-0.9-2.1-1.7-2.1-1.7z"/><path class="d" d="m1557.7 909c0 0-41.7-11.7-16 14.9l18.6 6.7c-9.6-8.1-24.8-23.1-2.6-21.6z"/><path class="d" d="m1552.9 927.6c0 0 2.7-0.7 7-0.1l0.3 5.3c-4.4-2.6-7.3-5.2-7.3-5.2z"/><path class="f" d="m1559.8 931c0 0-10.4-11.2-26.9-9.7 11.7 11.8 26.9 9.7 26.9 9.7z"/><path class="f" d="m1606.7 912.1c0 0-39.4-8.6-66.2 11.4l13.7 4.9c5.1-6.1 19.1-17.3 52.5-16.3z"/><path class="f" d="m1555.2 929.4c0 0 4.6 0 10 1l-5.6 3.2c-3.3-2.2-4.4-4.2-4.4-4.2z"/><path class="d" d="m1631.7 1328.7c0 0-22-8-9.2 7.4l9.7 4.4c-4.9-4.8-12.4-13.5-0.5-11.8z"/><path class="d" d="m1628.3 1338.5c0 0 1.5-0.2 3.8 0.3v2.8c-2.3-1.5-3.8-3.1-3.8-3.1z"/><path class="f" d="m1631.9 1340.7c0 0-5.1-6.5-14-6.4 5.8 6.8 14 6.4 14 6.4z"/><path class="f" d="m1657.9 1332.4c0 0-20.8-6.2-36.1 3.4l7.2 3.2c3-3 11-8.5 28.9-6.6z"/><path class="f" d="m1629.5 1339.6c0 0 2.4 0.2 5.3 0.9l-3.1 1.5c-1.7-1.3-2.2-2.4-2.2-2.4z"/><path fill-rule="evenodd" class="f" d="m1052.5 1119.5q0.4 0 0.7 0.1h0.8c1.1 0 2 0.9 2 2q0 0.3 0 0.6h0.3c0.4 0 0.7 0.3 0.7 0.7 0 0.4-0.3 0.7-0.7 0.7h-1.1v0.9c0.4 0.3 0.8 0.7 1 1.2l3.8-3.3c0.4-0.3 0.9-0.5 1.3-0.5l3.6-3c0.6-0.6 1.6-0.4 2 0.3 0.5 0.7 0.3 1.8-0.3 2.3l-3.4 2.9c-0.1 0.6-0.4 1.2-0.9 1.6l-5.1 4.3q0.3 0.9 0.4 1.8v6.4q-0.1 1-0.5 2l1.2 9.2h0.1v0.1 0.5l1.3 9.9c0.2 1.4-0.8 2.5-2.1 2.5-1.4 0-2.7-1.1-2.9-2.5l-1.3-9.8v-0.1l-0.1-0.5-0.8-6.1v16.5c0 1.4-1.1 2.5-2.5 2.5-1.4 0-2.6-1.1-2.6-2.5v-18.3c-1.3 0-2.3-1.1-2.1-2.5l1.4-10.4c0.1-1.1 0.9-2 1.9-2.4 0-0.9 0.5-1.7 1.2-2.2v-2.2-0.3q0-0.2 0-0.3c0-1.1 0.9-2 2-2q0.3-0.1 0.7-0.1zm15.5 8.7c0.8-0.3 1.8 0.1 2.2 0.9l1.3 2.7 1.9-4.3q0.2-0.5 0.5-0.8v-0.1c0-0.9 0.5-1.7 1.2-2.2v-0.8h-0.7c-0.5 0-0.8-0.4-0.8-0.8 0-0.4 0.3-0.7 0.8-0.7h0.2q-0.1-0.3-0.1-0.6c0-1.1 0.9-2 2-2h1.4 0.1c1.4 0.1 2.5 1.2 2.5 2.7v2.3c0.7 0.5 1.2 1.3 1.2 2.2v0.7q0.1 0.2 0.2 0.4l3.9 8c0.2 0.4 0.3 0.9 0.2 1.3l2 4.2c0.4 0.8 0.1 1.6-0.8 1.9-0.8 0.3-1.8-0.1-2.2-0.9l-1.9-4-0.2-0.1v0.3q-0.1 1-0.5 2l1.2 9.2h0.1v0.1 0.5l1.3 9.9c0.2 1.4-0.8 2.5-2.1 2.5-1.4 0-2.7-1.1-2.9-2.5l-1.3-9.8v-0.1l-0.1-0.5-0.8-6.1v16.5c0 1.4-1.1 2.5-2.5 2.5-1.4 0-2.6-1.1-2.6-2.5v-20.3q0-0.3 0.1-0.6-0.1-0.4-0.1-0.8v-1.1c-0.5 0.2-1 0.3-1.6 0.1-0.9-0.2-1.4-1.1-1.2-1.9l-2.7-5.5c-0.4-0.8-0.1-1.7 0.8-1.9z"/><path class="d" d="m1982.5 1189.4v-5h-108.2v5z"/><path class="d" d="m2026.2 1189.4v-5h-18.8v5z"/><path class="d" d="m2154.2 1189.4v-5h-18.9v5z"/><path class="d" d="m1370.6 1189.4v-5h-30v5z"/><path class="d" d="m1128.8 684.2v-4.9l-274.8-11.8v4.9z"/><path class="e" d="m1383.4 1529.6h33.5v123.7h-67.1v-90.2z"/><path class="d" d="m1098.1 193.3c0 0-105-29.6-40.4 37.3l47 17c-24.3-20.4-62.4-58.1-6.6-54.3z"/><path class="d" d="m1086 239.9c0 0 6.8-1.7 17.7-0.2l0.7 13.4c-11.2-6.5-18.4-13.2-18.4-13.2z"/><path class="f" d="m1103.3 248.7c0 0-26-28.4-67.5-24.5 29.4 29.6 67.5 24.5 67.5 24.5z"/><path class="f" d="m1221.4 200.9c0 0-99.2-21.5-166.6 28.7l34.4 12.4c12.8-15.2 48-43.5 132.2-41.1z"/><path class="f" d="m1091.9 244.5c0 0 11.3 0 25 2.5l-13.9 8.1c-8.5-5.5-11.1-10.6-11.1-10.6z"/></svg>