<svg version="1.2" xmlns="http://www.w3.org/2000/svg" viewBox="0 0 135 1927" width="135" height="1927"><style>.a{fill:#63393f}.b{fill:#82595e}.c{fill:#f5a748}</style><path class="a" d="m49.8 1790.7l31 1.3v104.5l-31-1.3z"/><path class="a" d="m13 1789.1l67.8 2.9v30.7l-67.8-2.9c-6.2-0.2-11.2-5.5-11.2-11.8v-8.1c0-6.2 5-11 11.2-10.8z"/><path class="a" d="m49.8 1877.8l79 3.4v15.4l-15.3 14.6-63.7-2.6z"/><path class="a" d="m24.4 1776.9l33.8 1.4v30.7l-33.8-1.4z"/><path class="a" d="m32.8 1730.7l17 0.7v77.3l-17-0.8z"/><path class="a" d="m15.9 1784.8l16.9 0.8v8.8l-16.9-0.8z"/><path class="b" d="m40.6 1797.9l28.6 1.2v9l-28.6-1.2z"/><path class="b" d="m70.3 1850.1l-2.2 2.2 6.3 6.6 2.3-2.2z"/><path class="b" d="m70.3 1819.5l-2.2-2.3 6.3-6.1 2.3 2.3z"/><path class="a" d="m18.1 1660l46.4 1.9v111.4l-46.4-2z"/><path class="c" d="m24.2 1668.4l33.9 15.2v14.1l-33.9-15.2z"/><path class="c" d="m24.2 1690.6l33.9 15.2v14.2l-33.9-15.3z"/><path class="c" d="m24.2 1712.8l33.9 15.3v14.1l-33.9-15.3z"/><path class="c" d="m24.2 1735.1l33.9 15.2v14.1l-33.9-15.2z"/><path class="a" d="m24.5 1655.5l33.6 1.4v7.4l-33.6-1.4z"/><path class="a" d="m43.8 0v1663.7l-5-0.6v-1663.1z"/></svg>