<svg version="1.2" xmlns="http://www.w3.org/2000/svg" viewBox="0 0 135 1927" width="135" height="1927"><style>.a{fill:#63393f}.b{fill:#82595e}.c{fill:#f5a748}</style><path class="a" d="m80.8 1790.7l-31 1.3v104.5l31-1.3z"/><path class="a" d="m117.6 1789.1l-67.8 2.9v30.7l67.8-2.9c6.2-0.2 11.2-5.5 11.2-11.8v-8.1c0-6.2-5-11-11.2-10.8z"/><path class="a" d="m80.8 1877.8l-79 3.4v15.4l15.3 14.6 63.7-2.6z"/><path class="a" d="m106.2 1776.9l-33.8 1.4v30.7l33.8-1.4z"/><path class="a" d="m97.8 1730.7l-17 0.7v77.3l17-0.8z"/><path class="a" d="m114.7 1784.8l-16.9 0.8v8.8l16.9-0.8z"/><path class="b" d="m90 1797.9l-28.6 1.2v9l28.6-1.2z"/><path class="b" d="m60.3 1850.1l2.2 2.2-6.3 6.6-2.3-2.2z"/><path class="b" d="m60.3 1819.5l2.2-2.3-6.3-6.1-2.3 2.3z"/><path class="a" d="m112.5 1660l-46.4 1.9v111.4l46.4-2z"/><path class="c" d="m106.4 1668.4l-33.9 15.2v14.1l33.9-15.2z"/><path class="c" d="m106.4 1690.6l-33.9 15.2v14.2l33.9-15.3z"/><path class="c" d="m106.4 1712.8l-33.9 15.3v14.1l33.9-15.3z"/><path class="c" d="m106.4 1735.1l-33.9 15.2v14.1l33.9-15.2z"/><path class="a" d="m106.1 1655.5l-33.6 1.4v7.4l33.6-1.4z"/><path class="a" d="m86.8 0v1663.7l5-0.6v-1663.1z"/></svg>