<svg version="1.2" xmlns="http://www.w3.org/2000/svg" viewBox="0 0 2334 473" width="2334" height="473">
	<title>ofrenda-preview (1)</title>
	<style>
		.s0 { fill: #491756 } 
	</style>
	<path id="Path 0" class="s0" d="m0 231.5v231.5c24.6-19.8 39.8-31.3 49.6-38.5 9.9-7.1 26-18.4 35.9-25.1 9.9-6.7 25.2-16.6 34-22.1 8.8-5.5 23.7-14.5 33-20 9.3-5.5 24.9-14.3 34.5-19.5 9.6-5.3 29.7-15.6 44.5-23 14.8-7.5 35.6-17.5 46-22.3 10.4-4.8 26.9-12.1 36.5-16.2 9.6-4.1 27.4-11.4 39.5-16.3 12.1-4.8 31.7-12.4 43.5-16.8 11.8-4.4 34.3-12.3 50-17.6 15.7-5.4 41.1-13.5 56.5-18.1 15.4-4.6 38.8-11.4 52-15 13.2-3.6 34.6-9.2 47.5-12.5 12.9-3.2 36.8-8.8 53-12.4 16.2-3.6 37.6-8.2 47.5-10.1 9.9-2 26.3-5.1 36.5-7 10.2-1.8 31.1-5.4 46.5-7.9 15.4-2.5 39.3-6.1 53-8.1 13.8-1.9 39.2-5 56.5-7 17.3-1.9 41.2-4.4 53-5.5 11.8-1 30.5-2.6 41.5-3.4 11-0.9 26.8-2 35-2.6 8.3-0.5 24-1.4 35-2 11-0.6 36.7-1.5 57-2 20.3-0.5 50.5-1 67-1 16.5 0 46.7 0.5 67 1 20.3 0.5 46 1.4 57 2 11 0.6 26.8 1.5 35 2 8.3 0.6 24 1.7 35 2.6 11 0.8 29.7 2.4 41.5 3.4 11.8 1.1 35.7 3.6 53 5.5 17.3 2 42.8 5.1 56.5 7 13.8 2 37.6 5.6 53 8.1 15.4 2.5 36.3 6.1 46.5 7.9 10.2 1.9 26.6 5 36.5 7 9.9 1.9 31.3 6.5 47.5 10.1 16.2 3.6 40.1 9.2 53 12.4 12.9 3.3 34.3 8.9 47.5 12.5 13.2 3.6 36.8 10.4 52.5 15.2 15.7 4.7 41.1 12.8 56.5 18 15.4 5.2 37.7 13.1 49.5 17.5 11.8 4.4 31.6 12.1 44 17 12.4 5 30.2 12.3 39.5 16.3 9.3 4 25.6 11.2 36 16 10.4 4.8 31.2 14.8 46 22.3 14.8 7.4 34.9 17.7 44.5 23 9.6 5.2 25.2 14 34.5 19.5 9.3 5.5 24.2 14.5 33 20 8.8 5.5 22.8 14.5 31 20 8.3 5.5 22.2 15.2 31 21.5 8.8 6.3 17.5 12.7 19.3 14.1l3.3 2.6-0.1-435.5h-2334z"/>
</svg>